<svg width="35" height="35" viewBox="0 0 35 35" fill="none" xmlns="http://www.w3.org/2000/svg">
<rect x="0.5" y="0.960938" width="34" height="34" rx="17" fill="white" fill-opacity="0.3"/>
<path d="M14.6552 24.125H14.6552C14.6129 24.125 14.571 24.1181 14.5309 24.1048C13.7642 24.1035 12.9974 24.0921 12.2309 24.0706C12.2309 24.0706 12.2308 24.0706 12.2308 24.0706L12.2343 23.9457C11.6753 23.9316 11.1566 23.9188 10.5561 23.9188L14.6552 24.125ZM14.6552 24.125C15.5114 24.125 17.4263 24.0804 19.4509 24.0315C21.4585 23.9839 23.5317 23.9351 24.4439 23.9351C26.4773 23.9351 28.125 22.2319 28.125 20.1466C28.1248 19.322 27.8632 18.5196 27.3795 17.8615C26.9193 17.2354 26.2819 16.7722 25.5557 16.5352C25.6651 16.0124 25.6658 15.4713 25.5575 14.9475C25.4411 14.3852 25.202 13.8573 24.8581 13.4039C24.5141 12.9505 24.0741 12.5833 23.5714 12.3305C23.0687 12.0777 22.5166 11.946 21.9568 11.9455C21.4671 11.9437 20.9821 12.0434 20.5307 12.2384C20.1312 12.4111 19.7653 12.6552 19.4498 12.959M14.6552 24.125L19.4498 12.959M19.4498 12.959C18.9405 12.0489 18.2128 11.2868 17.3349 10.7468C16.4092 10.1774 15.3511 9.87609 14.2724 9.875H14.2723C10.9768 9.875 8.30302 12.6351 8.30302 16.0191L19.4498 12.959ZM14.2723 10.5685C11.354 10.5685 8.9799 13.0132 8.9799 16.0191C8.9799 16.4508 9.0297 16.8812 9.12751 17.2983C9.14121 17.3569 9.13641 17.4186 9.11382 17.4742C9.09122 17.5299 9.052 17.5767 9.00183 17.6078C8.55775 17.8818 8.1905 18.27 7.93618 18.7344C7.68186 19.1988 7.54922 19.7234 7.55129 20.2565C7.55223 21.0769 7.86907 21.8633 8.43229 22.4433C8.9955 23.0233 9.7591 23.3495 10.5555 23.3503M14.2723 10.5685L14.2721 10.6935C14.2722 10.6935 14.2722 10.6935 14.2722 10.6935M14.2723 10.5685V10.6935C14.2723 10.6935 14.2722 10.6935 14.2722 10.6935M14.2723 10.5685L14.2722 10.6935M14.2722 10.6935C11.4264 10.6935 9.1049 13.0788 9.1049 16.0191C9.1049 16.4412 9.1536 16.8621 9.2492 17.2697L9.24923 17.2698C9.26879 17.3536 9.26198 17.4416 9.22964 17.5212C9.19728 17.6009 9.14082 17.6687 9.06778 17.714L9.06746 17.7142C8.6421 17.9766 8.28989 18.3488 8.04582 18.7945C7.80173 19.2402 7.6743 19.7439 7.67629 20.256L7.67629 20.2564C7.67719 21.0448 7.98173 21.7999 8.52196 22.3562C9.06207 22.9125 9.79354 23.2246 10.5557 23.2253M14.2722 10.6935C15.2685 10.6946 16.2437 10.9919 17.0806 11.5501C17.9173 12.1083 18.5805 12.9037 18.9899 13.8412C19.0175 13.9057 19.061 13.9622 19.1167 14.0047C19.1727 14.0474 19.2388 14.0746 19.3086 14.0831C19.3784 14.0916 19.4491 14.0812 19.5136 14.0529C19.5779 14.0248 19.6335 13.98 19.6752 13.9235C19.9433 13.5616 20.2888 13.2689 20.6845 13.068C21.0802 12.867 21.5154 12.7632 21.9562 12.7645L21.9564 12.7645C22.414 12.7649 22.865 12.8777 23.2722 13.0936C23.6793 13.3096 24.031 13.6226 24.2978 14.0071C24.5646 14.3915 24.7387 14.8362 24.8055 15.3043C24.8723 15.7724 24.8298 16.2501 24.6815 16.6977C24.6815 16.6977 24.6815 16.6978 24.6815 16.6978L14.2722 10.6935ZM10.5557 23.2253C10.5556 23.2253 10.5556 23.2253 10.5555 23.2253V23.3503M10.5557 23.2253L10.5555 23.3503M10.5557 23.2253C11.1625 23.2253 11.6868 23.2382 12.2504 23.2522M10.5555 23.3503C11.1608 23.3503 11.6836 23.3632 12.2473 23.3772M12.2473 23.3772L12.2504 23.2522M12.2473 23.3772L12.2862 23.3781C12.9305 23.3938 13.6321 23.4108 14.577 23.4108L12.2473 23.3772ZM12.2504 23.2522C12.2504 23.2522 12.2504 23.2522 12.2504 23.2522M12.2504 23.2522L12.2504 23.2522M12.2504 23.2522L12.2889 23.2532C12.9332 23.2688 13.6336 23.2858 14.577 23.2858H14.5773C14.6194 23.2859 14.6611 23.2927 14.7009 23.3059C15.5719 23.3039 17.532 23.258 19.4313 23.2132M12.2504 23.2522L19.4313 23.2132M19.4313 23.2132C21.4403 23.1656 23.5206 23.1167 24.4431 23.1167M19.4313 23.2132L24.4431 23.1167M24.4431 23.1167C25.2054 23.1157 25.937 22.8034 26.4771 22.247C27.0173 21.6904 27.3218 20.9351 27.3225 20.1465C27.3227 19.455 27.0887 18.7855 26.6616 18.2534C26.2346 17.7212 25.6414 17.3598 24.9846 17.2304C24.9278 17.2193 24.8742 17.1957 24.8274 17.1615L24.9011 17.0606L24.4431 23.1167ZM8.30302 16.0191C8.30299 16.4083 8.33878 16.7966 8.4099 17.1787L8.30302 16.0191Z" fill="white" stroke="white" stroke-width="0.25"/>
<path d="M16.875 20C16.6979 20 16.5496 19.936 16.43 19.808C16.3104 19.68 16.2504 19.5218 16.25 19.3333V16.6667C16.25 16.4778 16.31 16.3196 16.43 16.192C16.55 16.0644 16.6983 16.0004 16.875 16H18.75C18.9271 16 19.0756 16.064 19.1956 16.192C19.3156 16.32 19.3754 16.4782 19.375 16.6667V19.3333C19.375 19.5222 19.315 19.6807 19.195 19.8087C19.075 19.9367 18.9267 20.0004 18.75 20H16.875ZM17.1875 19H18.4375V17H17.1875V19ZM12.5 20C12.3229 20 12.1746 19.936 12.055 19.808C11.9354 19.68 11.8754 19.5218 11.875 19.3333V16.6667C11.875 16.4778 11.935 16.3196 12.055 16.192C12.175 16.0644 12.3233 16.0004 12.5 16H14.375C14.5521 16 14.7006 16.064 14.8206 16.192C14.9406 16.32 15.0004 16.4782 15 16.6667V17.3333H14.0625V17H12.8125V19H14.0625V18.6667H15V19.3333C15 19.5222 14.94 19.6807 14.82 19.8087C14.7 19.9367 14.5517 20.0004 14.375 20H12.5ZM20.625 22V20.3333C20.625 20.1444 20.685 19.9862 20.805 19.8587C20.925 19.7311 21.0733 19.6671 21.25 19.6667H22.5V19H20.625V18H22.8125C22.9896 18 23.1381 18.064 23.2581 18.192C23.3781 18.32 23.4379 18.4782 23.4375 18.6667V19.6667C23.4375 19.8556 23.3775 20.014 23.2575 20.142C23.1375 20.27 22.9892 20.3338 22.8125 20.3333H21.5625V21H23.4375V22H20.625Z" fill="white"/>
</svg>
