<svg width="27" height="27" viewBox="0 0 27 27" fill="none" xmlns="http://www.w3.org/2000/svg">
<rect x="0.5" y="0.960938" width="26" height="26" rx="13" fill="white" fill-opacity="0.3"/>
<g clip-path="url(#clip0_0_3305)">
<g clip-path="url(#clip1_0_3305)">
<path d="M21.5667 10.6276C20.6333 6.69427 17.1667 3.96094 13.1667 3.96094C8.36667 3.96094 4.5 7.8276 4.5 12.6276C4.5 17.1609 8.03333 20.8943 12.5 21.2276V24.5609C12.5 24.9609 12.7667 25.2276 13.1667 25.2276C13.5667 25.2276 13.8333 24.9609 13.8333 24.5609V15.0276L16.9667 11.8943C17.2333 11.6276 17.2333 11.2276 16.9667 10.9609C16.7 10.6943 16.3 10.6943 16.0333 10.9609L13.8333 13.2276V11.2276L11.6333 9.0276C11.3667 8.76094 10.9667 8.76094 10.7 9.0276C10.4333 9.29427 10.4333 9.69427 10.7 9.96094L12.5 11.7609V15.8943L9.96667 13.3609C9.7 13.0943 9.3 13.0943 9.03333 13.3609C8.76667 13.6276 8.76667 14.0276 9.03333 14.2943L12.5 17.7609V19.8943C8.76667 19.5609 5.83333 16.4276 5.83333 12.6276C5.83333 8.56094 9.1 5.29427 13.1667 5.29427C17.2333 5.29427 20.5 8.56094 20.5 12.6276C20.5 15.8943 18.3 18.7609 15.1667 19.6943V21.0943C19.8333 19.9609 22.7 15.2943 21.5667 10.6276Z" fill="white"/>
</g>
</g>
<defs>
<clipPath id="clip0_0_3305">
<rect width="24" height="24" fill="white" transform="translate(1.5 1.96094)"/>
</clipPath>
<clipPath id="clip1_0_3305">
<rect width="24" height="24" fill="white" transform="translate(2 1.96094)"/>
</clipPath>
</defs>
</svg>
