<svg width="27" height="27" viewBox="0 0 27 27" fill="none" xmlns="http://www.w3.org/2000/svg">
<rect x="0.5" y="0.960938" width="26" height="26" rx="13" fill="white" fill-opacity="0.3"/>
<g clip-path="url(#clip0_0_3297)">
<path d="M5.625 7.96568C6.62063 7.57256 8.04825 7.14862 9.4365 7.01687C10.9328 6.8745 12.2017 7.08381 12.9375 7.81587V18.171C11.8856 17.6079 10.5525 17.5303 9.32288 17.6472C7.99538 17.7747 6.65663 18.137 5.625 18.5089V7.96568ZM14.0625 7.81587C14.7983 7.08381 16.0673 6.8745 17.5635 7.01687C18.9518 7.14862 20.3794 7.57256 21.375 7.96568V18.5089C20.3422 18.137 19.0046 17.7736 17.6771 17.6482C16.4464 17.5303 15.1144 17.6068 14.0625 18.171V7.81587ZM13.5 6.85537C12.3919 5.95543 10.7854 5.82156 9.32288 5.95968C7.61963 6.12225 5.90062 6.67368 4.82963 7.13375C4.73136 7.17596 4.64802 7.24398 4.58957 7.32971C4.53113 7.41543 4.50003 7.51522 4.5 7.61718V19.3047C4.50003 19.3936 4.52367 19.481 4.56876 19.5591C4.61385 19.6371 4.67894 19.7032 4.75809 19.7513C4.83723 19.7994 4.92789 19.828 5.02176 19.8344C5.11562 19.8408 5.2097 19.8249 5.29537 19.7881C6.28763 19.3631 7.88625 18.8521 9.43538 18.7044C11.0205 18.5535 12.3491 18.7968 13.0612 19.6362C13.114 19.6982 13.1807 19.7483 13.2567 19.7827C13.3326 19.8171 13.4158 19.835 13.5 19.835C13.5842 19.835 13.6674 19.8171 13.7433 19.7827C13.8193 19.7483 13.886 19.6982 13.9388 19.6362C14.6509 18.7968 15.9795 18.5535 17.5635 18.7044C19.1138 18.8521 20.7135 19.3631 21.7046 19.7881C21.7903 19.8249 21.8844 19.8408 21.9782 19.8344C22.0721 19.828 22.1628 19.7994 22.2419 19.7513C22.3211 19.7032 22.3862 19.6371 22.4312 19.5591C22.4763 19.481 22.5 19.3936 22.5 19.3047V7.61718C22.5 7.51522 22.4689 7.41543 22.4104 7.32971C22.352 7.24398 22.2686 7.17596 22.1704 7.13375C21.0994 6.67368 19.3804 6.12225 17.6771 5.95968C16.2146 5.8205 14.6081 5.95543 13.5 6.85537Z" fill="white"/>
</g>
<defs>
<clipPath id="clip0_0_3297">
<rect width="18" height="17" fill="white" transform="translate(4.5 4.96094)"/>
</clipPath>
</defs>
</svg>
