<?xml version="1.0" encoding="utf-8"?>
<!-- Generator: Adobe Illustrator 27.6.1, SVG Export Plug-In . SVG Version: 6.00 Build 0)  -->
<svg version="1.1" id="Layer_1" xmlns="http://www.w3.org/2000/svg" xmlns:xlink="http://www.w3.org/1999/xlink" x="0px" y="0px"
	 viewBox="0 0 620.1 267.8" style="enable-background:new 0 0 620.1 267.8;" xml:space="preserve">
<style type="text/css">
	.st0{fill:#EE1C4E;}
	.st1{fill:#010101;}
	.st2{fill:#FFCB07;}
	.st3{fill:#FFCC09;}
	.st4{fill:#898989;}
	.st5{fill:none;stroke:#000000;stroke-miterlimit:10;}
	.st6{fill:#05BCC4;}
	.st7{fill:#93298E;}
	.st8{opacity:0.5;fill:#93298E;enable-background:new    ;}
	.st9{fill:#A7A9AC;}
</style>
<path d="M190-121.7l20.9-41.8h3.6l20.9,41.8h-16v-5.9h6.6l-13.2-26.5l-13.3,26.5h6.8v5.9H190z M209.8-137.5c0-0.4,0.2-0.8,0.5-1.1
	s0.7-0.5,1.1-0.5h2.6c0.4,0,0.8,0.2,1.2,0.5c0.3,0.3,0.5,0.7,0.5,1.1v2.6c0,0.5-0.2,0.9-0.5,1.2c-0.3,0.3-0.7,0.5-1.2,0.5h-2.6
	c-0.4,0-0.8-0.2-1.1-0.5c-0.3-0.3-0.5-0.7-0.5-1.2V-137.5z"/>
<path d="M236.8-163.5h29.9c1.7,0,3.2,0.3,4.7,0.9c1.4,0.6,2.7,1.5,3.8,2.5c1.1,1.1,1.9,2.3,2.5,3.8c0.6,1.5,0.9,3,0.9,4.6h-5.9
	c0-0.8-0.2-1.6-0.5-2.3c-0.3-0.7-0.7-1.4-1.3-1.9c-0.6-0.6-1.2-1-1.9-1.3c-0.7-0.3-1.5-0.5-2.4-0.5h-29.9V-163.5z M242.7-151.6v18
	c0,0.8,0.2,1.6,0.5,2.4c0.3,0.7,0.8,1.4,1.3,1.9c0.6,0.6,1.2,1,1.9,1.3c0.7,0.3,1.5,0.5,2.3,0.5h18c0.8,0,1.6-0.2,2.4-0.5
	c0.7-0.3,1.4-0.8,1.9-1.3c0.5-0.5,1-1.2,1.3-1.9c0.3-0.7,0.5-1.5,0.5-2.4h5.9c0,1.6-0.3,3.2-0.9,4.6c-0.6,1.5-1.5,2.7-2.5,3.8
	c-1.1,1.1-2.3,1.9-3.8,2.5c-1.5,0.6-3,0.9-4.6,0.9h-18c-1.6,0-3.2-0.3-4.6-0.9s-2.7-1.5-3.8-2.5c-1.1-1.1-1.9-2.3-2.5-3.8
	c-0.6-1.5-0.9-3-0.9-4.6v-18H242.7z"/>
<path d="M283.5-157.7v-5.9h41.8v5.9H283.5z M289.4-145.5v12.1c0,0.8,0.2,1.6,0.5,2.3c0.3,0.7,0.8,1.3,1.3,1.9s1.2,1,1.9,1.3
	c0.7,0.3,1.5,0.5,2.3,0.5h29.9v5.9h-29.9c-1.6,0-3.1-0.3-4.6-0.9c-1.4-0.6-2.7-1.4-3.8-2.4c-1.1-1-1.9-2.3-2.6-3.7
	c-0.6-1.4-1-2.9-1-4.5v-12.3H289.4z M292.2-143.9c0-0.5,0.2-0.9,0.5-1.2s0.7-0.5,1.1-0.5h2.6c0.4,0,0.8,0.2,1.2,0.5
	c0.3,0.3,0.5,0.7,0.5,1.2v2.6c0,0.4-0.2,0.8-0.5,1.1c-0.3,0.3-0.7,0.5-1.2,0.5h-2.6c-0.4,0-0.8-0.2-1.1-0.5s-0.5-0.7-0.5-1.1V-143.9
	z M301-139.7v-5.9h18.5v5.9H301z"/>
<path d="M93.9-701c-1.3,1.9-3.1,3.4-5.4,4.5c-2.3,1.1-4.7,1.6-7.3,1.6c-4.8,0-8.9-1.7-12.1-5c-3.2-3.3-4.8-7.4-4.8-12.3
	c0-4.9,1.6-9.1,4.9-12.4c3.3-3.3,7.4-5,12.4-5c2.5,0,4.9,0.5,7,1.5c2.1,1,3.9,2.5,5.3,4.5v-5.3h4.1v33.1h-4.1V-701z M93.9-712.5
	c0-3.5-1.3-6.6-3.8-9.2c-2.5-2.6-5.4-3.9-8.7-3.9c-3.5,0-6.6,1.3-9.1,3.9c-2.5,2.6-3.7,5.9-3.7,9.7c0,3.7,1.2,6.8,3.7,9.3
	c2.5,2.5,5.5,3.8,9,3.8c3.4,0,6.3-1.3,8.8-4C92.7-705.5,93.9-708.7,93.9-712.5z"/>
<path d="M109.9-732.7h-5.8v-6.8h5.8V-732.7z M104.1-695.7v-33.1h5.8v33.1H104.1z"/>
<path d="M141.9-723.6c1.3-1.9,3-3.4,5-4.3c2-1,4.2-1.5,6.7-1.5c4.5,0,7.8,1.3,9.8,4c2,2.7,3.1,7,3.1,13v16.7h-4.1v-17.5
	c0-4.4-0.7-7.5-2.2-9.3c-1.4-1.9-3.8-2.8-7.1-2.8c-1.9,0-3.5,0.4-5,1.2c-1.4,0.8-2.6,1.9-3.4,3.3c-0.5,0.9-0.9,1.9-1.1,3.1
	c-0.2,1.2-0.3,3.2-0.3,6v16.1h-4v-18.5c0-3.8-0.8-6.6-2.3-8.4c-1.5-1.8-3.9-2.7-7.1-2.7c-1.9,0-3.6,0.4-5.1,1.2
	c-1.5,0.8-2.6,1.9-3.4,3.3c-0.5,0.9-0.9,1.9-1.1,3.1c-0.2,1.2-0.3,3.2-0.3,6v16.1h-4.2v-33.1h4.2v3.8c1.3-1.5,2.7-2.6,4.5-3.3
	c1.7-0.7,3.7-1.1,5.8-1.1c2.5,0,4.8,0.5,6.9,1.6C139.2-726.8,140.8-725.4,141.9-723.6z"/>
<path class="st0" d="M199.3-720.4c-1.5-2.1-3.2-3.6-5.1-4.6c-1.9-1-4-1.5-6.4-1.5c-3.7,0-6.9,1.4-9.6,4.2c-2.7,2.8-4,6.1-4,9.9
	c0,4.1,1.3,7.5,4,10.3c2.6,2.8,5.8,4.2,9.6,4.2c2.3,0,4.4-0.5,6.3-1.5c1.9-1,3.5-2.4,4.9-4.3h3.9c-1.5,2.9-3.6,5.1-6.2,6.6
	c-2.6,1.6-5.5,2.3-8.7,2.3c-4.9,0-9.1-1.7-12.4-5.1c-3.3-3.4-5-7.6-5-12.6c0-2.4,0.4-4.6,1.3-6.7c0.9-2.1,2.2-4,3.9-5.7
	c1.6-1.6,3.4-2.8,5.4-3.6c2-0.8,4.2-1.2,6.5-1.2c3.3,0,6.3,0.8,9,2.4c2.7,1.6,4.8,3.9,6.3,6.9H199.3z"/>
<text transform="matrix(1 0 0 1 69.5602 -637.6519)"><tspan x="0" y="0" style="font-family:'Gilroy-Light'; font-size:50.0395px;">AIM</tspan><tspan x="83.2" y="0" style="font-family:'Gilroy-ExtraBold'; font-size:50.0395px;">CET</tspan></text>
<g>
	<text transform="matrix(1 0 0 1 81.1712 -397.4327)" style="font-family:'Eavm'; font-size:40.6572px;">ACE</text>
</g>
<text transform="matrix(1 0 0 1 234.6823 -655.4927)"><tspan x="0" y="0" style="font-family:'AvantGardeITCbyBT-Book'; font-size:10.1095px;">CAREER </tspan><tspan x="0" y="9" style="font-family:'AvantGardeITCbyBT-Book'; font-size:10.1095px;">EXPLORER</tspan><tspan x="0" y="18" style="font-family:'AvantGardeITCbyBT-Book'; font-size:10.1095px;">TEST</tspan></text>
<text transform="matrix(1 0 0 1 242.8522 -664.8272)" style="font-family:'AvantGardeITCbyBT-Book'; font-size:11.2191px;">AIMSHALA</text>
<path d="M98.6-584h3.9v38h-3.9v-8.6c-1.6,2.9-3.8,5.2-6.7,6.9c-2.8,1.7-6,2.5-9.6,2.5c-5.4,0-10-1.9-13.9-5.7
	c-3.8-3.8-5.8-8.5-5.8-14.1c0-5.6,1.9-10.3,5.8-14.1c3.8-3.8,8.5-5.7,13.9-5.7c3.6,0,6.8,0.8,9.6,2.5c2.8,1.7,5.1,4,6.7,6.9V-584z
	 M71.1-553.5c3.1,3.1,6.9,4.7,11.4,4.7c4.5,0,8.3-1.6,11.4-4.7c3.1-3.1,4.6-7,4.6-11.5c0-4.5-1.5-8.3-4.6-11.5
	c-3.1-3.1-6.9-4.7-11.4-4.7c-4.5,0-8.3,1.6-11.4,4.7c-3.1,3.1-4.7,7-4.7,11.5C66.5-560.5,68-556.7,71.1-553.5z"/>
<path d="M167.4-584.8c4.1,0,7.5,1.3,10,3.9c2.5,2.6,3.8,6.2,3.8,10.9v24.1h-3.8v-24.1c0-3.5-0.9-6.3-2.8-8.2
	c-1.8-1.9-4.3-2.9-7.3-2.9c-3.4,0-6.1,1.2-8.2,3.5c-2.1,2.3-3.1,5.8-3.1,10.5v21.2h-3.8v-24.1c0-3.5-0.9-6.3-2.6-8.2
	c-1.7-1.9-4.1-2.9-7.1-2.9c-3.3,0-6.1,1.2-8.4,3.5c-2.3,2.4-3.4,5.8-3.4,10.4v21.2h-3.8v-38h3.8v6.5c2.6-4.9,6.7-7.4,12.2-7.4
	c2.8,0,5.2,0.7,7.3,2c2.1,1.3,3.6,3.3,4.6,5.7c1.3-2.6,3.1-4.5,5.4-5.8C162.3-584.1,164.8-584.8,167.4-584.8z"/>
<path d="M211.4-544.9c-7.9,0-14.5-2.6-19.8-7.9c-5.2-5.3-7.9-11.9-7.9-19.7s2.6-14.4,7.9-19.7c5.2-5.3,11.8-7.9,19.8-7.9
	c4.8,0,9.2,1.1,13.2,3.3c4,2.2,7.2,5.2,9.6,9l-10.5,6.1c-1.2-2.1-2.8-3.7-5-4.8s-4.6-1.7-7.3-1.7c-4.7,0-8.5,1.4-11.3,4.3
	c-2.8,2.9-4.2,6.7-4.2,11.5s1.4,8.6,4.2,11.5c2.8,2.9,6.6,4.3,11.3,4.3c2.7,0,5.1-0.6,7.3-1.7c2.2-1.2,3.9-2.8,5-4.8l10.5,6.1
	c-2.3,3.8-5.4,6.8-9.5,9C220.6-546,216.2-544.9,211.4-544.9z"/>
<path d="M252-557.7h21.3v11.7h-33.4v-53.1h33v11.7H252v8.8h19v11.5h-19V-557.7z"/>
<path d="M315.8-599.1v11.7h-13.7v41.4H290v-41.4h-13.7v-11.7H315.8z"/>
<text transform="matrix(1 0 0 1 305.5599 -573.0684)"><tspan x="0" y="0" style="font-family:'AvantGardeITCbyBT-Book'; font-size:15.3351px;">CAREER </tspan><tspan x="0" y="13.7" style="font-family:'AvantGardeITCbyBT-Book'; font-size:15.3351px;">EXPLORER</tspan><tspan x="0" y="27.4" style="font-family:'AvantGardeITCbyBT-Book'; font-size:15.3351px;">TEST</tspan></text>
<g>
	<g>
		<path d="M352.5-154.8h-0.9l3.4-8.8h1l3.4,8.8h-0.9l-1.1-2.8h-3.9L352.5-154.8z M357.1-158.3l-1.7-4.4l-1.6,4.4H357.1z"/>
		<path d="M360.9-154.8h-0.9v-8.8h0.9V-154.8z"/>
		<path d="M362.6-154.8v-8.8h1.3l3,7.6l3-7.6h1.3v8.8h-0.8v-7.8l-3.1,7.8h-0.8l-3.1-7.8v7.8H362.6z"/>
		<path d="M372.3-157.3h0.8c0,0.5,0.2,1,0.5,1.3c0.3,0.3,0.7,0.5,1.1,0.5c0.5,0,0.9-0.2,1.2-0.5c0.3-0.3,0.4-0.8,0.4-1.3
			c0-0.8-0.6-1.4-1.8-1.8c-0.1,0-0.2-0.1-0.2-0.1c-0.6-0.2-1.1-0.5-1.4-0.8c-0.3-0.3-0.4-0.8-0.4-1.3c0-0.7,0.2-1.3,0.7-1.7
			c0.4-0.4,1-0.7,1.7-0.7c0.7,0,1.2,0.2,1.6,0.6c0.4,0.4,0.6,1,0.6,1.7h-0.8c0-0.5-0.2-0.8-0.4-1.1c-0.2-0.3-0.6-0.4-1-0.4
			c-0.4,0-0.8,0.1-1.1,0.4c-0.3,0.3-0.4,0.6-0.4,1.1c0,0.2,0,0.4,0.1,0.6c0.1,0.2,0.2,0.3,0.4,0.5c0.2,0.1,0.5,0.3,1.1,0.5
			c0.3,0.1,0.5,0.2,0.7,0.2c0.6,0.2,1,0.5,1.2,0.8c0.3,0.3,0.4,0.8,0.4,1.4c0,0.9-0.2,1.5-0.7,2.1c-0.5,0.5-1.1,0.8-1.8,0.8
			c-0.7,0-1.3-0.2-1.7-0.7C372.5-155.8,372.3-156.5,372.3-157.3z"/>
		<path d="M379.4-154.8h-0.9v-8.8h0.9v3.9h4.2v-3.9h0.9v8.8h-0.9v-4h-4.2V-154.8z"/>
		<path d="M385.8-154.8h-0.9l3.4-8.8h1l3.4,8.8h-0.9l-1.1-2.8h-3.9L385.8-154.8z M390.5-158.3l-1.7-4.4l-1.6,4.4H390.5z"/>
		<path d="M397.4-154.8h-4v-8.8h0.9v7.9h3.1V-154.8z"/>
		<path d="M398.3-154.8h-0.9l3.4-8.8h1l3.4,8.8h-0.9l-1-2.8h-3.9L398.3-154.8z M403-158.3l-1.7-4.4l-1.6,4.4H403z"/>
		<path d="M359.7-150.3c-0.4-0.5-0.8-0.9-1.3-1.2c-0.5-0.3-1-0.4-1.7-0.4c-1,0-1.8,0.4-2.5,1.1c-0.7,0.7-1,1.6-1,2.6
			c0,1.1,0.3,2,1,2.7c0.7,0.7,1.5,1.1,2.5,1.1c0.6,0,1.2-0.1,1.6-0.4c0.5-0.3,0.9-0.6,1.3-1.1h1c-0.4,0.7-0.9,1.3-1.6,1.7
			c-0.7,0.4-1.4,0.6-2.3,0.6c-1.3,0-2.4-0.4-3.2-1.3c-0.9-0.9-1.3-2-1.3-3.3c0-0.6,0.1-1.2,0.3-1.7c0.2-0.6,0.6-1,1-1.5
			c0.4-0.4,0.9-0.7,1.4-1c0.5-0.2,1.1-0.3,1.7-0.3c0.9,0,1.7,0.2,2.4,0.6c0.7,0.4,1.2,1,1.7,1.8H359.7z"/>
		<path d="M361.8-143.7h-0.9l3.4-8.8h1l3.4,8.8h-0.9l-1.1-2.8h-3.9L361.8-143.7z M366.4-147.3l-1.7-4.4l-1.6,4.4H366.4z"/>
		<path d="M370.1-151.7v7.9h-0.9v-8.8h2.4c0.5,0,0.9,0,1.3,0.1c0.3,0.1,0.6,0.2,0.9,0.4c0.3,0.2,0.6,0.6,0.8,1
			c0.2,0.4,0.3,0.8,0.3,1.3c0,0.7-0.2,1.3-0.6,1.8c-0.4,0.5-0.9,0.8-1.5,0.8l2.1,3.4h-1l-2.6-4.2h0.8c0.6,0,1-0.2,1.4-0.5
			s0.5-0.7,0.5-1.3c0-0.3-0.1-0.6-0.2-0.8c-0.1-0.3-0.3-0.5-0.5-0.7c-0.2-0.2-0.4-0.3-0.6-0.3c-0.2-0.1-0.7-0.1-1.3-0.1H370.1z"/>
		<path d="M377.1-148.6h3.7v0.9h-3.7v3.1h3.7v0.9h-4.6v-8.8h4.6v0.9h-3.7V-148.6z"/>
		<path d="M383.3-148.6h3.7v0.9h-3.7v3.1h3.7v0.9h-4.6v-8.8h4.6v0.9h-3.7V-148.6z"/>
		<path d="M389.4-151.7v7.9h-0.9v-8.8h2.4c0.5,0,0.9,0,1.3,0.1c0.3,0.1,0.6,0.2,0.9,0.4c0.3,0.2,0.6,0.6,0.8,1
			c0.2,0.4,0.3,0.8,0.3,1.3c0,0.7-0.2,1.3-0.6,1.8c-0.4,0.5-0.9,0.8-1.5,0.8l2.1,3.4h-1l-2.6-4.2h0.8c0.6,0,1-0.2,1.4-0.5
			s0.5-0.7,0.5-1.3c0-0.3-0.1-0.6-0.2-0.8s-0.3-0.5-0.5-0.7c-0.2-0.2-0.4-0.3-0.6-0.3c-0.2-0.1-0.7-0.1-1.3-0.1H389.4z"/>
		<path d="M353.6-137.6h3.7v0.9h-3.7v3.1h3.7v0.9h-4.6v-8.8h4.6v0.9h-3.7V-137.6z"/>
		<path d="M359.1-132.7H358l3.1-4.4l-3-4.4h1.1l2.4,3.6l2.4-3.6h1.1l-3,4.4l3,4.4h-1.1l-2.5-3.7L359.1-132.7z"/>
		<path d="M365.8-141.5h1.9c0.5,0,1,0,1.3,0.1c0.3,0.1,0.6,0.1,0.8,0.3c0.4,0.2,0.7,0.5,0.9,0.9c0.2,0.4,0.3,0.8,0.3,1.3
			c0,0.4-0.1,0.9-0.3,1.2c-0.2,0.4-0.4,0.7-0.8,0.9c-0.2,0.2-0.5,0.3-0.8,0.3c-0.3,0.1-0.7,0.1-1.2,0.1h-1.2v3.7h-0.9V-141.5z
			 M366.7-140.6v3.3h1.3c0.7,0,1.2-0.1,1.6-0.4c0.3-0.3,0.5-0.7,0.5-1.2c0-0.6-0.2-1-0.5-1.3c-0.3-0.3-0.9-0.4-1.6-0.4H366.7z"/>
		<path d="M376.1-132.7h-4v-8.8h0.9v7.9h3.1V-132.7z"/>
		<path d="M376.4-137.2c0-0.6,0.1-1.2,0.4-1.7c0.2-0.6,0.6-1.1,1-1.5c0.4-0.4,0.9-0.7,1.4-1c0.5-0.2,1.1-0.3,1.7-0.3
			c0.6,0,1.2,0.1,1.7,0.3c0.5,0.2,1,0.5,1.4,1c0.4,0.4,0.8,0.9,1,1.5c0.2,0.5,0.3,1.1,0.3,1.8c0,0.6-0.1,1.2-0.3,1.7
			c-0.2,0.5-0.5,1-0.9,1.4c-0.4,0.5-1,0.9-1.5,1.1c-0.6,0.2-1.2,0.4-1.8,0.4c-1.3,0-2.3-0.4-3.2-1.3
			C376.8-134.8,376.4-135.9,376.4-137.2z M377.3-137.2c0,1.1,0.3,2,1,2.7c0.7,0.7,1.6,1.1,2.6,1.1c1,0,1.8-0.4,2.5-1.1
			c0.7-0.7,1-1.6,1-2.7c0-1-0.4-1.9-1.1-2.6c-0.7-0.7-1.6-1.1-2.6-1.1c-0.4,0-0.8,0.1-1.2,0.2c-0.4,0.1-0.7,0.3-1,0.6
			c-0.4,0.4-0.7,0.8-1,1.3C377.4-138.2,377.3-137.7,377.3-137.2z"/>
		<path d="M387.3-140.6v7.9h-0.9v-8.8h2.4c0.5,0,0.9,0,1.3,0.1c0.3,0.1,0.6,0.2,0.9,0.4c0.3,0.2,0.6,0.6,0.8,1
			c0.2,0.4,0.3,0.8,0.3,1.3c0,0.7-0.2,1.3-0.6,1.8c-0.4,0.5-0.9,0.8-1.5,0.8l2.1,3.4h-1l-2.6-4.2h0.8c0.6,0,1-0.2,1.4-0.5
			s0.5-0.7,0.5-1.3c0-0.3-0.1-0.6-0.2-0.8c-0.1-0.3-0.3-0.5-0.5-0.7c-0.2-0.2-0.4-0.3-0.6-0.3c-0.2-0.1-0.7-0.1-1.3-0.1H387.3z"/>
		<path d="M394.3-137.6h3.7v0.9h-3.7v3.1h3.7v0.9h-4.6v-8.8h4.6v0.9h-3.7V-137.6z"/>
		<path d="M400.3-140.6v7.9h-0.9v-8.8h2.4c0.5,0,0.9,0,1.3,0.1c0.3,0.1,0.6,0.2,0.9,0.4c0.3,0.2,0.6,0.6,0.8,1
			c0.2,0.4,0.3,0.8,0.3,1.3c0,0.7-0.2,1.3-0.6,1.8c-0.4,0.5-0.9,0.8-1.5,0.8l2.1,3.4h-1l-2.6-4.2h0.8c0.6,0,1-0.2,1.4-0.5
			s0.5-0.7,0.5-1.3c0-0.3-0.1-0.6-0.2-0.8c-0.1-0.3-0.3-0.5-0.5-0.7c-0.2-0.2-0.4-0.3-0.6-0.3c-0.2-0.1-0.7-0.1-1.3-0.1H400.3z"/>
		<path d="M354.6-121.7h-0.9v-7.9h-1.8v-0.9h4.4v0.9h-1.8V-121.7z"/>
		<path d="M358.1-126.5h3.7v0.9h-3.7v3.1h3.7v0.9h-4.6v-8.8h4.6v0.9h-3.7V-126.5z"/>
		<path d="M362.9-124.2h0.8c0,0.5,0.2,1,0.5,1.3c0.3,0.3,0.7,0.5,1.1,0.5c0.5,0,0.9-0.2,1.2-0.5c0.3-0.3,0.4-0.8,0.4-1.3
			c0-0.8-0.6-1.4-1.8-1.8c-0.1,0-0.2-0.1-0.2-0.1c-0.6-0.2-1.1-0.5-1.4-0.8c-0.3-0.3-0.4-0.8-0.4-1.3c0-0.7,0.2-1.3,0.7-1.7
			c0.4-0.4,1-0.7,1.7-0.7c0.7,0,1.2,0.2,1.6,0.6c0.4,0.4,0.6,1,0.6,1.7h-0.8c0-0.5-0.2-0.8-0.4-1.1c-0.2-0.3-0.6-0.4-1-0.4
			c-0.4,0-0.8,0.1-1.1,0.4c-0.3,0.3-0.4,0.6-0.4,1.1c0,0.2,0,0.4,0.1,0.6c0.1,0.2,0.2,0.3,0.4,0.5c0.2,0.1,0.5,0.3,1.1,0.5
			c0.3,0.1,0.5,0.2,0.7,0.2c0.6,0.2,1,0.5,1.2,0.8c0.3,0.3,0.4,0.8,0.4,1.4c0,0.9-0.2,1.5-0.7,2.1c-0.5,0.5-1.1,0.8-1.8,0.8
			c-0.7,0-1.3-0.2-1.7-0.7C363.2-122.8,363-123.4,362.9-124.2z"/>
		<path d="M371-121.7h-0.9v-7.9h-1.8v-0.9h4.4v0.9H371V-121.7z"/>
	</g>
</g>
<text transform="matrix(1 0 0 1 317.9531 -587.2278)" style="font-family:'AvantGardeITCbyBT-Book'; font-size:17.0184px;">AIMSHALA</text>
<text transform="matrix(1 0 0 1 181.6432 -709.5504)" style="font-family:'AvantGardeITCbyBT-Book'; font-size:7.6144px;">Career Explorer Test</text>
<path d="M81.2-757.5c-2.7,0-4.9-0.6-6.4-1.7c-1.7-1.3-2.6-3.3-2.6-6c0-0.4,0-0.7,0-1.1c0.3-2.8,1.6-5.2,4-7.2c1.9-1.6,4.4-2.9,7.6-4
	c3-1,5.9-1.6,8.9-2v-6.2c0-1.8-0.2-3.1-0.6-4c-0.4-0.9-1.1-1.5-2-1.9c-0.9-0.3-2-0.5-3.3-0.5c-0.7,0.1-1.3,0.2-1.9,0.3
	c-0.8,0.4-1.5,1.1-2,1.9c-0.5,0.9-0.9,1.8-1.2,2.7c-0.3,1-0.5,1.8-0.6,2.5l-0.2,1l-4.9-1.8c0.9-2.3,2.4-4.1,4.6-5.5s4.6-2.1,7.4-2.1
	c1.6,0,3.2,0.3,4.7,0.8l0.2,0.1c1.5,0.6,2.8,1.3,3.9,2.2l0.8,0.8c0.1,0.1,0.1,0.1,0.2,0.2c0.4,0.4,0.8,0.9,1.2,1.4l0.1,0.2
	c0.4,0.5,0.6,1,0.8,1.4c0.4,0.9,0.6,1.8,0.7,2.7c0,0.2,0,0.3,0,0.4v18.8c0,2,0.3,3.5,1,4.6c0.5,0.7,1,1.2,1.6,1.4l0.3,0.1v0.2h-5.8
	c-0.9,0-1.7-0.2-2.5-0.7c-0.7-0.4-1.3-1-1.8-1.8c-2,0.7-4.2,1.4-6.8,1.9C84.6-757.7,82.8-757.5,81.2-757.5z M86.4-759.1
	c0.6,0,1.2-0.1,1.8-0.2c1.9-0.4,3.5-0.9,4.9-1.4c-0.2-0.6-0.3-1.2-0.3-1.8v-16.1c-1.3,0.1-2.9,0.4-4.8,0.8c-1.6,0.4-2.9,1.4-4.2,2.8
	c-1.7,2-2.6,4.9-2.6,8.6c0,0.5,0,1,0,1.5C81.4-761,83.2-759.1,86.4-759.1z"/>
<path d="M116.1-757.5h-10.8v-0.2l0.2,0c0.1,0,0.3-0.1,0.5-0.3c0.2-0.1,0.4-0.4,0.6-0.6c0.2-0.3,0.4-0.7,0.6-1.2
	c0.2-0.5,0.3-1.1,0.3-1.9v-16.1c0-0.7,0-1.3-0.1-1.8c-0.1-0.5-0.1-1-0.2-1.3c-0.1-0.4-0.2-0.7-0.3-0.9c-0.1-0.2-0.2-0.4-0.4-0.5
	c-0.1-0.1-0.2-0.2-0.3-0.3c-0.1-0.1-0.2-0.1-0.2-0.1l-0.1,0v-0.3c0.6,0,1.1,0,1.6,0c1.1-0.1,2-0.2,2.8-0.4c0.7-0.2,1.4-0.4,1.8-0.6
	c0.5-0.2,0.8-0.5,1.1-0.7c0.3-0.2,0.4-0.4,0.5-0.6l0.1-0.2v23.9c0.1,0.8,0.2,1.4,0.3,1.9c0.2,0.5,0.3,0.9,0.6,1.2
	c0.2,0.3,0.4,0.5,0.6,0.7c0.2,0.1,0.4,0.2,0.5,0.3l0.2,0V-757.5z M110.2-788.8l-4.1-4.1l4.1-4.1l4.1,4.1L110.2-788.8z"/>
<path d="M128.9-757.4h-10.8v-0.2l0.2-0.1c0.1,0,0.3-0.1,0.5-0.3c0.2-0.1,0.4-0.4,0.6-0.6c0.2-0.3,0.4-0.7,0.6-1.2
	c0.2-0.5,0.3-1.1,0.3-1.9v-16.1c0-0.7,0-1.3-0.1-1.8c-0.1-0.5-0.1-1-0.2-1.3c-0.1-0.4-0.2-0.7-0.3-0.9c-0.1-0.2-0.2-0.4-0.4-0.5
	c-0.1-0.1-0.2-0.2-0.3-0.3c-0.1-0.1-0.2-0.1-0.2-0.1l-0.1,0v-0.3c0.6,0,1.1,0,1.6,0c1.1-0.1,2-0.2,2.8-0.4c0.7-0.2,1.4-0.4,1.8-0.6
	c0.5-0.2,0.8-0.5,1.1-0.7c0.3-0.2,0.4-0.4,0.5-0.6l0.1-0.2v4.3c0.3-0.3,0.7-0.6,1.1-0.9c2.7-2.2,5.7-3.3,9-3.3h0.1
	c1.7,0.1,3.3,0.4,4.8,1c2.2,1,3.8,2.4,4.8,4.4c0.7-0.8,1.4-1.5,2.2-2.2c2.8-2.2,5.7-3.3,9-3.3h0.1c1.7,0.1,3.2,0.4,4.5,1
	c0.1,0,0.1,0,0.2,0.1c1.9,0.8,3.4,2.1,4.4,3.8c1.1,1.7,1.6,3.5,1.6,5.5v13.5c0.1,0.7,0.2,1.4,0.3,1.9c0.2,0.5,0.4,0.9,0.6,1.2
	c0.2,0.3,0.4,0.5,0.6,0.6c0.2,0.1,0.4,0.2,0.5,0.3l0.2,0.1v0.2h-10.8v-0.2l0.2-0.1c0.1,0,0.3-0.1,0.5-0.3c0.2-0.1,0.4-0.4,0.6-0.6
	c0.2-0.3,0.4-0.7,0.6-1.2c0.2-0.5,0.3-1.1,0.3-1.9v-15.7c0-0.6-0.1-1.3-0.2-2.2c-0.2-0.9-0.4-1.7-0.9-2.5c-0.4-0.8-1-1.5-1.8-2
	c-0.7-0.4-1.5-0.6-2.6-0.6c-0.5,0-1.1,0.1-1.7,0.2h0c-3.3,0.7-6.1,2.5-8.3,5.2c0.6,1.3,0.9,2.7,0.9,4.2v13.5
	c0.1,0.7,0.2,1.4,0.3,1.9c0.2,0.5,0.4,0.9,0.6,1.2c0.2,0.3,0.4,0.5,0.6,0.6c0.2,0.1,0.4,0.2,0.5,0.3l0.2,0.1v0.2h-10.8v-0.2l0.2-0.1
	c0.1,0,0.3-0.1,0.5-0.3c0.2-0.1,0.4-0.4,0.6-0.6c0.2-0.3,0.4-0.7,0.6-1.2c0.2-0.5,0.3-1.1,0.3-1.9v-15.7c0-0.6-0.1-1.3-0.3-2.2
	c-0.2-0.9-0.4-1.7-0.9-2.5c-0.4-0.8-1-1.5-1.8-2c-0.7-0.4-1.5-0.6-2.6-0.6c-0.5,0-1.1,0.1-1.7,0.2c-2.9,0.6-5.4,2-7.5,4.3v18.7
	c0.1,1.3,0.4,2.4,0.9,3.1c0.4,0.5,0.7,0.8,1.1,0.9l0.2,0.1V-757.4z"/>
<path class="st0" d="M185.5-757.3c-2.9,0-5.6-0.9-8.1-2.6c-3.2-2.3-5.1-5.3-5.8-9.2c-0.2-0.8-0.2-1.7-0.2-2.5c0-2.9,0.9-5.6,2.6-8.1
	c2.3-3.2,5.3-5.1,9.2-5.8c0.8-0.1,1.7-0.2,2.5-0.2c2.9,0,5.6,0.9,8.1,2.6l0.1,0l-6,3.2l-0.1-0.2l0.1-0.1c0.1-0.1,0.2-0.2,0.3-0.3
	c0.1-0.1,0.2-0.3,0.3-0.4c0.1-0.2,0.1-0.4,0.1-0.6c0-0.6-0.4-1.3-1.2-2c-0.2-0.2-0.5-0.4-0.7-0.5c-0.9-0.6-1.8-0.9-2.8-0.9l-1.2,0.2
	c-1.4,0.5-2.5,1.7-3.3,3.5c-0.8,1.8-1.2,4-1.2,6.6c0,1.4,0.1,2.8,0.4,4.3c0.4,2.3,1.1,4.4,2,6.3c0.9,1.8,1.9,3.3,3.1,4.3
	c1.2,1.1,2.4,1.6,3.6,1.6c0.3,0,0.6-0.1,0.9-0.1c1-0.3,1.9-1,2.7-2c0.7-1.1,1.3-2.4,1.6-4l5,0.4l-0.3,0.4c-2.3,3.2-5.3,5.1-9.2,5.8
	C187.2-757.3,186.3-757.3,185.5-757.3z"/>
<path class="st0" d="M211.9-757.3c-1.8,0-3.5-0.3-5.2-1c-1.7-0.6-3.2-1.6-4.6-2.9c-1.5-1.4-2.6-3-3.3-4.8c-0.7-1.8-1.1-3.7-1.1-5.6
	c0-1.4,0.2-2.8,0.6-4.2c0.4-1.4,1.1-2.7,1.9-3.9c2-2.8,4.6-4.6,7.8-5.5c1.3-0.4,2.5-0.5,3.8-0.5c2.1,0,4.2,0.5,6.1,1.4
	c1.9,0.9,3.6,2.2,5,3.9c1.4,1.6,2.3,3.6,2.8,5.7h-21.2c0,2.2,0.3,4.4,0.9,6.6c0.6,2.2,1.5,4.3,2.6,6.1c0.4,0.6,0.9,1.3,1.5,1.9
	c0.6,0.6,1.2,1.1,1.9,1.5c0.7,0.4,1.4,0.6,2.2,0.6c0.3,0,0.6-0.1,0.9-0.1c1-0.3,1.8-0.8,2.4-1.6c0.9-1.1,1.5-2.6,1.9-4.4l5,0.4
	c-1.4,2.1-3.1,3.7-5.3,4.8C216.5-757.9,214.2-757.3,211.9-757.3z M218.4-775.3c-0.5-1.6-1.1-3.2-1.9-4.6c-0.8-1.4-1.8-2.7-3-3.7
	c-1-0.8-2.1-1.3-3.3-1.3c-0.4,0.1-0.8,0.1-1.2,0.2c-0.7,0.3-1.3,0.7-1.8,1.2c-0.7,0.8-1.3,1.8-1.7,3c-0.6,1.7-0.9,3.4-0.9,5.2H218.4
	z"/>
<path class="st0" d="M237.8-757.6c-0.9,0-1.8-0.1-2.6-0.4c-1.7-0.6-3.2-1.5-4.3-2.9c-1.1-1.4-1.8-3-2-4.9c0-0.2,0-0.4,0-0.8
	c0-0.3,0-0.5,0-0.8v-25.4h-115v-0.6h115v-0.5c0-0.7,0-5.8-0.1-6.3c-0.1-0.5-0.1-0.9-0.2-1.3c-0.1-0.3-0.2-0.6-0.3-0.9
	c-0.1-0.2-0.2-0.4-0.4-0.5c-0.1-0.1-0.2-0.2-0.3-0.3c-0.1-0.1-0.2-0.1-0.2-0.1l-0.1,0v-0.3c0.6,0,1.1,0,1.7-0.1
	c1.3-0.1,2.4-0.3,3.2-0.5c0.8-0.3,1.5-0.5,1.9-0.8c0.4-0.3,0.7-0.6,0.9-0.8c0.2-0.2,0.2-0.3,0.2-0.4v12.7h10.3v0.6h-10.3v25.4
	c0,1.5,0.1,3,0.3,4.6c0.3,2.8,0.9,4.3,1.8,4.4h0.1c0.4,0,0.8-0.1,1.1-0.3c0.3-0.2,0.6-0.4,0.8-0.7c0.2-0.3,0.3-0.6,0.4-0.9
	c0.1-0.3,0.2-0.5,0.2-0.7l0.1-0.3l2.2,2.5C240.8-757.9,239.4-757.6,237.8-757.6z"/>
<text transform="matrix(1 0 0 1 139.5934 -745.688)" style="font-family:'Ahganirya-PersonalUse'; font-size:6.7941px;">Career Explorer Test</text>
<g>
	<polygon class="st0" points="211.3,-716.7 211.3,-725.8 225.5,-725.8 225.5,-729.1 208,-729.1 208,-716.7 	"/>
	<polygon class="st0" points="211.3,-708 208,-708 208,-695.5 225.5,-695.5 225.5,-698.8 211.3,-698.8 	"/>
</g>
<g>
	<rect x="235.6" y="-708" class="st0" width="3.3" height="12.5"/>
	<polygon class="st0" points="235.6,-716.7 238.9,-716.7 238.9,-725.8 245.6,-725.8 245.6,-729.1 228.9,-729.1 228.9,-725.8 
		235.6,-725.8 	"/>
</g>
<path class="st1" d="M194.3-226.4v-19.1c0-7.3-3.4-10.9-9.7-10.9c-5,0-9.4,3.8-9.4,9.1c0,6.3,4.6,9.6,9.1,9.6c2.7,0,5-0.6,6.6-1.2
	v11.3c-2.6,1.8-5.5,2.4-9.3,2.4c-8.7,0-20-7.4-20-21.7c0-12.5,9.6-21.9,22.8-21.9c12.9,0,23.6,7,23.6,20.2v22.4H194.3z"/>
<path class="st1" d="M261.6-226.4V-251c0-2.6-1.1-4.8-4.4-4.8c-3.2,0-4.4,2.2-4.4,4.8v24.6h-13.7v-26.8c0-9.7,8.3-15.7,17.4-15.7
	c4.4,0,8.8,2.5,11.8,5.8c3-3.3,7.4-5.8,11.8-5.8c9.1,0,17.4,6.1,17.4,15.7v26.8H284V-251c0-2.6-1.1-4.8-4.4-4.8
	c-3.2,0-4.4,2.2-4.4,4.8v24.6H261.6z"/>
<path class="st1" d="M333.4-225.6c-14.5,0-29.1-10.1-29.1-29.5s14.7-29.5,29.1-29.5h8.6v5.7h-8c-11.3,0-23.4,7.4-23.4,23.8
	s12.1,23.8,23.4,23.8h7.9v5.7H333.4z"/>
<path class="st1" d="M372.4-225.6c-14.5,0-29.1-10.1-29.1-29.5s14.7-29.5,29.1-29.5h7.8v5.7h-7.7c-13,0-22.2,10.3-23.1,20.1h30.7
	v5.7h-30.7c0.8,15,14.4,21.7,24.2,21.7h6.5v5.7H372.4z"/>
<polygon class="st1" points="398.9,-225.6 398.9,-278.9 383,-278.9 383,-284.6 421.1,-284.6 421.1,-278.9 405.1,-278.9 
	405.1,-225.6 "/>
<polygon class="st1" points="216.5,-259 216.5,-226.4 230.2,-226.4 230.2,-267.9 230.1,-267.9 "/>
<polygon class="st2" points="216.5,-284.8 230.2,-275.9 216.5,-266.9 "/>
<polygon class="st3" points="253.2,-151.1 266.2,-142.7 253.2,-134.1 "/>
<path class="st1" d="M95.6-454.8V-474c0-7.3-3.4-10.9-9.7-10.9c-5,0-9.4,3.8-9.4,9.1c0,6.3,4.6,9.6,9.1,9.6c2.7,0,5-0.6,6.6-1.2
	v11.3c-2.6,1.8-5.5,2.4-9.3,2.4c-8.7,0-20-7.4-20-21.7c0-12.5,9.6-21.9,22.8-21.9c12.9,0,23.6,7,23.6,20.2v22.4H95.6z"/>
<path class="st1" d="M162.9-454.8v-24.6c0-2.6-1.1-4.8-4.4-4.8c-3.2,0-4.4,2.2-4.4,4.8v24.6h-13.7v-26.8c0-9.7,8.3-15.7,17.4-15.7
	c4.4,0,8.8,2.5,11.8,5.8c3-3.3,7.4-5.8,11.8-5.8c9.1,0,17.4,6.1,17.4,15.7v26.8h-13.7v-24.6c0-2.6-1.1-4.8-4.4-4.8
	c-3.2,0-4.4,2.2-4.4,4.8v24.6H162.9z"/>
<polygon class="st1" points="117.8,-487.4 117.8,-454.8 131.5,-454.8 131.5,-496.3 131.4,-496.3 "/>
<polygon class="st2" points="117.8,-513.2 131.5,-504.3 117.8,-495.3 "/>
<polygon points="112.7,-578.7 112.7,-546 117.2,-546 117.2,-581.7 "/>
<polygon class="st2" points="110.2,-590.1 119.5,-584 110.2,-577.9 "/>
<path d="M228-454.8c-6.9,0-12.4-2.2-16.9-6.7c-4.5-4.5-6.7-10.1-6.7-16.9c0-6.8,2.2-12.3,6.7-16.9c4.5-4.5,10-6.7,16.9-6.7
	c4.1,0,7.8,0.9,11.3,2.8c2.2,1.2,4,2.6,5.6,4.3l-3.5,2c-1.2-1.2-2.6-2.3-4.2-3.1c-2.7-1.4-5.8-2.2-9.1-2.2c-5.8,0-10.6,1.9-14.1,5.5
	c-3.5,3.6-5.3,8.4-5.3,14.3c0,5.8,1.8,10.6,5.3,14.3c3.6,3.7,8.3,5.5,14.1,5.5c3.3,0,6.4-0.7,9.2-2.2c1.6-0.8,3-1.9,4.2-3.1l3.5,2.1
	c-1.5,1.7-3.4,3.1-5.5,4.3C235.9-455.8,232.2-454.8,228-454.8z"/>
<polygon points="249.9,-454.8 249.9,-500 274.9,-500 274.9,-496.3 254,-496.3 254,-479.5 273,-479.5 273,-475.9 254,-475.9 
	254,-458.5 275.3,-458.5 275.3,-454.8 "/>
<polygon points="291.7,-454.8 291.7,-496.3 278.1,-496.3 278.1,-500 309.6,-500 309.6,-496.3 295.9,-496.3 295.9,-454.8 "/>
<g>
	<path d="M301.9-484.3H301l3.4-8.7h1l3.3,8.7h-0.9l-1-2.7H303L301.9-484.3z M306.5-487.8l-1.6-4.3l-1.6,4.3H306.5z"/>
	<path d="M310.3-484.3h-0.8v-8.7h0.8V-484.3z"/>
	<path d="M311.9-484.3v-8.7h1.3l3,7.5l3-7.5h1.3v8.7h-0.8v-7.6l-3,7.6h-0.8l-3-7.6v7.6H311.9z"/>
	<path d="M321.4-486.8h0.8c0,0.5,0.2,1,0.5,1.3c0.3,0.3,0.7,0.5,1.1,0.5c0.5,0,0.9-0.2,1.2-0.5s0.4-0.7,0.4-1.3
		c0-0.8-0.6-1.4-1.8-1.8c-0.1,0-0.2-0.1-0.2-0.1c-0.6-0.2-1.1-0.5-1.4-0.8c-0.3-0.3-0.4-0.8-0.4-1.3c0-0.7,0.2-1.3,0.6-1.7
		s1-0.7,1.7-0.7c0.6,0,1.2,0.2,1.5,0.6c0.4,0.4,0.6,1,0.6,1.7h-0.8c0-0.5-0.2-0.8-0.4-1.1s-0.6-0.4-1-0.4c-0.4,0-0.8,0.1-1,0.4
		c-0.3,0.3-0.4,0.6-0.4,1.1c0,0.2,0,0.4,0.1,0.6c0.1,0.2,0.2,0.3,0.4,0.4c0.2,0.1,0.5,0.3,1,0.5c0.3,0.1,0.5,0.2,0.7,0.2
		c0.6,0.2,1,0.5,1.2,0.8c0.2,0.3,0.4,0.8,0.4,1.3c0,0.8-0.2,1.5-0.7,2c-0.5,0.5-1.1,0.8-1.8,0.8c-0.7,0-1.3-0.2-1.7-0.7
		C321.7-485.4,321.5-486,321.4-486.8z"/>
	<path d="M328.4-484.3h-0.9v-8.7h0.9v3.9h4.1v-3.9h0.8v8.7h-0.8v-3.9h-4.1V-484.3z"/>
	<path d="M334.8-484.3h-0.9l3.4-8.7h1l3.3,8.7h-0.9l-1-2.7h-3.8L334.8-484.3z M339.4-487.8l-1.6-4.3l-1.6,4.3H339.4z"/>
	<path d="M346.2-484.3h-3.9v-8.7h0.9v7.8h3V-484.3z"/>
	<path d="M347.1-484.3h-0.9l3.4-8.7h1l3.3,8.7H353l-1-2.7h-3.8L347.1-484.3z M351.7-487.8l-1.6-4.3l-1.6,4.3H351.7z"/>
	<path d="M308.3-480.3c-0.4-0.5-0.7-0.8-1.2-1.1c-0.4-0.2-0.9-0.3-1.5-0.3c-0.9,0-1.6,0.3-2.2,1c-0.6,0.6-0.9,1.4-0.9,2.3
		c0,0.9,0.3,1.7,0.9,2.4c0.6,0.6,1.4,1,2.2,1c0.5,0,1-0.1,1.5-0.3c0.4-0.2,0.8-0.6,1.1-1h0.9c-0.4,0.7-0.8,1.2-1.4,1.5
		s-1.3,0.5-2,0.5c-1.1,0-2.1-0.4-2.9-1.2s-1.1-1.8-1.1-2.9c0-0.5,0.1-1.1,0.3-1.6c0.2-0.5,0.5-0.9,0.9-1.3c0.4-0.4,0.8-0.7,1.2-0.8
		c0.5-0.2,1-0.3,1.5-0.3c0.8,0,1.5,0.2,2.1,0.6c0.6,0.4,1.1,0.9,1.5,1.6H308.3z"/>
	<path d="M310.1-474.6h-0.8l3-7.8h0.9l3,7.8h-0.8l-0.9-2.4h-3.5L310.1-474.6z M314.3-477.7l-1.5-3.9l-1.5,3.9H314.3z"/>
	<path d="M317.5-481.6v7h-0.8v-7.8h2.1c0.5,0,0.8,0,1.1,0.1c0.3,0.1,0.5,0.2,0.8,0.3c0.3,0.2,0.6,0.5,0.7,0.9
		c0.2,0.4,0.3,0.7,0.3,1.2c0,0.6-0.2,1.1-0.5,1.6c-0.4,0.4-0.8,0.7-1.3,0.7l1.9,3h-0.9l-2.3-3.8h0.7c0.5,0,0.9-0.1,1.2-0.4
		c0.3-0.3,0.5-0.7,0.5-1.1c0-0.3,0-0.5-0.1-0.7c-0.1-0.2-0.2-0.4-0.4-0.6c-0.2-0.1-0.3-0.2-0.6-0.3s-0.6-0.1-1.2-0.1H317.5z"/>
	<path d="M323.7-478.9h3.3v0.8h-3.3v2.8h3.3v0.8h-4v-7.8h4v0.8h-3.3V-478.9z"/>
	<path d="M329.2-478.9h3.3v0.8h-3.3v2.8h3.3v0.8h-4v-7.8h4v0.8h-3.3V-478.9z"/>
	<path d="M334.6-481.6v7h-0.8v-7.8h2.1c0.5,0,0.8,0,1.1,0.1c0.3,0.1,0.5,0.2,0.8,0.3c0.3,0.2,0.6,0.5,0.7,0.9
		c0.2,0.4,0.3,0.7,0.3,1.2c0,0.6-0.2,1.1-0.5,1.6s-0.8,0.7-1.3,0.7l1.9,3h-0.9l-2.3-3.8h0.7c0.5,0,0.9-0.1,1.2-0.4s0.5-0.7,0.5-1.1
		c0-0.3,0-0.5-0.1-0.7c-0.1-0.2-0.2-0.4-0.4-0.6c-0.2-0.1-0.3-0.2-0.6-0.3c-0.2-0.1-0.6-0.1-1.2-0.1H334.6z"/>
	<path d="M302.8-469.1h3.3v0.8h-3.3v2.8h3.3v0.8h-4v-7.8h4v0.8h-3.3V-469.1z"/>
	<path d="M307.8-464.8h-0.9l2.7-3.9l-2.6-3.9h1l2.1,3.2l2.1-3.2h0.9l-2.6,3.9l2.7,3.9h-1l-2.2-3.3L307.8-464.8z"/>
	<path d="M313.7-472.6h1.7c0.5,0,0.9,0,1.1,0.1c0.3,0,0.5,0.1,0.7,0.2c0.3,0.2,0.6,0.5,0.8,0.8c0.2,0.3,0.3,0.7,0.3,1.1
		c0,0.4-0.1,0.8-0.2,1.1c-0.2,0.3-0.4,0.6-0.7,0.8c-0.2,0.1-0.5,0.2-0.7,0.3c-0.3,0.1-0.7,0.1-1.1,0.1h-1v3.3h-0.8V-472.6z
		 M314.5-471.8v3h1.1c0.6,0,1.1-0.1,1.4-0.4c0.3-0.2,0.4-0.6,0.4-1.1c0-0.5-0.2-0.9-0.5-1.1c-0.3-0.2-0.8-0.4-1.5-0.4H314.5z"/>
	<path d="M322.9-464.8h-3.5v-7.8h0.8v7h2.7V-464.8z"/>
	<path d="M323.1-468.7c0-0.5,0.1-1.1,0.3-1.6c0.2-0.5,0.5-0.9,0.9-1.3c0.4-0.4,0.8-0.7,1.3-0.8c0.5-0.2,1-0.3,1.5-0.3
		c0.5,0,1.1,0.1,1.5,0.3c0.5,0.2,0.9,0.5,1.3,0.9c0.4,0.4,0.7,0.8,0.9,1.3c0.2,0.5,0.3,1,0.3,1.6c0,0.6-0.1,1.1-0.3,1.5
		c-0.2,0.5-0.4,0.9-0.8,1.3c-0.4,0.4-0.8,0.8-1.3,1c-0.5,0.2-1,0.3-1.6,0.3c-1.1,0-2.1-0.4-2.8-1.2
		C323.5-466.6,323.1-467.6,323.1-468.7z M323.9-468.7c0,0.9,0.3,1.7,0.9,2.4c0.6,0.6,1.4,1,2.3,1c0.9,0,1.6-0.3,2.2-1
		c0.6-0.6,0.9-1.4,0.9-2.4c0-0.9-0.3-1.6-0.9-2.3c-0.6-0.6-1.4-1-2.3-1c-0.4,0-0.7,0.1-1,0.2c-0.3,0.1-0.6,0.3-0.9,0.5
		c-0.4,0.3-0.7,0.7-0.9,1.2C324-469.6,323.9-469.2,323.9-468.7z"/>
	<path d="M332.7-471.8v7H332v-7.8h2.1c0.5,0,0.8,0,1.1,0.1c0.3,0.1,0.5,0.2,0.8,0.3c0.3,0.2,0.6,0.5,0.7,0.9
		c0.2,0.4,0.3,0.7,0.3,1.2c0,0.6-0.2,1.1-0.5,1.6s-0.8,0.7-1.3,0.7l1.9,3h-0.9l-2.3-3.8h0.7c0.5,0,0.9-0.1,1.2-0.4s0.5-0.7,0.5-1.1
		c0-0.3,0-0.5-0.1-0.7c-0.1-0.2-0.2-0.4-0.4-0.6c-0.2-0.1-0.3-0.2-0.6-0.3s-0.6-0.1-1.2-0.1H332.7z"/>
	<path d="M339-469.1h3.3v0.8H339v2.8h3.3v0.8h-4v-7.8h4v0.8H339V-469.1z"/>
	<path d="M344.3-471.8v7h-0.8v-7.8h2.1c0.5,0,0.8,0,1.1,0.1c0.3,0.1,0.5,0.2,0.8,0.3c0.3,0.2,0.6,0.5,0.7,0.9
		c0.2,0.4,0.3,0.7,0.3,1.2c0,0.6-0.2,1.1-0.5,1.6c-0.4,0.4-0.8,0.7-1.3,0.7l1.9,3h-0.9l-2.3-3.8h0.7c0.5,0,0.9-0.1,1.2-0.4
		s0.5-0.7,0.5-1.1c0-0.3,0-0.5-0.1-0.7c-0.1-0.2-0.2-0.4-0.4-0.6c-0.2-0.1-0.3-0.2-0.6-0.3c-0.2-0.1-0.6-0.1-1.2-0.1H344.3z"/>
	<path d="M303.7-455H303v-7h-1.6v-0.8h3.9v0.8h-1.6V-455z"/>
	<path d="M306.9-459.3h3.3v0.8h-3.3v2.8h3.3v0.8h-4v-7.8h4v0.8h-3.3V-459.3z"/>
	<path d="M311.2-457.2h0.7c0,0.5,0.2,0.9,0.4,1.2c0.3,0.3,0.6,0.4,1,0.4c0.5,0,0.8-0.1,1.1-0.4c0.3-0.3,0.4-0.7,0.4-1.2
		c0-0.7-0.5-1.2-1.6-1.6c-0.1,0-0.1-0.1-0.2-0.1c-0.6-0.2-1-0.4-1.2-0.7c-0.3-0.3-0.4-0.7-0.4-1.2c0-0.6,0.2-1.1,0.6-1.5
		s0.9-0.6,1.5-0.6c0.6,0,1,0.2,1.4,0.5c0.3,0.4,0.5,0.9,0.6,1.5h-0.7c0-0.4-0.2-0.8-0.4-1c-0.2-0.2-0.5-0.3-0.9-0.3
		c-0.4,0-0.7,0.1-0.9,0.4c-0.2,0.3-0.4,0.6-0.4,1c0,0.2,0,0.4,0.1,0.5c0.1,0.1,0.2,0.3,0.4,0.4c0.2,0.1,0.5,0.3,0.9,0.4
		c0.3,0.1,0.5,0.2,0.6,0.2c0.5,0.2,0.9,0.4,1.1,0.8s0.3,0.7,0.3,1.2c0,0.8-0.2,1.4-0.6,1.8c-0.4,0.5-1,0.7-1.6,0.7
		c-0.6,0-1.2-0.2-1.5-0.7C311.4-455.9,311.2-456.5,311.2-457.2z"/>
	<path d="M318.3-455h-0.8v-7H316v-0.8h3.9v0.8h-1.6V-455z"/>
</g>
<g>
	<path class="st4" d="M163.7-212.4l-0.6,1.5h-1.5l2.9-7.4h1.2l2.8,7.4H167l-0.6-1.5H163.7z M166-213.8l-0.9-2.4l-0.9,2.4H166z"/>
	<path class="st4" d="M172-210.9v-7.4h1.4v7.4H172z"/>
	<path class="st4" d="M179.2-210.9h-1.4v-7.4h1.9l1.9,5.4l1.9-5.4h1.9v7.4h-1.4l0.1-5.3l-1.9,5.3H181l-1.9-5.3L179.2-210.9z"/>
	<path class="st4" d="M189.2-213.1l1.3,0v0.1c0,0.3,0.1,0.6,0.2,0.7c0.2,0.2,0.4,0.3,0.6,0.3c0.3,0,0.5-0.1,0.7-0.3
		c0.2-0.2,0.3-0.4,0.3-0.7c0-0.5-0.3-0.8-1-1c-0.1,0-0.2,0-0.2-0.1c-0.6-0.2-1-0.4-1.3-0.8c-0.3-0.3-0.4-0.7-0.4-1.2
		c0-0.7,0.2-1.2,0.6-1.7c0.4-0.4,0.9-0.6,1.5-0.6c0.6,0,1.1,0.2,1.4,0.6s0.6,0.9,0.6,1.6h-1.3v-0.1c0-0.2-0.1-0.4-0.2-0.6
		c-0.1-0.1-0.3-0.2-0.6-0.2c-0.2,0-0.4,0.1-0.6,0.2c-0.1,0.1-0.2,0.4-0.2,0.6c0,0.1,0,0.2,0,0.3c0,0.1,0.1,0.2,0.1,0.2
		c0.1,0.2,0.4,0.3,0.9,0.4c0.2,0.1,0.4,0.1,0.5,0.1c0.5,0.2,0.9,0.4,1.1,0.7c0.2,0.3,0.4,0.7,0.4,1.2c0,0.8-0.2,1.4-0.6,1.8
		c-0.4,0.5-1,0.7-1.7,0.7c-0.7,0-1.2-0.2-1.6-0.7C189.4-211.8,189.2-212.4,189.2-213.1z"/>
	<path class="st4" d="M199.2-213.8v3h-1.4v-7.4h1.4v3h2.4v-3h1.4v7.4h-1.4v-3H199.2z"/>
	<path class="st4" d="M208.4-212.4l-0.6,1.5h-1.5l2.9-7.4h1.2l2.8,7.4h-1.5l-0.6-1.5H208.4z M210.6-213.8l-0.9-2.4l-0.9,2.4H210.6z"
		/>
	<path class="st4" d="M220.4-210.9h-3.7v-7.4h1.4v6.1h2.3V-210.9z"/>
	<path class="st4" d="M225.7-212.4l-0.6,1.5h-1.5l2.9-7.4h1.2l2.8,7.4h-1.5l-0.6-1.5H225.7z M228-213.8l-0.9-2.4l-0.9,2.4H228z"/>
	<path class="st4" d="M247.1-216h-1.8c-0.2-0.3-0.5-0.5-0.7-0.6c-0.3-0.1-0.6-0.2-1-0.2c-0.3,0-0.6,0.1-0.8,0.2
		c-0.3,0.1-0.5,0.3-0.7,0.5c-0.2,0.2-0.4,0.5-0.5,0.8c-0.1,0.3-0.2,0.6-0.2,0.9c0,0.7,0.2,1.2,0.6,1.7s1,0.7,1.6,0.7
		c0.4,0,0.7-0.1,1-0.2c0.3-0.1,0.5-0.3,0.7-0.6h1.8c-0.3,0.8-0.8,1.3-1.4,1.7s-1.3,0.6-2.1,0.6c-0.6,0-1.1-0.1-1.5-0.3
		c-0.5-0.2-0.9-0.5-1.3-0.9c-0.3-0.3-0.6-0.7-0.7-1.2c-0.2-0.4-0.2-0.9-0.2-1.4c0-0.5,0.1-1,0.3-1.5c0.2-0.5,0.5-0.9,0.9-1.3
		c0.4-0.4,0.8-0.6,1.2-0.8c0.4-0.2,0.9-0.3,1.4-0.3c0.8,0,1.5,0.2,2.1,0.6C246.2-217.4,246.7-216.8,247.1-216z"/>
	<path class="st4" d="M252.1-212.4l-0.6,1.5H250l2.9-7.4h1.2l2.8,7.4h-1.5l-0.6-1.5H252.1z M254.4-213.8l-0.9-2.4l-0.9,2.4H254.4z"
		/>
	<path class="st4" d="M261.8-210.9h-1.4v-7.4h1.7c0.6,0,1,0,1.2,0.1c0.3,0,0.5,0.1,0.7,0.2c0.4,0.2,0.7,0.5,1,0.8
		c0.2,0.4,0.3,0.8,0.3,1.2c0,0.6-0.2,1.1-0.5,1.4c-0.3,0.4-0.7,0.6-1.3,0.8l1.8,2.9h-1.7l-1.9-3.4V-210.9z M261.8-214.6h0.3
		c0.6,0,1-0.1,1.3-0.3c0.3-0.2,0.5-0.5,0.5-0.9c0-0.4-0.1-0.7-0.4-0.9c-0.3-0.2-0.6-0.3-1.2-0.3h-0.5V-214.6z"/>
	<path class="st4" d="M273.3-210.9h-4v-7.4h4v1.3h-2.5v1.7h2.5v1.3h-2.5v1.8h2.5V-210.9z"/>
	<path class="st4" d="M281.6-210.9h-4v-7.4h4v1.3h-2.5v1.7h2.5v1.3h-2.5v1.8h2.5V-210.9z"/>
	<path class="st4" d="M287.4-210.9h-1.4v-7.4h1.7c0.6,0,1,0,1.2,0.1c0.3,0,0.5,0.1,0.7,0.2c0.4,0.2,0.7,0.5,1,0.8
		c0.2,0.4,0.3,0.8,0.3,1.2c0,0.6-0.2,1.1-0.5,1.4s-0.7,0.6-1.3,0.8l1.8,2.9h-1.7l-1.9-3.4V-210.9z M287.4-214.6h0.3
		c0.6,0,1-0.1,1.3-0.3c0.3-0.2,0.5-0.5,0.5-0.9c0-0.4-0.1-0.7-0.4-0.9c-0.3-0.2-0.6-0.3-1.2-0.3h-0.5V-214.6z"/>
	<path class="st4" d="M305-210.9h-4v-7.4h4v1.3h-2.5v1.7h2.5v1.3h-2.5v1.8h2.5V-210.9z"/>
	<path class="st4" d="M311.8-213.4l-1.5,2.6h-1.6l2.4-3.7l-2.3-3.6h1.6l1.4,2.6l1.4-2.6h1.6l-2.3,3.6l2.3,3.7h-1.6L311.8-213.4z"/>
	<path class="st4" d="M320-210.9h-1.4v-7.4h1.8c0.5,0,0.8,0,1.1,0.1c0.3,0.1,0.5,0.1,0.6,0.2c0.3,0.2,0.5,0.5,0.7,0.8
		c0.2,0.3,0.3,0.7,0.3,1.1c0,0.7-0.2,1.3-0.7,1.7c-0.5,0.4-1.1,0.6-1.9,0.6H320V-210.9z M320-214.9h0.4c0.4,0,0.7-0.1,0.9-0.3
		c0.2-0.2,0.3-0.4,0.3-0.7c0-0.3-0.1-0.6-0.3-0.7c-0.2-0.2-0.5-0.2-0.9-0.2H320V-214.9z"/>
	<path class="st4" d="M330.7-210.9H327v-7.4h1.4v6.1h2.3V-210.9z"/>
	<path class="st4" d="M333.9-214.5c0-0.4,0.1-0.8,0.2-1.1c0.1-0.4,0.3-0.7,0.5-1c0.4-0.5,0.8-0.9,1.4-1.2c0.5-0.3,1.1-0.4,1.8-0.4
		c0.5,0,1,0.1,1.4,0.3c0.5,0.2,0.9,0.5,1.2,0.8c0.4,0.4,0.6,0.8,0.8,1.2c0.2,0.5,0.3,0.9,0.3,1.4c0,0.5-0.1,1-0.3,1.5
		c-0.2,0.5-0.4,0.9-0.8,1.2c-0.4,0.4-0.8,0.7-1.2,0.9c-0.5,0.2-1,0.3-1.5,0.3c-0.5,0-1.1-0.1-1.5-0.3c-0.5-0.2-0.9-0.5-1.2-0.9
		c-0.3-0.4-0.6-0.8-0.8-1.2C334-213.5,333.9-214,333.9-214.5z M335.4-214.6c0,0.3,0.1,0.6,0.2,0.9c0.1,0.3,0.3,0.5,0.5,0.7
		c0.2,0.2,0.5,0.4,0.8,0.6c0.3,0.1,0.6,0.2,0.9,0.2c0.6,0,1.2-0.2,1.6-0.7c0.4-0.5,0.7-1,0.7-1.7c0-0.6-0.2-1.2-0.7-1.6
		c-0.4-0.4-1-0.7-1.6-0.7c-0.6,0-1.2,0.2-1.6,0.7C335.7-215.8,335.4-215.2,335.4-214.6z"/>
	<path class="st4" d="M346.9-210.9h-1.4v-7.4h1.7c0.6,0,1,0,1.2,0.1c0.3,0,0.5,0.1,0.7,0.2c0.4,0.2,0.7,0.5,1,0.8
		c0.2,0.4,0.3,0.8,0.3,1.2c0,0.6-0.2,1.1-0.5,1.4c-0.3,0.4-0.7,0.6-1.3,0.8l1.8,2.9h-1.7l-1.9-3.4V-210.9z M346.9-214.6h0.3
		c0.6,0,1-0.1,1.3-0.3c0.3-0.2,0.5-0.5,0.5-0.9c0-0.4-0.1-0.7-0.4-0.9c-0.3-0.2-0.6-0.3-1.2-0.3h-0.5V-214.6z"/>
	<path class="st4" d="M358.5-210.9h-4v-7.4h4v1.3h-2.5v1.7h2.5v1.3h-2.5v1.8h2.5V-210.9z"/>
	<path class="st4" d="M364.2-210.9h-1.4v-7.4h1.7c0.6,0,1,0,1.2,0.1c0.3,0,0.5,0.1,0.7,0.2c0.4,0.2,0.7,0.5,1,0.8
		c0.2,0.4,0.3,0.8,0.3,1.2c0,0.6-0.2,1.1-0.5,1.4c-0.3,0.4-0.7,0.6-1.3,0.8l1.8,2.9h-1.7l-1.9-3.4V-210.9z M364.2-214.6h0.3
		c0.6,0,1-0.1,1.3-0.3c0.3-0.2,0.5-0.5,0.5-0.9c0-0.4-0.1-0.7-0.4-0.9c-0.3-0.2-0.6-0.3-1.2-0.3h-0.5V-214.6z"/>
	<path class="st4" d="M381.6-218.2v1.3h-1.4v6.1h-1.4v-6.1h-1.4v-1.3H381.6z"/>
	<path class="st4" d="M389.3-210.9h-4v-7.4h4v1.3h-2.5v1.7h2.5v1.3h-2.5v1.8h2.5V-210.9z"/>
	<path class="st4" d="M393.2-213.1l1.3,0v0.1c0,0.3,0.1,0.6,0.2,0.7c0.2,0.2,0.4,0.3,0.6,0.3c0.3,0,0.5-0.1,0.7-0.3
		c0.2-0.2,0.3-0.4,0.3-0.7c0-0.5-0.3-0.8-1-1c-0.1,0-0.2,0-0.2-0.1c-0.6-0.2-1-0.4-1.3-0.8c-0.3-0.3-0.4-0.7-0.4-1.2
		c0-0.7,0.2-1.2,0.6-1.7c0.4-0.4,0.9-0.6,1.5-0.6c0.6,0,1.1,0.2,1.4,0.6c0.4,0.4,0.6,0.9,0.6,1.6h-1.3v-0.1c0-0.2-0.1-0.4-0.2-0.6
		c-0.1-0.1-0.3-0.2-0.6-0.2c-0.2,0-0.4,0.1-0.6,0.2c-0.1,0.1-0.2,0.4-0.2,0.6c0,0.1,0,0.2,0,0.3c0,0.1,0.1,0.2,0.1,0.2
		c0.1,0.2,0.4,0.3,0.9,0.4c0.2,0.1,0.4,0.1,0.5,0.1c0.5,0.2,0.9,0.4,1.1,0.7c0.2,0.3,0.4,0.7,0.4,1.2c0,0.8-0.2,1.4-0.6,1.8
		c-0.4,0.5-1,0.7-1.7,0.7c-0.7,0-1.2-0.2-1.6-0.7C393.4-211.8,393.2-212.4,393.2-213.1z"/>
	<path class="st4" d="M405.4-218.2v1.3H404v6.1h-1.4v-6.1h-1.4v-1.3H405.4z"/>
</g>
<text transform="matrix(1 0 0 1 81.1709 -371.9696)" style="font-family:'Eavm'; font-size:30.8459px;">TEST</text>
<g>
	<text transform="matrix(1 0 0 1 246.6744 -369.6516)" style="font-family:'GREATESTGENERALDEMO-Regular'; font-size:40.6572px;">ACE</text>
</g>
<g>
	<text transform="matrix(1 0 0 1 449.781 -587.2275)" style="font-family:'Bauhaus93'; font-size:67.5861px;">ace</text>
</g>
<text transform="matrix(1 0 0 1 418.6365 -404.6637)"><tspan x="0" y="0" style="font-family:'AvantGardeITCbyBT-Book'; font-size:13.0441px;">AIMSHALA</tspan><tspan x="0" y="11.6" style="font-family:'AvantGardeITCbyBT-Book'; font-size:13.0441px;">CAREER </tspan><tspan x="0" y="23.3" style="font-family:'AvantGardeITCbyBT-Book'; font-size:13.0441px;">EXPLORER</tspan><tspan x="0" y="34.9" style="font-family:'AvantGardeITCbyBT-Book'; font-size:13.0441px;">TEST</tspan></text>
<polygon class="st2" points="314.5,-400.8 328.2,-391.9 314.5,-382.9 "/>
<line class="st5" x1="404.5" y1="-424.7" x2="404.5" y2="-362.4"/>
<g>
	<polygon class="st3" points="520.5,-689.8 561.2,-667.6 520.5,-645.1 	"/>
	<polygon class="st6" points="519.6,-691.4 533.1,-684 546.6,-691.4 505.9,-713.6 505.9,-669 519.6,-676.6 	"/>
	<polygon class="st7" points="519.5,-675.4 504.9,-667.4 504.9,-683.4 493.3,-689.8 493.3,-645.1 519.5,-659.5 	"/>
	<polygon class="st8" points="520.5,-660 534,-667.5 520.5,-674.9 	"/>
	<polygon class="st8" points="505.9,-682.9 505.9,-669 518.5,-676 	"/>
</g>
<rect x="338.6" y="-168.7" class="st9" width="0.7" height="52.1"/>
<path d="M50,190.1l48.1-96.3h8.2l48.1,96.3h-36.9v-13.5h15.2l-30.5-61.1l-30.6,61.1h15.6v13.5H50z M95.6,153.8c0-1,0.4-1.9,1.1-2.6
	c0.7-0.7,1.6-1.1,2.6-1.1h5.9c1,0,1.9,0.4,2.7,1.1c0.8,0.7,1.2,1.6,1.2,2.6v5.9c0,1.1-0.4,2-1.2,2.7c-0.8,0.7-1.7,1.1-2.7,1.1h-5.9
	c-1,0-1.9-0.4-2.6-1.1c-0.7-0.7-1.1-1.6-1.1-2.7V153.8z"/>
<path d="M157.7,93.8h68.9c3.8,0,7.4,0.7,10.7,2.1c3.3,1.4,6.2,3.4,8.7,5.9c2.5,2.5,4.4,5.4,5.8,8.7c1.4,3.3,2.1,6.9,2.1,10.7h-13.5
	c0-1.9-0.4-3.7-1.1-5.4c-0.7-1.7-1.7-3.2-3-4.4s-2.7-2.3-4.4-3c-1.7-0.7-3.5-1.1-5.5-1.1h-68.9V93.8z M171.2,121.2v41.5
	c0,2,0.4,3.8,1.1,5.5c0.7,1.7,1.7,3.2,3,4.4c1.3,1.3,2.7,2.3,4.4,3c1.7,0.7,3.5,1.1,5.4,1.1h41.5c2,0,3.8-0.4,5.5-1.1
	c1.7-0.7,3.1-1.7,4.4-3c1.2-1.2,2.2-2.7,3-4.4c0.7-1.7,1.1-3.5,1.1-5.5H254c0,3.8-0.7,7.3-2.1,10.7c-1.4,3.3-3.4,6.2-5.8,8.7
	c-2.5,2.5-5.4,4.4-8.7,5.9c-3.3,1.4-6.9,2.1-10.7,2.1h-41.5c-3.8,0-7.3-0.7-10.7-2.1c-3.3-1.4-6.2-3.4-8.7-5.9s-4.4-5.4-5.9-8.7
	c-1.4-3.3-2.1-6.9-2.1-10.7v-41.5H171.2z"/>
<path d="M265.1,107.3V93.8h96.3v13.5H265.1z M278.6,135.2V163c0,1.9,0.4,3.7,1.2,5.3c0.8,1.7,1.8,3.1,3,4.3c1.2,1.2,2.7,2.2,4.4,2.9
	c1.7,0.7,3.5,1.1,5.4,1.1h68.9v13.5h-68.9c-3.7,0-7.2-0.7-10.5-2c-3.3-1.4-6.2-3.2-8.6-5.6c-2.5-2.4-4.4-5.2-5.9-8.4
	s-2.2-6.7-2.3-10.4v-28.4H278.6z M285.2,139c0-1.1,0.4-2,1.1-2.7c0.7-0.7,1.6-1.1,2.6-1.1h5.9c1,0,1.9,0.4,2.7,1.1
	c0.8,0.7,1.2,1.6,1.2,2.7v5.9c0,1-0.4,1.9-1.2,2.6c-0.8,0.7-1.7,1.1-2.7,1.1h-5.9c-1,0-1.9-0.4-2.6-1.1c-0.7-0.7-1.1-1.6-1.1-2.6
	V139z M305.5,148.7v-13.5h42.6v13.5H305.5z"/>
<g>
	<g>
		<path d="M423.8,114h-2.1l7.8-20.2h2.4l7.8,20.2h-2.1l-2.4-6.3h-9L423.8,114z M434.5,105.8l-3.8-10.2l-3.8,10.2H434.5z"/>
		<path d="M443.3,114h-2V93.8h2V114z"/>
		<path d="M447.1,114V93.8h2.9l7,17.6l7-17.6h2.9V114h-1.9V96.1l-7.1,17.9h-1.8L449,96.1V114H447.1z"/>
		<path d="M469.4,108.2h1.9c0,1.2,0.4,2.2,1.1,3c0.7,0.7,1.6,1.1,2.6,1.1c1.2,0,2.1-0.4,2.8-1.1c0.7-0.7,1-1.7,1-3
			c0-1.8-1.4-3.2-4.2-4.2c-0.2-0.1-0.4-0.1-0.5-0.2c-1.5-0.5-2.5-1.2-3.2-1.9c-0.7-0.8-1-1.8-1-3.1c0-1.6,0.5-2.9,1.5-4
			c1-1,2.3-1.5,3.9-1.5c1.5,0,2.7,0.5,3.6,1.4c0.9,0.9,1.4,2.2,1.5,3.9h-1.9c-0.1-1.1-0.4-2-1-2.5c-0.6-0.6-1.3-0.9-2.2-0.9
			c-1,0-1.8,0.3-2.5,1c-0.6,0.7-0.9,1.5-0.9,2.5c0,0.5,0.1,1,0.3,1.4c0.2,0.4,0.5,0.7,0.9,1c0.4,0.3,1.2,0.7,2.4,1.1
			c0.7,0.2,1.2,0.4,1.6,0.5c1.3,0.5,2.3,1.2,2.8,2c0.6,0.8,0.9,1.8,0.9,3.1c0,2-0.5,3.5-1.6,4.7s-2.5,1.8-4.3,1.8
			c-1.6,0-3-0.6-4-1.7C470,111.6,469.5,110.1,469.4,108.2z"/>
		<path d="M485.7,114h-2V93.8h2v9.1h9.6v-9.1h2V114h-2v-9.2h-9.6V114z"/>
		<path d="M500.6,114h-2.1l7.8-20.2h2.4l7.8,20.2h-2.1l-2.4-6.3h-9L500.6,114z M511.3,105.8l-3.8-10.2l-3.8,10.2H511.3z"/>
		<path d="M527.2,114h-9.1V93.8h2V112h7.1V114z"/>
		<path d="M529.3,114h-2.1l7.8-20.2h2.4l7.8,20.2h-2.1l-2.4-6.3h-9L529.3,114z M540,105.8l-3.8-10.2l-3.8,10.2H540z"/>
		<path d="M440.4,124.4c-0.9-1.3-1.9-2.2-3-2.8c-1.1-0.6-2.4-0.9-3.8-0.9c-2.3,0-4.2,0.8-5.8,2.5c-1.6,1.7-2.4,3.6-2.4,5.9
			c0,2.4,0.8,4.5,2.4,6.2c1.6,1.7,3.5,2.5,5.8,2.5c1.4,0,2.7-0.3,3.8-0.9c1.1-0.6,2.1-1.5,2.9-2.6h2.4c-0.9,1.7-2.2,3.1-3.7,4
			c-1.6,0.9-3.3,1.4-5.2,1.4c-3,0-5.5-1-7.4-3c-2-2-3-4.6-3-7.6c0-1.4,0.3-2.8,0.8-4c0.5-1.3,1.3-2.4,2.4-3.4c1-1,2-1.7,3.2-2.2
			c1.2-0.5,2.5-0.7,3.9-0.7c2,0,3.8,0.5,5.4,1.5c1.6,1,2.9,2.4,3.8,4.2H440.4z"/>
		<path d="M445.2,139.4h-2.1l7.8-20.2h2.4l7.8,20.2H459l-2.4-6.3h-9L445.2,139.4z M455.9,131.2l-3.8-10.2l-3.8,10.2H455.9z"/>
		<path d="M464.4,121.1v18.2h-2v-20.2h5.4c1.2,0,2.2,0.1,2.9,0.3c0.7,0.2,1.4,0.5,2,0.9c0.8,0.6,1.4,1.3,1.9,2.3
			c0.5,0.9,0.7,1.9,0.7,3c0,1.6-0.5,2.9-1.4,4c-0.9,1.1-2.1,1.7-3.5,1.8l4.9,7.9h-2.4l-6-9.7h1.9c1.3,0,2.3-0.4,3.1-1.1
			c0.8-0.7,1.2-1.7,1.2-2.9c0-0.7-0.1-1.4-0.4-1.9c-0.2-0.6-0.6-1.1-1.1-1.5c-0.4-0.4-0.9-0.6-1.4-0.8c-0.6-0.2-1.6-0.2-3-0.2H464.4
			z"/>
		<path d="M480.5,128.2h8.5v2h-8.5v7.2h8.5v2h-10.5v-20.2H489v2h-8.5V128.2z"/>
		<path d="M494.8,128.2h8.5v2h-8.5v7.2h8.5v2h-10.5v-20.2h10.5v2h-8.5V128.2z"/>
		<path d="M508.7,121.1v18.2h-2v-20.2h5.4c1.2,0,2.2,0.1,2.9,0.3c0.7,0.2,1.4,0.5,2,0.9c0.8,0.6,1.4,1.3,1.9,2.3
			c0.5,0.9,0.7,1.9,0.7,3c0,1.6-0.5,2.9-1.4,4c-0.9,1.1-2.1,1.7-3.5,1.8l4.9,7.9h-2.4l-6-9.7h1.9c1.3,0,2.3-0.4,3.1-1.1
			c0.8-0.7,1.2-1.7,1.2-2.9c0-0.7-0.1-1.4-0.4-1.9s-0.6-1.1-1.1-1.5c-0.4-0.4-0.9-0.6-1.4-0.8s-1.6-0.2-3-0.2H508.7z"/>
		<path d="M426.3,153.6h8.5v2h-8.5v7.2h8.5v2h-10.5v-20.2h10.5v2h-8.5V153.6z"/>
		<path d="M439.1,164.8h-2.4l7-10.2l-6.9-10h2.5l5.6,8.4l5.5-8.4h2.4l-6.8,10l7,10.2h-2.5l-5.7-8.6L439.1,164.8z"/>
		<path d="M454.5,144.5h4.3c1.2,0,2.2,0.1,3,0.2s1.4,0.3,1.8,0.6c0.9,0.5,1.6,1.2,2,2.1c0.5,0.9,0.7,1.8,0.7,2.9c0,1-0.2,2-0.6,2.8
			c-0.4,0.9-1,1.6-1.8,2.1c-0.5,0.4-1.2,0.6-1.9,0.8c-0.7,0.2-1.7,0.2-2.9,0.2h-2.7v8.5h-2V144.5z M456.5,146.5v7.7h2.9
			c1.6,0,2.8-0.3,3.6-0.9c0.8-0.6,1.2-1.6,1.2-2.9c0-1.4-0.4-2.3-1.2-3c-0.8-0.6-2-0.9-3.8-0.9H456.5z"/>
		<path d="M478.2,164.8h-9.1v-20.2h2v18.3h7.1V164.8z"/>
		<path d="M478.8,154.5c0-1.4,0.3-2.7,0.8-4c0.5-1.3,1.3-2.4,2.4-3.4c1-1,2.1-1.7,3.3-2.2c1.2-0.5,2.5-0.7,3.9-0.7
			c1.4,0,2.7,0.2,3.9,0.7c1.2,0.5,2.3,1.2,3.3,2.2c1,1,1.8,2.1,2.3,3.4c0.5,1.2,0.8,2.6,0.8,4c0,1.4-0.2,2.8-0.7,4
			c-0.4,1.2-1.1,2.3-2,3.3c-1,1.1-2.2,2-3.5,2.6c-1.3,0.6-2.7,0.9-4.2,0.9c-2.9,0-5.3-1-7.3-3.1C479.8,160,478.8,157.5,478.8,154.5z
			 M480.9,154.5c0,2.5,0.8,4.5,2.4,6.2s3.6,2.5,5.9,2.5c2.3,0,4.2-0.8,5.8-2.5c1.6-1.7,2.4-3.8,2.4-6.2c0-2.3-0.8-4.3-2.4-5.9
			c-1.6-1.7-3.6-2.5-5.9-2.5c-0.9,0-1.8,0.2-2.7,0.5c-0.9,0.3-1.7,0.8-2.4,1.4c-1,0.8-1.7,1.8-2.3,3
			C481.2,152.1,480.9,153.3,480.9,154.5z"/>
		<path d="M503.9,146.5v18.2h-2v-20.2h5.4c1.2,0,2.2,0.1,2.9,0.3c0.7,0.2,1.4,0.5,2,0.9c0.8,0.6,1.4,1.3,1.9,2.3
			c0.5,0.9,0.7,1.9,0.7,3c0,1.6-0.5,2.9-1.4,4c-0.9,1.1-2.1,1.7-3.5,1.8l4.9,7.9h-2.4l-6-9.7h1.9c1.3,0,2.3-0.4,3.1-1.1
			c0.8-0.7,1.2-1.7,1.2-2.9c0-0.7-0.1-1.4-0.4-1.9c-0.2-0.6-0.6-1.1-1.1-1.5c-0.4-0.4-0.9-0.6-1.4-0.8c-0.6-0.2-1.6-0.2-3-0.2H503.9
			z"/>
		<path d="M520,153.6h8.5v2H520v7.2h8.5v2H518v-20.2h10.5v2H520V153.6z"/>
		<path d="M534,146.5v18.2h-2v-20.2h5.4c1.2,0,2.2,0.1,2.9,0.3c0.7,0.2,1.4,0.5,2,0.9c0.8,0.6,1.4,1.3,1.9,2.3
			c0.5,0.9,0.7,1.9,0.7,3c0,1.6-0.5,2.9-1.4,4c-0.9,1.1-2.1,1.7-3.5,1.8l4.9,7.9h-2.4l-6-9.7h1.9c1.3,0,2.3-0.4,3.1-1.1
			c0.8-0.7,1.2-1.7,1.2-2.9c0-0.7-0.1-1.4-0.4-1.9c-0.2-0.6-0.6-1.1-1.1-1.5c-0.4-0.4-0.9-0.6-1.4-0.8s-1.6-0.2-3-0.2H534z"/>
		<path d="M428.6,190.1h-2v-18.2h-4v-2h10.1v2h-4V190.1z"/>
		<path d="M436.7,179h8.5v2h-8.5v7.2h8.5v2h-10.5v-20.2h10.5v2h-8.5V179z"/>
		<path d="M447.9,184.3h1.9c0,1.2,0.4,2.2,1.1,3c0.7,0.7,1.6,1.1,2.6,1.1c1.2,0,2.1-0.4,2.8-1.1c0.7-0.7,1-1.7,1-3
			c0-1.8-1.4-3.2-4.2-4.2c-0.2-0.1-0.4-0.1-0.5-0.2c-1.5-0.5-2.5-1.2-3.2-1.9c-0.7-0.8-1-1.8-1-3.1c0-1.6,0.5-2.9,1.5-4
			c1-1,2.3-1.5,3.9-1.5c1.5,0,2.7,0.5,3.6,1.4c0.9,0.9,1.4,2.2,1.5,3.9h-1.9c-0.1-1.1-0.4-2-1-2.5c-0.6-0.6-1.3-0.9-2.2-0.9
			c-1,0-1.8,0.3-2.5,1c-0.6,0.7-0.9,1.5-0.9,2.5c0,0.5,0.1,1,0.3,1.4c0.2,0.4,0.5,0.7,0.9,1c0.4,0.3,1.2,0.7,2.4,1.1
			c0.7,0.2,1.2,0.4,1.6,0.5c1.3,0.5,2.3,1.2,2.8,2c0.6,0.8,0.9,1.8,0.9,3.1c0,2-0.5,3.5-1.6,4.7s-2.5,1.8-4.3,1.8
			c-1.6,0-3-0.6-4-1.7C448.5,187.7,447.9,186.2,447.9,184.3z"/>
		<path d="M466.5,190.1h-2v-18.2h-4v-2h10.1v2h-4V190.1z"/>
	</g>
</g>
<polygon class="st3" points="195.4,122.4 225.2,141.9 195.4,161.5 "/>
<rect x="391.9" y="82" class="st9" width="1.5" height="119.9"/>
</svg>
