<svg width="173" height="50" viewBox="0 0 173 50" fill="none" xmlns="http://www.w3.org/2000/svg">
<g clip-path="url(#clip0_275_8407)">
<path d="M21.8314 39.1799V26.506C21.8314 21.6315 19.5719 19.2578 15.394 19.2578C12.1113 19.2578 9.12712 21.801 9.12712 25.2768C9.12712 29.4732 12.1966 31.6349 15.1808 31.6349C17.014 31.6349 18.5488 31.2534 19.5719 30.8296V38.2898C17.8666 39.4766 15.9056 39.8581 13.3477 39.8581C7.50711 39.8581 0.00390625 34.9411 0.00390625 25.4887C0.00390625 17.2232 6.39868 10.9922 15.2235 10.9922C23.8351 10.9922 30.9546 15.6548 30.9546 24.3443V39.1799H21.8314Z" fill="white"/>
<path d="M66.679 39.1803V22.8611C66.679 21.1656 65.9542 19.682 63.78 19.682C61.6058 19.682 60.881 21.1656 60.881 22.8611V39.1803H51.7578V21.3775C51.7578 14.977 57.2999 10.9502 63.3963 10.9502C66.2953 10.9502 69.2795 12.6033 71.2406 14.8075C73.2443 12.6033 76.1859 10.9502 79.0848 10.9502C85.1812 10.9502 90.7233 14.977 90.7233 21.3775V39.1803H81.6001V22.8611C81.6001 21.1656 80.8754 19.682 78.7011 19.682C76.5269 19.682 75.8022 21.1656 75.8022 22.8611V39.1803H66.679Z" fill="white"/>
<path d="M140.561 39.6887C130.926 39.6887 121.121 32.9915 121.121 20.1481C121.121 7.30466 130.884 0.607422 140.561 0.607422H145.762V4.37991H140.646C131.992 4.37991 125.811 11.2043 125.256 17.6896H145.72V21.4621H125.214C125.768 31.3808 134.849 35.8739 141.329 35.8739H145.677V39.6464H140.561V39.6887Z" fill="white"/>
<path d="M158.252 39.6887V4.4223H147.637V0.607422H173.003V4.4223H162.387V39.6887H158.252Z" fill="white"/>
<path d="M36.625 17.6052V39.1804H45.7482V11.6709H45.7056L36.625 17.6052Z" fill="white"/>
<path d="M36.625 0.480469L45.7482 6.37234L36.625 12.349V0.480469Z" fill="#FFCB07"/>
<path d="M114.596 39.6887C104.962 39.6887 95.1562 32.9915 95.1562 20.1481C95.1562 7.30466 104.919 0.607422 114.596 0.607422H120.352V4.37991H115.023C107.477 4.37991 99.3768 9.29687 99.3768 20.1481C99.3768 30.9993 107.477 35.9162 115.023 35.9162H120.309V39.6887H114.596Z" fill="white"/>
<path d="M1.41109 48.4627L1.02741 49.48H0.046875L1.96531 44.6055H2.77531L4.65111 49.48H3.62795L3.24426 48.4627H1.41109ZM2.94584 47.5726L2.34899 46.0043L1.75215 47.5726H2.94584Z" fill="#E8E8E8"/>
<path d="M6.95312 49.48V44.6055H7.93366V49.48H6.95312Z" fill="#E8E8E8"/>
<path d="M11.7699 49.48H10.832V44.6055H12.111L13.3473 48.166L14.5836 44.6055H15.8626V49.48H14.9247L14.9673 45.9195L13.731 49.48H13.0063L11.7699 45.9195V49.48Z" fill="#E8E8E8"/>
<path d="M18.4219 47.9969H19.3171V48.0816C19.3171 48.2936 19.3598 48.4631 19.4877 48.5903C19.6156 48.7175 19.7435 48.7598 19.914 48.7598C20.1271 48.7598 20.255 48.7175 20.3829 48.5903C20.5108 48.4631 20.5535 48.336 20.5535 48.124C20.5535 47.8273 20.3403 47.573 19.8714 47.4458C19.8287 47.4458 19.7861 47.4034 19.7435 47.4034C19.3598 47.2763 19.0614 47.1067 18.8908 46.8948C18.7203 46.6829 18.635 46.3861 18.635 46.0894C18.635 45.6232 18.7629 45.2841 19.0187 44.9874C19.2745 44.6906 19.6156 44.5635 20.0419 44.5635C20.4256 44.5635 20.7666 44.6906 20.9798 44.945C21.2356 45.1993 21.3635 45.5384 21.3635 45.9623H20.5108V45.9199C20.5108 45.7503 20.4682 45.6232 20.3829 45.5384C20.2977 45.4536 20.1698 45.4112 19.9993 45.4112C19.8287 45.4112 19.7008 45.4536 19.6156 45.5384C19.5303 45.6232 19.4877 45.7503 19.4877 45.9199C19.4877 46.0047 19.4877 46.047 19.5303 46.0894C19.5303 46.1318 19.5729 46.1742 19.6156 46.259C19.7008 46.3438 19.914 46.4709 20.2124 46.5557C20.3403 46.5981 20.4682 46.6405 20.5108 46.6405C20.8519 46.7676 21.1077 46.9372 21.2782 47.1491C21.4487 47.3611 21.534 47.6154 21.534 47.9545C21.534 48.4631 21.4061 48.8446 21.1077 49.1837C20.8093 49.4804 20.4682 49.65 19.9993 49.65C19.5729 49.65 19.1892 49.5228 18.9335 49.2261C18.5924 48.8446 18.4219 48.4631 18.4219 47.9969Z" fill="#E8E8E8"/>
<path d="M25.0704 47.4878V49.48H24.0898V44.6055H25.0704V46.5977H26.6478V44.6055H27.6283V49.48H26.6478V47.4878H25.0704Z" fill="#E8E8E8"/>
<path d="M31.2119 48.4627L30.8282 49.48H29.8477L31.7661 44.6055H32.5761L34.4519 49.48H33.4287L33.045 48.4627H31.2119ZM32.704 47.5726L32.1071 46.0043L31.5103 47.5726H32.704Z" fill="#E8E8E8"/>
<path d="M39.2266 49.48H36.7539V44.6055H37.6918V48.6323H39.2266V49.48Z" fill="#E8E8E8"/>
<path d="M42.8056 48.4627L42.4219 49.48H41.4414L43.3598 44.6055H44.1698L46.0456 49.48H45.0225L44.6388 48.4627H42.8056ZM44.2977 47.5726L43.7009 46.0043L43.104 47.5726H44.2977Z" fill="#E8E8E8"/>
<path d="M57.0049 46.047H55.8538C55.7259 45.8775 55.5554 45.7079 55.3423 45.6232C55.1291 45.5384 54.9159 45.496 54.7028 45.496C54.4896 45.496 54.3191 45.5384 54.1486 45.6232C53.978 45.7079 53.8075 45.7927 53.6796 45.9623C53.5517 46.0894 53.4238 46.3014 53.3386 46.4709C53.2533 46.6829 53.2107 46.8524 53.2107 47.0643C53.2107 47.5306 53.3386 47.8697 53.637 48.2088C53.9354 48.5055 54.2765 48.6751 54.7028 48.6751C54.9586 48.6751 55.1717 48.6327 55.3423 48.5479C55.5554 48.4631 55.6833 48.336 55.8112 48.1664H57.0049C56.7917 48.6751 56.4507 49.0566 56.067 49.2685C55.6833 49.5228 55.2144 49.65 54.7028 49.65C54.3191 49.65 53.978 49.5652 53.6796 49.438C53.3812 49.3109 53.0828 49.0989 52.827 48.8022C52.6138 48.5903 52.4433 48.2936 52.358 47.9969C52.2301 47.7002 52.1875 47.4034 52.1875 47.0643C52.1875 46.7252 52.2728 46.3861 52.4007 46.0894C52.5286 45.7927 52.7417 45.496 52.9549 45.2417C53.2107 45.0297 53.4665 44.8178 53.7649 44.733C54.0633 44.6059 54.3617 44.5635 54.7028 44.5635C55.257 44.5635 55.6833 44.6906 56.067 44.945C56.4507 45.1569 56.7491 45.5384 57.0049 46.047Z" fill="#E8E8E8"/>
<path d="M60.372 48.4627L59.9883 49.48H59.0078L60.9262 44.6055H61.7363L63.6121 49.48H62.5889L62.2052 48.4627H60.372ZM61.8642 47.5726L61.2673 46.0043L60.6705 47.5726H61.8642Z" fill="#E8E8E8"/>
<path d="M66.8516 49.48H65.8711V44.6055H67.0222C67.4058 44.6055 67.6616 44.6055 67.8322 44.6479C68.0027 44.6902 68.1732 44.7326 68.3011 44.775C68.5995 44.9022 68.8127 45.0717 68.9406 45.3261C69.0685 45.538 69.1537 45.8347 69.1537 46.1314C69.1537 46.5129 69.0685 46.8096 68.8553 47.1063C68.6422 47.3607 68.3437 47.5302 68.0027 47.615L69.239 49.5224H68.0879L66.809 47.2759V49.48H66.8516ZM66.8516 46.9792H67.0648C67.4485 46.9792 67.7469 46.8944 67.9601 46.7672C68.1732 46.6401 68.2585 46.4281 68.2585 46.1738C68.2585 45.9195 68.1732 45.7075 68.0027 45.5804C67.8322 45.4532 67.5764 45.4108 67.1927 45.4108H66.8516V46.9792Z" fill="#E8E8E8"/>
<path d="M74.526 49.48H71.8828V44.6055H74.526V45.4532H72.8207V46.5553H74.526V47.403H72.8207V48.5899H74.526V49.48Z" fill="#E8E8E8"/>
<path d="M80.065 49.48H77.4219V44.6055H80.065V45.4532H78.3598V46.5553H80.065V47.403H78.3598V48.5899H80.065V49.48Z" fill="#E8E8E8"/>
<path d="M83.9024 49.48H82.9219V44.6055H84.0729C84.4566 44.6055 84.7124 44.6055 84.8829 44.6479C85.0535 44.6902 85.224 44.7326 85.3519 44.775C85.6503 44.9022 85.8635 45.0717 85.9914 45.3261C86.1193 45.538 86.2045 45.8347 86.2045 46.1314C86.2045 46.5129 86.1193 46.8096 85.9061 47.1063C85.6929 47.3607 85.3945 47.5302 85.0535 47.615L86.2898 49.5224H85.1387L83.8598 47.2759V49.48H83.9024ZM83.9024 46.9792H84.1156C84.4993 46.9792 84.7977 46.8944 85.0108 46.7672C85.224 46.6401 85.3093 46.4281 85.3093 46.1738C85.3093 45.9195 85.224 45.7075 85.0535 45.5804C84.8829 45.4532 84.6272 45.4108 84.2435 45.4108H83.9024V46.9792Z" fill="#E8E8E8"/>
<path d="M95.6705 49.48H93.0273V44.6055H95.6705V45.4532H93.9652V46.5553H95.6705V47.403H93.9652V48.5899H95.6705V49.48Z" fill="#E8E8E8"/>
<path d="M100.148 47.7845L99.167 49.48H98.0586L99.636 47.0216L98.1012 44.6055H99.167L100.105 46.301L101.043 44.6055H102.109L100.574 47.0216L102.151 49.48H101.085L100.148 47.7845Z" fill="#E8E8E8"/>
<path d="M105.606 49.48H104.625V44.6055H105.861C106.16 44.6055 106.416 44.6055 106.586 44.6479C106.757 44.6902 106.927 44.7326 107.012 44.8174C107.226 44.9446 107.353 45.1141 107.481 45.3684C107.609 45.5804 107.652 45.8347 107.652 46.089C107.652 46.5553 107.481 46.9368 107.183 47.1911C106.884 47.4878 106.458 47.615 105.947 47.615H105.606V49.48ZM105.606 46.8096H105.861C106.117 46.8096 106.33 46.7672 106.458 46.6401C106.586 46.5129 106.671 46.3434 106.671 46.1314C106.671 45.9195 106.586 45.7499 106.458 45.6228C106.33 45.4956 106.117 45.4532 105.819 45.4532H105.563V46.8096H105.606Z" fill="#E8E8E8"/>
<path d="M112.766 49.48H110.293V44.6055H111.231V48.6323H112.766V49.48Z" fill="#E8E8E8"/>
<path d="M114.941 47.0218C114.941 46.7674 114.984 46.5131 115.069 46.2588C115.155 46.0045 115.24 45.7925 115.41 45.5806C115.666 45.2415 115.965 44.9448 116.306 44.7752C116.689 44.5633 117.073 44.4785 117.499 44.4785C117.84 44.4785 118.139 44.5209 118.437 44.6481C118.736 44.7752 118.991 44.9448 119.247 45.1991C119.503 45.4534 119.674 45.7078 119.801 46.0045C119.929 46.3012 120.015 46.6403 120.015 46.9794C120.015 47.3185 119.972 47.6576 119.844 47.9543C119.716 48.251 119.546 48.5477 119.332 48.7597C119.077 49.014 118.821 49.1835 118.522 49.3107C118.224 49.4379 117.883 49.5226 117.542 49.5226C117.158 49.5226 116.86 49.4379 116.519 49.3107C116.178 49.1835 115.922 48.9716 115.709 48.7173C115.496 48.4629 115.325 48.2086 115.197 47.9119C114.984 47.7 114.941 47.4033 114.941 47.0218ZM115.922 47.0218C115.922 47.2337 115.965 47.4456 116.007 47.6152C116.05 47.7847 116.178 47.9543 116.306 48.1238C116.476 48.2934 116.647 48.4206 116.817 48.5053C116.988 48.5901 117.201 48.6325 117.414 48.6325C117.84 48.6325 118.224 48.4629 118.48 48.1662C118.778 47.8695 118.906 47.488 118.906 47.0218C118.906 46.5979 118.778 46.2588 118.48 45.9621C118.181 45.6654 117.84 45.5382 117.414 45.5382C116.988 45.5382 116.604 45.6654 116.306 45.9621C116.092 46.2164 115.922 46.5979 115.922 47.0218Z" fill="#E8E8E8"/>
<path d="M123.594 49.48H122.613V44.6055H123.764C124.148 44.6055 124.404 44.6055 124.574 44.6479C124.745 44.6902 124.915 44.7326 125.043 44.775C125.342 44.9022 125.555 45.0717 125.683 45.3261C125.811 45.538 125.896 45.8347 125.896 46.1314C125.896 46.5129 125.811 46.8096 125.598 47.1063C125.384 47.3607 125.086 47.5302 124.745 47.615L125.981 49.5224H124.83L123.551 47.2759V49.48H123.594ZM123.594 46.9792H123.807C124.191 46.9792 124.489 46.8944 124.702 46.7672C124.915 46.6401 125.001 46.4281 125.001 46.1738C125.001 45.9195 124.915 45.7075 124.745 45.5804C124.574 45.4532 124.319 45.4108 123.935 45.4108H123.594V46.9792Z" fill="#E8E8E8"/>
<path d="M131.311 49.48H128.668V44.6055H131.311V45.4532H129.606V46.5553H131.311V47.403H129.606V48.5899H131.311V49.48Z" fill="#E8E8E8"/>
<path d="M135.148 49.48H134.168V44.6055H135.319C135.703 44.6055 135.958 44.6055 136.129 44.6479C136.3 44.6902 136.47 44.7326 136.598 44.775C136.896 44.9022 137.11 45.0717 137.237 45.3261C137.365 45.538 137.451 45.8347 137.451 46.1314C137.451 46.5129 137.365 46.8096 137.152 47.1063C136.939 47.3607 136.641 47.5302 136.3 47.615L137.536 49.5224H136.385L135.106 47.2759V49.48H135.148ZM135.148 46.9792H135.362C135.745 46.9792 136.044 46.8944 136.257 46.7672C136.47 46.6401 136.555 46.4281 136.555 46.1738C136.555 45.9195 136.47 45.7075 136.3 45.5804C136.129 45.4532 135.873 45.4108 135.49 45.4108H135.148V46.9792Z" fill="#E8E8E8"/>
<path d="M146.7 44.6055V45.4532H145.763V49.48H144.825V45.4532H143.887V44.6055H146.7Z" fill="#E8E8E8"/>
<path d="M151.858 49.48H149.215V44.6055H151.858V45.4532H150.153V46.5553H151.858V47.403H150.153V48.5899H151.858V49.48Z" fill="#E8E8E8"/>
<path d="M154.461 47.9969H155.356V48.0816C155.356 48.2936 155.399 48.4631 155.527 48.5903C155.655 48.7175 155.783 48.7598 155.953 48.7598C156.166 48.7598 156.294 48.7175 156.422 48.5903C156.55 48.4631 156.593 48.336 156.593 48.124C156.593 47.8273 156.379 47.573 155.91 47.4458C155.868 47.4458 155.825 47.4034 155.783 47.4034C155.399 47.2763 155.1 47.1067 154.93 46.8948C154.759 46.6829 154.674 46.3861 154.674 46.0894C154.674 45.6232 154.802 45.2841 155.058 44.9874C155.314 44.6906 155.655 44.5635 156.081 44.5635C156.465 44.5635 156.806 44.6906 157.019 44.945C157.275 45.1993 157.403 45.5384 157.403 45.9623H156.55V45.9199C156.55 45.7503 156.507 45.6232 156.422 45.5384C156.337 45.4536 156.209 45.4112 156.038 45.4112C155.868 45.4112 155.74 45.4536 155.655 45.5384C155.569 45.6232 155.527 45.7503 155.527 45.9199C155.527 46.0047 155.527 46.047 155.569 46.0894C155.569 46.1318 155.612 46.1742 155.655 46.259C155.74 46.3438 155.953 46.4709 156.251 46.5557C156.379 46.5981 156.507 46.6405 156.55 46.6405C156.891 46.7676 157.147 46.9372 157.317 47.1491C157.488 47.3611 157.573 47.6154 157.573 47.9545C157.573 48.4631 157.445 48.8446 157.147 49.1837C156.848 49.4804 156.507 49.65 156.038 49.65C155.612 49.65 155.228 49.5228 154.973 49.2261C154.589 48.8446 154.461 48.4631 154.461 47.9969Z" fill="#E8E8E8"/>
<path d="M162.56 44.6055V45.4532H161.622V49.48H160.684V45.4532H159.746V44.6055H162.56Z" fill="#E8E8E8"/>
</g>
<defs>
<clipPath id="clip0_275_8407">
<rect width="173" height="49" fill="white" transform="translate(0 0.480469)"/>
</clipPath>
</defs>
</svg>
