<svg width="20" height="21" viewBox="0 0 20 21" fill="none" xmlns="http://www.w3.org/2000/svg">
<path d="M9.16797 6.33317H10.8346V7.99984H9.16797V6.33317ZM9.16797 9.6665H10.8346V14.6665H9.16797V9.6665ZM10.0013 2.1665C5.4013 2.1665 1.66797 5.89984 1.66797 10.4998C1.66797 15.0998 5.4013 18.8332 10.0013 18.8332C14.6013 18.8332 18.3346 15.0998 18.3346 10.4998C18.3346 5.89984 14.6013 2.1665 10.0013 2.1665ZM10.0013 17.1665C6.3263 17.1665 3.33464 14.1748 3.33464 10.4998C3.33464 6.82484 6.3263 3.83317 10.0013 3.83317C13.6763 3.83317 16.668 6.82484 16.668 10.4998C16.668 14.1748 13.6763 17.1665 10.0013 17.1665Z" fill="#5B5E61"/>
</svg>
