<svg width="40" height="41" viewBox="0 0 40 41" fill="none" xmlns="http://www.w3.org/2000/svg">
<path d="M0.3125 38.0781C0.3125 38.6376 0.534737 39.1741 0.930322 39.5697C1.32591 39.9653 1.86243 40.1875 2.42188 40.1875H37.5781C38.1376 40.1875 38.6741 39.9653 39.0697 39.5697C39.4653 39.1741 39.6875 38.6376 39.6875 38.0781V13.4688H0.3125V38.0781ZM28.4375 16.6328C28.4375 16.5396 28.4745 16.4502 28.5405 16.3842C28.6064 16.3183 28.6958 16.2812 28.7891 16.2812H32.3047C32.3979 16.2812 32.4874 16.3183 32.5533 16.3842C32.6192 16.4502 32.6562 16.5396 32.6562 16.6328V20.1484C32.6562 20.2417 32.6192 20.3311 32.5533 20.397C32.4874 20.463 32.3979 20.5 32.3047 20.5H28.7891C28.6958 20.5 28.6064 20.463 28.5405 20.397C28.4745 20.3311 28.4375 20.2417 28.4375 20.1484V16.6328ZM28.4375 23.6641C28.4375 23.5708 28.4745 23.4814 28.5405 23.4155C28.6064 23.3495 28.6958 23.3125 28.7891 23.3125H32.3047C32.3979 23.3125 32.4874 23.3495 32.5533 23.4155C32.6192 23.4814 32.6562 23.5708 32.6562 23.6641V27.1797C32.6562 27.2729 32.6192 27.3623 32.5533 27.4283C32.4874 27.4942 32.3979 27.5312 32.3047 27.5312H28.7891C28.6958 27.5312 28.6064 27.4942 28.5405 27.4283C28.4745 27.3623 28.4375 27.2729 28.4375 27.1797V23.6641ZM21.4062 16.6328C21.4062 16.5396 21.4433 16.4502 21.5092 16.3842C21.5752 16.3183 21.6646 16.2812 21.7578 16.2812H25.2734C25.3667 16.2812 25.4561 16.3183 25.522 16.3842C25.588 16.4502 25.625 16.5396 25.625 16.6328V20.1484C25.625 20.2417 25.588 20.3311 25.522 20.397C25.4561 20.463 25.3667 20.5 25.2734 20.5H21.7578C21.6646 20.5 21.5752 20.463 21.5092 20.397C21.4433 20.3311 21.4062 20.2417 21.4062 20.1484V16.6328ZM21.4062 23.6641C21.4062 23.5708 21.4433 23.4814 21.5092 23.4155C21.5752 23.3495 21.6646 23.3125 21.7578 23.3125H25.2734C25.3667 23.3125 25.4561 23.3495 25.522 23.4155C25.588 23.4814 25.625 23.5708 25.625 23.6641V27.1797C25.625 27.2729 25.588 27.3623 25.522 27.4283C25.4561 27.4942 25.3667 27.5312 25.2734 27.5312H21.7578C21.6646 27.5312 21.5752 27.4942 21.5092 27.4283C21.4433 27.3623 21.4062 27.2729 21.4062 27.1797V23.6641ZM21.4062 30.6953C21.4062 30.6021 21.4433 30.5127 21.5092 30.4467C21.5752 30.3808 21.6646 30.3438 21.7578 30.3438H25.2734C25.3667 30.3438 25.4561 30.3808 25.522 30.4467C25.588 30.5127 25.625 30.6021 25.625 30.6953V34.2109C25.625 34.3042 25.588 34.3936 25.522 34.4595C25.4561 34.5255 25.3667 34.5625 25.2734 34.5625H21.7578C21.6646 34.5625 21.5752 34.5255 21.5092 34.4595C21.4433 34.3936 21.4062 34.3042 21.4062 34.2109V30.6953ZM14.375 23.6641C14.375 23.5708 14.412 23.4814 14.478 23.4155C14.5439 23.3495 14.6333 23.3125 14.7266 23.3125H18.2422C18.3354 23.3125 18.4248 23.3495 18.4908 23.4155C18.5567 23.4814 18.5938 23.5708 18.5938 23.6641V27.1797C18.5938 27.2729 18.5567 27.3623 18.4908 27.4283C18.4248 27.4942 18.3354 27.5312 18.2422 27.5312H14.7266C14.6333 27.5312 14.5439 27.4942 14.478 27.4283C14.412 27.3623 14.375 27.2729 14.375 27.1797V23.6641ZM14.375 30.6953C14.375 30.6021 14.412 30.5127 14.478 30.4467C14.5439 30.3808 14.6333 30.3438 14.7266 30.3438H18.2422C18.3354 30.3438 18.4248 30.3808 18.4908 30.4467C18.5567 30.5127 18.5938 30.6021 18.5938 30.6953V34.2109C18.5938 34.3042 18.5567 34.3936 18.4908 34.4595C18.4248 34.5255 18.3354 34.5625 18.2422 34.5625H14.7266C14.6333 34.5625 14.5439 34.5255 14.478 34.4595C14.412 34.3936 14.375 34.3042 14.375 34.2109V30.6953ZM7.34375 23.6641C7.34375 23.5708 7.38079 23.4814 7.44672 23.4155C7.51265 23.3495 7.60207 23.3125 7.69531 23.3125H11.2109C11.3042 23.3125 11.3936 23.3495 11.4595 23.4155C11.5255 23.4814 11.5625 23.5708 11.5625 23.6641V27.1797C11.5625 27.2729 11.5255 27.3623 11.4595 27.4283C11.3936 27.4942 11.3042 27.5312 11.2109 27.5312H7.69531C7.60207 27.5312 7.51265 27.4942 7.44672 27.4283C7.38079 27.3623 7.34375 27.2729 7.34375 27.1797V23.6641ZM7.34375 30.6953C7.34375 30.6021 7.38079 30.5127 7.44672 30.4467C7.51265 30.3808 7.60207 30.3438 7.69531 30.3438H11.2109C11.3042 30.3438 11.3936 30.3808 11.4595 30.4467C11.5255 30.5127 11.5625 30.6021 11.5625 30.6953V34.2109C11.5625 34.3042 11.5255 34.3936 11.4595 34.4595C11.3936 34.5255 11.3042 34.5625 11.2109 34.5625H7.69531C7.60207 34.5625 7.51265 34.5255 7.44672 34.4595C7.38079 34.3936 7.34375 34.3042 7.34375 34.2109V30.6953ZM37.5781 3.625H32.6633V0.8125H28.4445V3.625H11.5555V0.8125H7.33672V3.625H2.42188C2.14592 3.62268 1.87224 3.67499 1.61659 3.77891C1.36094 3.88282 1.12838 4.0363 0.93231 4.23049C0.736238 4.42469 0.580529 4.65576 0.474153 4.91039C0.367778 5.16503 0.312838 5.4382 0.3125 5.71416V10.6562H39.6875V5.71416C39.6872 5.4382 39.6322 5.16503 39.5258 4.91039C39.4195 4.65576 39.2638 4.42469 39.0677 4.23049C38.8716 4.0363 38.6391 3.88282 38.3834 3.77891C38.1278 3.67499 37.8541 3.62268 37.5781 3.625Z" fill="#747677"/>
</svg>
