<svg width="16" height="16" viewBox="0 0 16 16" fill="none" xmlns="http://www.w3.org/2000/svg">
<path d="M3.10108 7.96495C2.53678 6.98099 2.26431 6.17752 2.10001 5.36307C1.85703 4.15853 2.41309 2.98188 3.33427 2.23109C3.72359 1.91377 4.16989 2.02218 4.40011 2.43521L4.91986 3.36765C5.33183 4.10674 5.53782 4.47628 5.49696 4.86806C5.4561 5.25984 5.17831 5.57894 4.62272 6.21712L3.10108 7.96495ZM3.10108 7.96495C4.24327 9.95656 6.03573 11.75 8.02966 12.8935M8.02966 12.8935C9.01362 13.4578 9.81709 13.7303 10.6315 13.8946C11.8361 14.1376 13.0127 13.5815 13.7635 12.6603C14.0808 12.271 13.9724 11.8247 13.5594 11.5945L12.627 11.0747C11.8879 10.6628 11.5183 10.4568 11.1265 10.4976C10.7348 10.5385 10.4157 10.8163 9.77749 11.3719L8.02966 12.8935Z" stroke="white" stroke-width="1.07143" stroke-linejoin="round"/>
</svg>
