<svg width="20" height="20" viewBox="0 0 20 20" fill="none" xmlns="http://www.w3.org/2000/svg">
<g clip-path="url(#clip0_2385_11059)">
<path d="M14.168 5C16.1226 5 16.6833 5 17.3565 5.51662C17.5299 5.64962 17.685 5.80477 17.818 5.9781C18.3346 6.65136 18.3346 7.62869 18.3346 9.58333V13.3333C18.3346 15.6904 18.3346 16.8689 17.6024 17.6011C16.8702 18.3333 15.6917 18.3333 13.3346 18.3333H6.66797C4.31095 18.3333 3.13243 18.3333 2.4002 17.6011C1.66797 16.8689 1.66797 15.6904 1.66797 13.3333V9.58333C1.66797 7.62869 1.66797 6.65136 2.18459 5.9781C2.31759 5.80477 2.47273 5.64962 2.64607 5.51662C3.31933 5 3.87999 5 5.83464 5" stroke="#1E232C" stroke-width="1.5" stroke-linecap="round"/>
<path d="M14.1693 5.83329L13.4311 3.98782C13.1126 3.19159 12.8354 2.28838 12.0165 1.88292C11.5796 1.66663 11.0539 1.66663 10.0026 1.66663C8.95127 1.66663 8.42561 1.66663 7.98873 1.88292C7.16977 2.28838 6.89262 3.1916 6.57413 3.98782L5.83594 5.83329" stroke="#1E232C" stroke-width="1.5" stroke-linecap="round" stroke-linejoin="round"/>
<path d="M12.9193 11.6667C12.9193 13.2775 11.6134 14.5833 10.0026 14.5833C8.39177 14.5833 7.08594 13.2775 7.08594 11.6667C7.08594 10.0558 8.39177 8.75 10.0026 8.75C11.6134 8.75 12.9193 10.0558 12.9193 11.6667Z" stroke="#1E232C" stroke-width="1.5"/>
<path d="M9.99984 5H10.0073" stroke="#1E232C" stroke-width="2" stroke-linecap="round" stroke-linejoin="round"/>
</g>
<defs>
<clipPath id="clip0_2385_11059">
<rect width="20" height="20" fill="white"/>
</clipPath>
</defs>
</svg>
