<?xml version="1.0" encoding="utf-8"?>
<!-- Generator: Adobe Illustrator 27.9.1, SVG Export Plug-In . SVG Version: 6.00 Build 0)  -->
<svg version="1.1" id="Layer_1" xmlns="http://www.w3.org/2000/svg" xmlns:xlink="http://www.w3.org/1999/xlink" x="0px" y="0px"
	 viewBox="0 0 23 17" style="enable-background:new 0 0 23 17;" xml:space="preserve">
<style type="text/css">
	.st0{fill:#FFFFFF;}
</style>
<path class="st0" d="M21.5,8.9c-0.4-0.6-1.1-1.1-1.8-1.3c0.1-0.5,0.1-1,0-1.5C19.6,5.5,19.3,5,19,4.5c-0.4-0.5-0.8-0.9-1.3-1.1
	c-0.6-0.3-1.2-0.5-1.7-0.5c-0.5,0-1,0.1-1.5,0.3c-0.4,0.2-0.7,0.4-1,0.6c-0.5-0.9-1.2-1.6-2.1-2.1c-0.9-0.6-2-0.9-3.1-0.9
	C5,0.7,2.3,3.5,2.2,6.9c0,0.4,0,0.7,0.1,1.1c-1,0.7-1.5,1.9-1.5,3.1c0,1,0.4,2,1.1,2.8C2.5,14.6,3.5,15,4.5,15c0.6,0,1.1,0,1.7,0
	c0.8,0,1.5,0,2.3,0l0.1,0c0.8,0,2.7,0,4.8,0l0.1,0c2,0,4-0.1,4.9,0c2.1,0,3.8-1.8,3.8-3.9C22.2,10.4,22,9.6,21.5,8.9z M18.3,14.1
	c-0.9,0-3,0-5,0l-0.1,0c-1.8,0-3.7,0.1-4.6,0l-0.1,0c-1,0-1.7,0-2.3,0s-1.1,0-1.7,0c-0.7,0-1.4-0.3-2-0.8c-0.5-0.5-0.8-1.2-0.8-2
	c0-0.5,0.1-1,0.4-1.4c0.2-0.4,0.6-0.8,1-1c0.1-0.1,0.2-0.2,0.2-0.2c0-0.1,0.1-0.2,0-0.3C3.3,7.7,3.2,7.3,3.2,6.9
	c0-2.9,2.4-5.2,5.1-5.1c1,0,1.9,0.3,2.7,0.8s1.5,1.3,1.9,2.2C12.9,5,13,5,13,5.1c0.1,0,0.2,0.1,0.2,0.1c0.1,0,0.2,0,0.3,0
	c0.1,0,0.1-0.1,0.2-0.2c0.2-0.3,0.6-0.6,1-0.8C15.1,4,15.5,3.9,16,4c0.4,0,0.9,0.1,1.3,0.3c0.4,0.2,0.7,0.5,1,0.9
	c0.2,0.4,0.4,0.8,0.5,1.2c0.1,0.5,0,0.9-0.1,1.3c0,0.1,0,0.2,0,0.2c0,0.1,0,0.2,0.1,0.2c0,0.1,0.1,0.1,0.2,0.2
	c0.1,0,0.1,0.1,0.2,0.1c0.6,0.1,1.2,0.5,1.6,1c0.4,0.5,0.6,1.1,0.6,1.8c0,0.8-0.3,1.5-0.8,2C19.8,13.8,19.1,14.1,18.3,14.1z"/>
<path class="st0" d="M10.9,11c-0.2,0-0.3-0.1-0.4-0.2c-0.1-0.1-0.2-0.3-0.2-0.5V7.7c0-0.2,0.1-0.3,0.2-0.5C10.6,7,10.7,7,10.9,7h1.9
	c0.2,0,0.3,0.1,0.4,0.2c0.1,0.1,0.2,0.3,0.2,0.5v2.7c0,0.2-0.1,0.3-0.2,0.5c-0.1,0.1-0.3,0.2-0.4,0.2h-1.9V11z M11.2,10h1.2V8h-1.2
	V10z M6.5,11c-0.2,0-0.3-0.1-0.4-0.2c-0.1-0.1-0.2-0.3-0.2-0.5V7.7c0-0.2,0.1-0.3,0.2-0.5C6.2,7.1,6.3,7,6.5,7h1.9
	c0.2,0,0.3,0.1,0.4,0.2C8.9,7.3,9,7.5,9,7.7v0.7H8.1V8H6.8v2H8V9.7h1v0.7c0,0.2-0.1,0.3-0.2,0.5c-0.1,0-0.2,0.1-0.4,0.1H6.5z
	 M14.6,13v-1.7c0-0.2,0.1-0.3,0.2-0.5c0.1-0.1,0.3-0.2,0.4-0.2h1.2V10h-1.9V9h2.2c0.2,0,0.3,0.1,0.4,0.2c0.1,0.1,0.2,0.3,0.2,0.5v1
	c0,0.2-0.1,0.3-0.2,0.5c-0.1,0.1-0.3,0.2-0.4,0.2h-1.2V12h1.9v1H14.6z"/>
</svg>
