<svg width="23" height="17" viewBox="0 0 23 17" fill="none" xmlns="http://www.w3.org/2000/svg">
<path d="M21.4927 8.91343C21.0996 8.3089 20.4054 7.80092 19.7077 7.59293C19.8134 7.0941 19.8191 6.59414 19.7248 6.09303C19.6317 5.49192 19.3375 4.98852 19.0432 4.48512C18.6489 3.98058 18.2535 3.57603 17.7559 3.37032C17.1593 3.06348 16.5617 2.85663 16.0617 2.8509C15.5617 2.84518 15.0606 2.93946 14.5584 3.13372C14.1561 3.32914 13.8538 3.52569 13.5516 3.72225C13.0619 2.81658 12.3699 2.10862 11.4757 1.59836C10.5827 0.988101 9.48616 0.675536 8.38623 0.662951C4.98531 0.724048 2.25345 3.49298 2.21455 6.89275C2.20998 7.29273 2.20654 7.59271 2.30196 7.99383C1.29402 8.68234 0.780323 9.87654 0.766595 11.0765C0.755154 12.0764 1.14369 13.0809 1.83449 13.8889C2.52644 14.5968 3.52179 15.0082 4.52173 15.0197C5.12169 15.0265 5.62166 15.0323 6.22162 15.0391C7.02156 15.0483 7.72152 15.0563 8.52147 15.0654L8.62146 15.0666C9.42141 15.0757 11.3213 15.0975 13.4223 15.0215L13.5223 15.0226C15.5222 15.0455 17.5232 14.9684 18.4231 14.9787C20.523 15.0027 22.2435 13.2223 22.2675 11.1224C22.1755 10.4213 21.9847 9.61911 21.4927 8.91343ZM18.3334 14.0776C17.4335 14.0673 15.3336 14.0433 13.3326 14.1204L13.2326 14.1193C11.4327 14.0987 9.5317 14.1769 8.63176 14.1666L8.53176 14.1655C7.53183 14.1541 6.83187 14.1461 6.23191 14.1392C5.63195 14.1323 5.13199 14.1266 4.53202 14.1197C3.83207 14.1117 3.13555 13.8037 2.54131 13.2969C2.04706 12.7912 1.75509 12.0878 1.76424 11.2879C1.76996 10.7879 1.87568 10.2891 2.18023 9.89256C2.38479 9.49487 2.78934 9.09947 3.19161 8.90406C3.29274 8.80521 3.39388 8.70636 3.39388 8.70636C3.39503 8.60637 3.49616 8.50752 3.39731 8.40638C3.30533 7.70528 3.20991 7.30417 3.21449 6.90419C3.24766 4.00438 5.57383 1.73085 8.27365 1.76174C9.27358 1.77318 10.1701 2.08345 10.9643 2.59257C11.7585 3.10169 12.4494 3.90965 12.839 4.81417C12.9367 5.0153 13.0367 5.01644 13.0356 5.11643C13.1356 5.11758 13.2344 5.21871 13.2344 5.21871C13.3344 5.21986 13.4344 5.221 13.5344 5.22215C13.6344 5.22329 13.6355 5.1233 13.7367 5.02445C13.9401 4.72676 14.3435 4.43135 14.7458 4.23594C15.148 4.04053 15.5491 3.94511 16.0491 3.95083C16.4491 3.95541 16.9479 4.06112 17.3456 4.26569C17.7433 4.47025 18.0398 4.77366 18.3352 5.17707C18.5306 5.57933 18.7261 5.98159 18.8215 6.38271C18.9157 6.88382 18.8112 7.28265 18.7066 7.68148C18.7055 7.78147 18.7043 7.88147 18.7043 7.88147C18.7032 7.98146 18.702 8.08145 18.802 8.0826C18.8009 8.18259 18.9009 8.18374 18.9997 8.28487C19.0997 8.28602 19.0986 8.38601 19.1986 8.38715C19.7974 8.49401 20.3928 8.90085 20.787 9.40539C21.1813 9.90994 21.3744 10.5122 21.3664 11.2121C21.3572 12.0121 21.0493 12.7086 20.5436 13.2029C19.8367 13.7948 19.1334 14.0868 18.3334 14.0776Z" fill="#93268F"/>
<path d="M10.8984 11C10.6984 11 10.5984 10.9 10.4984 10.8C10.3984 10.7 10.2984 10.5 10.2984 10.3V7.7C10.2984 7.5 10.3984 7.4 10.4984 7.2C10.5984 7 10.6984 7 10.8984 7H12.7984C12.9984 7 13.0984 7.1 13.1984 7.2C13.2984 7.3 13.3984 7.5 13.3984 7.7V10.4C13.3984 10.6 13.2984 10.7 13.1984 10.9C13.0984 11 12.8984 11.1 12.7984 11.1H10.8984V11ZM11.1984 10H12.3984V8H11.1984V10ZM6.49844 11C6.29844 11 6.19844 10.9 6.09844 10.8C5.99844 10.7 5.89844 10.5 5.89844 10.3V7.7C5.89844 7.5 5.99844 7.4 6.09844 7.2C6.19844 7.1 6.29844 7 6.49844 7H8.39844C8.59844 7 8.69844 7.1 8.79844 7.2C8.89844 7.3 8.99844 7.5 8.99844 7.7V8.4H8.09844V8H6.79844V10H7.99844V9.7H8.99844V10.4C8.99844 10.6 8.89844 10.7 8.79844 10.9C8.69844 10.9 8.59844 11 8.39844 11H6.49844ZM14.5984 13V11.3C14.5984 11.1 14.6984 11 14.7984 10.8C14.8984 10.7 15.0984 10.6 15.1984 10.6H16.3984V10H14.4984V9H16.6984C16.8984 9 16.9984 9.1 17.0984 9.2C17.1984 9.3 17.2984 9.5 17.2984 9.7V10.7C17.2984 10.9 17.1984 11 17.0984 11.2C16.9984 11.3 16.7984 11.4 16.6984 11.4H15.4984V12H17.3984V13H14.5984Z" fill="#93268F"/>
</svg>
