<svg width="21" height="20" viewBox="0 0 21 20" fill="none" xmlns="http://www.w3.org/2000/svg">
<g clip-path="url(#clip0_795_6637)">
<path d="M20.4945 9.40844C20.4535 9.00219 20.2484 8.66235 19.8656 8.36743C19.5766 8.14477 19.2055 8.04516 18.8207 8.08618C18.4184 8.1311 18.057 8.29125 17.7152 8.58032C17.4945 8.76782 17.2953 8.98461 17.1 9.19164C17.0551 9.24047 17.0082 9.2893 16.9633 9.33813C16.8402 9.46899 16.7191 9.59985 16.5961 9.72875C16.473 9.85961 16.35 9.99047 16.2289 10.1213C16.1723 10.1819 16.1566 10.1956 16.0961 10.2307C16.0512 10.2561 16.0082 10.2815 15.9633 10.3049C15.8949 10.344 15.8246 10.3831 15.7562 10.4241C15.5883 10.5198 15.4203 10.6174 15.2523 10.7131C15.1312 10.7815 15.0102 10.8518 14.8891 10.9202C14.7055 10.7678 14.4945 10.6623 14.268 10.6135C14.1 10.5784 13.9379 10.5745 13.8168 10.5745H11.7797C11.4965 10.5745 11.1898 10.5569 10.8617 10.4299C10.7269 10.3772 10.5902 10.3264 10.4555 10.2737C10.0082 10.1018 9.54531 9.92211 9.08828 9.75024C8.41054 9.49243 7.63711 9.43774 6.9125 9.59204C6.25234 9.73461 5.6664 10.0334 5.26211 10.4358C4.95156 10.7444 4.63711 11.0627 4.33437 11.3674C4.27968 11.4221 4.225 11.4788 4.16836 11.5334C4.06093 11.4123 3.94765 11.2913 3.81484 11.1936C3.46328 10.9397 2.975 10.9846 2.63125 11.2991C2.24648 11.6526 1.85781 12.0159 1.48281 12.3674C1.27383 12.5627 1.05898 12.7659 0.846091 12.9631C0.588278 13.2034 0.474997 13.4983 0.516013 13.8147C0.543356 14.01 0.635153 14.1897 0.797263 14.3635C0.937888 14.512 1.07265 14.6584 1.21718 14.8147L1.25234 14.8518C1.86367 15.5081 2.49648 16.1877 3.12343 16.8577L5.11757 19.0041L5.72695 19.6565C5.76601 19.7014 5.80703 19.7444 5.84804 19.7873L5.85586 19.7952C6.03945 19.9866 6.28554 20.0901 6.53554 20.0901C6.65078 20.0901 6.76797 20.0686 6.88125 20.0217C7.05312 19.9514 7.17812 19.8323 7.29922 19.719L7.31679 19.7034C7.36562 19.6584 7.41445 19.6135 7.46328 19.5666C7.56484 19.4729 7.66836 19.3752 7.76992 19.2795L8.83828 18.2834L9.0375 18.0998C9.05703 18.0803 9.07656 18.0608 9.09218 18.0393C9.40273 17.6741 9.3871 17.1409 9.04531 16.7678C8.96328 16.678 8.87929 16.5881 8.79531 16.5002L9.10781 16.2463C9.225 16.1526 9.34218 16.0549 9.45546 15.9612L9.51797 15.9084C9.62539 15.8206 9.71718 15.7502 9.84218 15.6995C9.99062 15.6389 10.1234 15.6194 10.3129 15.6252C10.4047 15.6272 10.4984 15.6291 10.5941 15.635C10.7738 15.6409 10.9535 15.6467 11.1332 15.6526C11.3187 15.6584 11.5023 15.6643 11.6859 15.6702L12.8422 15.7073C12.893 15.7092 12.9457 15.7112 12.9965 15.7131C13.1898 15.7209 13.391 15.7268 13.5883 15.717C14.3422 15.676 15.059 15.4456 15.6625 15.0491C15.9828 14.8381 16.2602 14.5823 16.516 14.3401C16.6781 14.1858 16.8422 14.0315 17.0043 13.8791C17.3246 13.5764 17.6566 13.2659 17.9809 12.9553C18.059 12.8811 18.1273 12.7991 18.1918 12.719C18.2211 12.6819 18.2504 12.6467 18.2816 12.6116C18.3988 12.4729 18.516 12.3342 18.6332 12.1956C18.7504 12.0569 18.8676 11.9182 18.9848 11.7795L18.9965 11.7659C19.3754 11.3186 19.768 10.8557 20.1508 10.4006C20.4105 10.092 20.5297 9.74829 20.4945 9.40844ZM7.51601 18.1897C7.23476 18.4514 6.95351 18.7151 6.67226 18.9768L6.54531 19.0979C6.54336 19.0998 6.5414 19.1018 6.53945 19.1038C6.53554 19.0998 6.53164 19.0959 6.52578 19.092C6.44179 19.0022 6.35586 18.9104 6.27187 18.8205C6.22695 18.7717 6.18203 18.7229 6.13515 18.6741C5.84218 18.3596 5.54922 18.0471 5.25625 17.7327C4.96132 17.4163 4.66836 17.1018 4.37343 16.7854C4.04336 16.4319 3.71328 16.0784 3.3832 15.7248C3.05312 15.3713 2.72304 15.0178 2.39297 14.6643C2.28164 14.5452 2.16836 14.426 2.05703 14.3108C1.86562 14.1116 1.66836 13.9065 1.48476 13.6956C1.49062 13.6897 1.49843 13.6838 1.50429 13.678C1.51015 13.6721 1.51797 13.6643 1.52383 13.6584L1.52578 13.6565C1.58633 13.5998 1.64687 13.5432 1.70937 13.4846C1.76992 13.428 1.83047 13.3713 1.89101 13.3147L1.90078 13.3049C2.24453 12.9846 2.6 12.6526 2.94961 12.3264C3.05898 12.2248 3.17031 12.1194 3.28554 12.0159C3.41054 12.1545 3.53945 12.2913 3.6664 12.4241C3.72304 12.4827 3.77968 12.5432 3.83437 12.6018C4.2875 13.0901 4.7582 13.592 5.22304 14.0881C5.54726 14.4338 5.86953 14.7815 6.19179 15.1272C6.51796 15.4768 6.84414 15.8264 7.17031 16.176C7.29336 16.3069 7.4164 16.4397 7.53945 16.5706C7.77382 16.8225 8.01601 17.0823 8.25429 17.3381C8.26406 17.3479 8.27382 17.3596 8.28359 17.3694C8.30117 17.3889 8.3207 17.4065 8.33632 17.426C8.06289 17.6799 7.78945 17.9358 7.51601 18.1897ZM19.5141 9.65453C19.5043 9.67797 19.4848 9.70727 19.4555 9.74438C19.4477 9.75414 19.4379 9.76586 19.4301 9.77563C19.4223 9.78344 19.4164 9.79321 19.4086 9.80102L19.4066 9.80297C19.3715 9.84399 19.3363 9.88696 19.3012 9.92797C19.266 9.97094 19.2289 10.012 19.1937 10.053C19.0766 10.1936 18.9574 10.3323 18.8383 10.4709C18.7191 10.6116 18.598 10.7522 18.4809 10.8928C18.3617 11.0334 18.2406 11.178 18.1254 11.3186C17.8793 11.6155 17.6234 11.9221 17.3617 12.2131C17.2758 12.3088 17.1742 12.4006 17.0785 12.4885C17.0316 12.5315 16.9848 12.5745 16.9379 12.6174C16.7953 12.7522 16.6527 12.887 16.5102 13.0217C16.3656 13.1565 16.223 13.2913 16.0805 13.428C16.0258 13.4788 15.9711 13.5315 15.9164 13.5842C15.809 13.6858 15.6996 13.7913 15.5883 13.8909C15.5297 13.9436 15.475 13.9944 15.4144 14.0452C15.4086 14.051 15.4008 14.0549 15.3949 14.0608C15.391 14.0647 15.3871 14.0666 15.3812 14.0706C15.3773 14.0725 15.3734 14.0764 15.3695 14.0784L15.3676 14.0803C15.3305 14.1057 15.2973 14.1311 15.2602 14.1584C15.1273 14.2522 14.9867 14.3362 14.8383 14.4104C14.5844 14.5413 14.3051 14.635 13.9867 14.6995L13.8734 14.7209C13.8637 14.7229 13.8519 14.7248 13.8422 14.7268C13.8402 14.7268 13.8402 14.7268 13.8383 14.7268C13.8305 14.7268 13.8227 14.7288 13.8148 14.7307C13.7348 14.7405 13.6547 14.7463 13.5746 14.7522C13.4496 14.7581 13.3519 14.7581 13.2621 14.7541L13.0531 14.7463C12.8871 14.7424 12.7211 14.7366 12.5551 14.7307C12.3871 14.7248 12.2191 14.719 12.0512 14.7151C11.8812 14.7092 11.7133 14.7034 11.5434 14.6975C11.1293 14.6838 10.7035 14.6682 10.2816 14.6584C9.90273 14.6506 9.52382 14.7502 9.21132 14.9377C9.07656 15.0178 8.95547 15.1174 8.84023 15.2151L8.81875 15.2327C8.67617 15.3479 8.53359 15.4651 8.39101 15.5823C8.30312 15.6545 8.21523 15.7248 8.12929 15.7971C7.57656 15.2053 7.0082 14.5959 6.44375 13.9905L6.42031 13.9651C5.89687 13.4026 5.35781 12.8245 4.82265 12.2522C5.14492 11.928 5.47109 11.5998 5.79726 11.2756C5.82461 11.2483 5.85195 11.219 5.87929 11.1916C5.90664 11.1643 5.93203 11.137 5.95937 11.1096C6.13515 10.9436 6.45156 10.7659 6.65468 10.6916C6.98281 10.5686 7.27187 10.5041 7.56484 10.4924C7.73867 10.4846 7.90859 10.4905 8.06875 10.5081L8.09804 10.512C8.1 10.512 8.10195 10.512 8.1039 10.512C8.11171 10.5139 8.11953 10.5159 8.12734 10.5159C8.14687 10.5198 8.16836 10.5237 8.18789 10.5276C8.20742 10.5315 8.2289 10.5354 8.24648 10.5373C8.33632 10.5549 8.4164 10.5745 8.49648 10.5959C8.71328 10.6545 8.92812 10.7405 9.13515 10.8225C9.19179 10.8459 9.24843 10.8674 9.30312 10.8889C9.65468 11.0237 10.018 11.1643 10.3773 11.301C10.4164 11.3166 10.4555 11.3303 10.4945 11.3459C10.5512 11.3694 10.6098 11.3909 10.6684 11.4123C10.9164 11.5002 11.2133 11.5471 11.6039 11.5588C11.7777 11.5647 11.9555 11.5627 12.1254 11.5627C12.1937 11.5627 12.2641 11.5627 12.3324 11.5627H13.9262C13.9516 11.5627 13.9809 11.5647 14.0062 11.5666H14.0102C14.0199 11.5686 14.0297 11.5706 14.0414 11.5725C14.0687 11.5784 14.0961 11.5862 14.1234 11.5959L14.1312 11.5979C14.1391 11.5998 14.1449 11.6018 14.1527 11.6057C14.1527 11.6057 14.1527 11.6057 14.1547 11.6057C14.1566 11.6077 14.1586 11.6077 14.1605 11.6096L14.1918 11.6272C14.2152 11.6409 14.2387 11.6545 14.2621 11.6702C14.2641 11.6721 14.268 11.6741 14.2699 11.676L14.2855 11.6897C14.309 11.7112 14.3285 11.7307 14.35 11.7541C14.3559 11.7678 14.3637 11.7815 14.3715 11.7932C14.4223 11.8752 14.4398 11.9084 14.4594 12.0002C14.4672 12.0413 14.4711 12.1467 14.4672 12.176C14.4535 12.262 14.4359 12.3108 14.4027 12.3713C14.3891 12.3948 14.3734 12.4202 14.3539 12.4495C14.3519 12.4514 14.35 12.4534 14.35 12.4553C14.348 12.4573 14.3461 12.4592 14.3441 12.4612C14.3383 12.469 14.3285 12.4788 14.3227 12.4866C14.3187 12.4905 14.3148 12.4944 14.3129 12.4983C14.2992 12.512 14.2836 12.5276 14.2699 12.5393L14.2641 12.5432C14.2621 12.5452 14.2582 12.5471 14.2543 12.551C14.2504 12.5549 14.2465 12.5569 14.2426 12.5608C14.2211 12.5745 14.1977 12.5901 14.1723 12.6038H14.1703C14.1644 12.6077 14.1508 12.6135 14.141 12.6174C14.1312 12.6213 14.1234 12.6252 14.1176 12.6291C14.1137 12.6311 14.1098 12.6331 14.1059 12.635C14.0687 12.6487 14.0297 12.6584 14.0004 12.6643C13.9945 12.6643 13.9867 12.6663 13.9789 12.6682C13.975 12.6682 13.9691 12.6682 13.9652 12.6682H13.9613C13.9418 12.6682 13.9242 12.6682 13.9047 12.6702C13.85 12.6721 13.7934 12.6721 13.7387 12.6721C13.7016 12.6721 13.6664 12.6741 13.6273 12.6741C12.9262 12.6819 12.2152 12.678 11.5277 12.676H11.5219C11.4105 12.676 11.3012 12.6741 11.1898 12.6741C10.975 12.6741 10.7543 12.6721 10.5355 12.6682C10.4066 12.6663 10.2777 12.7229 10.182 12.8206C10.0902 12.9163 10.0434 13.0354 10.0492 13.1565C10.0629 13.426 10.2699 13.6311 10.5316 13.635H10.5492C11.2465 13.6389 11.9672 13.6448 12.6762 13.6448C13.0394 13.6448 13.4066 13.6428 13.7699 13.637C13.9848 13.635 14.2113 13.6252 14.4281 13.5393C14.6918 13.4358 14.9027 13.2873 15.057 13.0998C15.3793 12.7073 15.4906 12.217 15.3852 11.7581C15.7738 11.5373 16.1684 11.3108 16.559 11.0842C16.7719 10.9612 16.9281 10.7913 17.0805 10.6252C17.1059 10.5979 17.1312 10.5706 17.1566 10.5432C17.2816 10.4104 17.4047 10.2776 17.5297 10.1467C17.6527 10.0139 17.7777 9.88305 17.9008 9.75024C18.0102 9.63305 18.1176 9.52368 18.2191 9.42602C18.2719 9.37524 18.3227 9.32836 18.3734 9.28539L18.3812 9.27954C18.3891 9.27368 18.4008 9.26391 18.4105 9.2561C18.4164 9.25024 18.4223 9.24633 18.4281 9.24047C18.4535 9.22289 18.4789 9.20532 18.5043 9.18774L18.5258 9.17407C18.5512 9.15844 18.5766 9.14282 18.6019 9.12914L18.6078 9.12524C18.6137 9.12329 18.6234 9.11743 18.6312 9.11352C18.6391 9.10961 18.6469 9.10571 18.6527 9.1018C18.7269 9.07641 18.7953 9.05688 18.8578 9.04711H18.8598C18.8676 9.04711 18.8754 9.04516 18.8832 9.04516C18.8949 9.04516 18.9066 9.04321 18.9184 9.04321C18.9516 9.04125 18.9848 9.04125 19.016 9.04321H19.0219C19.0297 9.04321 19.0492 9.04516 19.0648 9.04711C19.0687 9.04711 19.0727 9.04711 19.0766 9.04711C19.0902 9.05102 19.1059 9.05493 19.1215 9.05883C19.1312 9.06078 19.141 9.06274 19.1508 9.06664L19.1742 9.07446C19.182 9.07836 19.1918 9.08227 19.1996 9.08813C19.2113 9.09399 19.2211 9.09985 19.2328 9.10571C19.2367 9.10766 19.2406 9.11157 19.2465 9.11547C19.2562 9.12133 19.266 9.12914 19.2738 9.13305C19.2777 9.135 19.2816 9.13696 19.2855 9.14086L19.3305 9.17993C19.3695 9.21508 19.4164 9.26 19.4574 9.30688C19.4691 9.33227 19.4848 9.35375 19.4965 9.36743L19.5023 9.37914C19.5062 9.38891 19.5102 9.40063 19.5121 9.41235L19.516 9.42211C19.5512 9.5061 19.5453 9.58227 19.5141 9.65453Z" fill="#747677"/>
<path d="M16.9277 4.14453C16.9258 4.14648 16.9258 4.14648 16.9258 4.14648C16.9258 4.14648 16.9297 4.14258 16.9355 4.13281C16.9336 4.13672 16.9316 4.14062 16.9277 4.14453Z" fill="#747677"/>
<path d="M16.9277 4.14453C16.9258 4.14648 16.9258 4.14648 16.9258 4.14648C16.9258 4.14648 16.9297 4.14258 16.9355 4.13281C16.9336 4.13672 16.9316 4.14062 16.9277 4.14453Z" fill="#747677"/>
<path d="M18.1834 2.56251C18.115 1.91212 17.8396 1.30274 17.406 0.835948C17.3904 0.812511 17.3709 0.791026 17.3513 0.771495C16.7244 0.152355 15.8416 -0.164052 14.992 -0.0722548C14.5291 -0.0214736 14.1111 0.115245 13.7478 0.333995C13.4724 0.501964 13.24 0.718761 13.0506 0.908214L12.906 1.05275C12.7361 0.876964 12.5584 0.703136 12.365 0.552745C11.6404 -0.0156142 10.6775 -0.218739 9.78885 0.00782328C8.93924 0.226573 8.22049 0.828136 7.86502 1.61915C7.53103 2.36524 7.50369 3.20704 7.79275 3.92579C7.95291 4.32423 8.199 4.68556 8.54275 5.02931L11.1678 7.65431C11.3201 7.80665 11.4744 7.9629 11.6228 8.11329C11.9197 8.41407 12.2283 8.72462 12.5369 9.02345L12.5584 9.04493C12.6463 9.13282 12.7713 9.1836 12.9002 9.1836C13.0291 9.1836 13.1541 9.13282 13.242 9.04493L16.8435 5.44337C16.9002 5.38673 16.9588 5.33009 17.0174 5.27149C17.2654 5.02931 17.5213 4.77931 17.7185 4.48439C18.0896 3.9297 18.2556 3.24806 18.1834 2.56251ZM16.9256 4.14649C16.9256 4.14454 16.9275 4.14454 16.9275 4.14454C16.9314 4.14064 16.9334 4.13673 16.9373 4.13478C16.9295 4.14064 16.9275 4.14454 16.9256 4.14649ZM17.242 2.94923C17.24 3.01954 17.2342 3.08009 17.2263 3.13478C17.2205 3.17579 17.2127 3.21876 17.2029 3.25978C17.1775 3.37696 17.1443 3.48829 17.1033 3.59571C17.1013 3.59962 17.0974 3.60939 17.0935 3.61915L17.0838 3.64259C17.0818 3.64454 17.0818 3.64845 17.0799 3.6504C17.0799 3.65235 17.0799 3.65235 17.0779 3.65431C17.074 3.66407 17.0681 3.67384 17.0642 3.68165L17.0623 3.68556C17.033 3.74806 16.9978 3.81446 16.9549 3.88478C16.9256 3.9336 16.8963 3.97657 16.8689 4.01564C16.865 4.02149 16.8572 4.02931 16.8455 4.04689C16.8396 4.0547 16.8338 4.06446 16.8279 4.07228C16.8123 4.09181 16.7967 4.10939 16.781 4.12696C16.742 4.17189 16.701 4.2129 16.6599 4.25392L16.656 4.25782C16.6424 4.27345 16.6267 4.28712 16.6111 4.30274C16.6013 4.31056 16.5935 4.32032 16.5857 4.32814L12.9041 8.01368L10.199 5.3086C10.0779 5.18751 9.95681 5.06642 9.83572 4.94728C9.59744 4.71095 9.3533 4.46876 9.11502 4.22462C8.98416 4.08985 8.94705 4.04493 8.84939 3.88087C8.80642 3.81056 8.77127 3.7461 8.74197 3.68165L8.74002 3.67774C8.73611 3.66798 8.73025 3.66017 8.72635 3.6504C8.72244 3.64454 8.72049 3.63673 8.71658 3.63087C8.71658 3.62892 8.71658 3.62892 8.71463 3.62696C8.71463 3.62501 8.71267 3.6211 8.71072 3.61915C8.699 3.58985 8.68728 3.55665 8.67556 3.5254L8.66775 3.50196C8.64236 3.42189 8.62283 3.35157 8.60916 3.28907C8.59939 3.2461 8.59158 3.20704 8.58377 3.16603C8.58181 3.14845 8.57986 3.13087 8.57596 3.1172C8.57596 3.11524 8.57596 3.11524 8.57596 3.11329C8.57596 3.11134 8.57596 3.10939 8.57596 3.10743C8.56033 2.92384 8.55838 2.77149 8.574 2.63282L8.58182 2.56837C8.58767 2.53321 8.59549 2.4961 8.60135 2.4629C8.61502 2.39454 8.63455 2.32032 8.66189 2.23439C8.67556 2.19142 8.68924 2.15235 8.70486 2.11134L8.70681 2.10353C8.70877 2.09767 8.71267 2.0879 8.71853 2.07814L8.72244 2.07032L8.72635 2.06056C8.75955 1.98829 8.79666 1.91798 8.83377 1.85353C8.87869 1.77735 8.92752 1.70704 8.97049 1.64649C8.97049 1.64649 8.97049 1.64454 8.97244 1.64454C8.9783 1.63673 8.98416 1.63087 8.99002 1.62306L9.0076 1.60353C9.03885 1.56642 9.07205 1.52931 9.10721 1.4922C9.24588 1.34962 9.34158 1.27149 9.49978 1.17189C9.77713 1.00196 10.1111 0.896495 10.4178 0.88087C10.5076 0.876964 10.5974 0.876964 10.6873 0.88087C10.7244 0.882823 10.7615 0.886729 10.8006 0.890636H10.8064C10.8357 0.894542 10.865 0.900401 10.8924 0.906261L10.8982 0.908214C10.9822 0.923839 11.0681 0.945323 11.156 0.97462C11.197 0.988292 11.2342 1.00196 11.2732 1.01564C11.2967 1.02735 11.3162 1.03517 11.3357 1.04103C11.3396 1.04298 11.3416 1.04298 11.3455 1.04493L11.3767 1.0586C11.6482 1.18751 11.8084 1.32228 11.9959 1.50978L12.5662 2.08009C12.7517 2.26564 13.0642 2.26564 13.2498 2.08009L13.6385 1.69142C13.6619 1.66798 13.6873 1.64259 13.7127 1.6172C13.8318 1.4961 13.9666 1.36134 14.0662 1.28321C14.0857 1.26759 14.1873 1.19923 14.2459 1.16407C14.326 1.11524 14.4099 1.07228 14.4822 1.03907C14.4842 1.03907 14.4861 1.03712 14.49 1.03712L14.4998 1.03321C14.5037 1.03126 14.5076 1.02931 14.5115 1.02931C14.5193 1.0254 14.5291 1.02149 14.5408 1.01759C14.572 1.00392 14.6111 0.992198 14.6541 0.978526C14.7263 0.955089 14.8045 0.935558 14.9021 0.914073C14.9334 0.908214 14.9646 0.902354 14.9959 0.896495C14.9998 0.896495 15.0037 0.896495 15.0076 0.896495L15.0349 0.894542C15.0506 0.892589 15.0681 0.890636 15.0779 0.890636H15.0838C15.1697 0.884776 15.2517 0.88087 15.3377 0.884776H15.3416C15.3806 0.884776 15.4236 0.886729 15.4627 0.890636C15.4685 0.890636 15.4783 0.892589 15.49 0.894542C15.5037 0.896495 15.5193 0.898448 15.533 0.898448C15.5408 0.898448 15.5486 0.900401 15.5545 0.900401C15.6365 0.914073 15.7088 0.929698 15.7752 0.947276C15.8553 0.966808 15.9431 0.996104 16.0447 1.03712C16.0506 1.03907 16.0603 1.04298 16.0662 1.04689C16.0662 1.04689 16.0681 1.04689 16.0701 1.04884C16.072 1.05079 16.074 1.05079 16.076 1.05275C16.0857 1.05665 16.0955 1.06251 16.1053 1.06642C16.1502 1.0879 16.197 1.11134 16.2478 1.14064C16.3318 1.18751 16.4099 1.23829 16.4803 1.29103L16.4842 1.29298C16.4842 1.29298 16.4842 1.29298 16.4861 1.29298C16.4978 1.30274 16.5095 1.31251 16.5232 1.32228C16.533 1.33009 16.5408 1.33595 16.5506 1.34376C16.5877 1.37892 16.6248 1.41407 16.6619 1.44923L16.6814 1.46681C16.7283 1.51368 16.7713 1.56056 16.8162 1.61524L16.8201 1.61915C16.826 1.62501 16.8377 1.64064 16.8455 1.65235C16.8513 1.66017 16.8572 1.66798 16.8631 1.67579C16.8689 1.68556 16.8767 1.69337 16.8826 1.70314C16.9529 1.80079 17.0174 1.91017 17.0799 2.03712L17.0838 2.04689C17.0877 2.05665 17.0935 2.06837 17.0994 2.07814C17.1013 2.08204 17.1033 2.0879 17.1053 2.09181L17.1306 2.15626C17.1482 2.20509 17.1658 2.25587 17.1795 2.30665V2.3086C17.197 2.3711 17.2127 2.4336 17.2244 2.4922C17.2263 2.50392 17.2283 2.51759 17.2303 2.53126C17.2322 2.54493 17.2342 2.55665 17.2361 2.57032C17.2381 2.58399 17.24 2.59767 17.242 2.60939V2.61134C17.24 2.71095 17.2478 2.83009 17.242 2.94923Z" fill="#747677"/>
</g>
<defs>
<clipPath id="clip0_795_6637">
<rect width="20" height="20" fill="white" transform="translate(0.5)"/>
</clipPath>
</defs>
</svg>
