<svg width="18" height="18" viewBox="0 0 18 18" fill="none" xmlns="http://www.w3.org/2000/svg">
<path d="M15.25 3.5835L14.7336 11.9377C14.6016 14.0722 14.5356 15.1394 14.0006 15.9067C13.7361 16.2861 13.3955 16.6062 13.0006 16.8468C12.2018 17.3335 11.1325 17.3335 8.99395 17.3335C6.8526 17.3335 5.78192 17.3335 4.98254 16.8459C4.58733 16.6049 4.24666 16.2842 3.98224 15.9042C3.4474 15.1357 3.38288 14.0669 3.25384 11.9295L2.75 3.5835" stroke="#FF3A3D" stroke-width="1.25" stroke-linecap="round"/>
<path d="M16.5 3.5835H1.5" stroke="#FF3A3D" stroke-width="1.25" stroke-linecap="round"/>
<path d="M12.3799 3.58341L11.811 2.40985C11.4331 1.6303 11.2442 1.24052 10.9183 0.99742C10.846 0.943498 10.7694 0.895533 10.6894 0.853999C10.3284 0.666748 9.89527 0.666748 9.02894 0.666748C8.14086 0.666748 7.69682 0.666748 7.3299 0.861848C7.24858 0.905088 7.17099 0.954994 7.09791 1.01105C6.7682 1.264 6.58402 1.66804 6.21567 2.47613L5.71094 3.58341" stroke="#FF3A3D" stroke-width="1.25" stroke-linecap="round"/>
<path d="M6.91602 12.75L6.91602 7.75" stroke="#FF3A3D" stroke-width="1.25" stroke-linecap="round"/>
<path d="M11.084 12.75L11.084 7.75" stroke="#FF3A3D" stroke-width="1.25" stroke-linecap="round"/>
</svg>
