<svg width="18" height="14" viewBox="0 0 18 14" fill="none" xmlns="http://www.w3.org/2000/svg">
<path d="M1.5 3.46655L8.075 7.84989C8.34888 8.03262 8.67075 8.13014 9 8.13014C9.32925 8.13014 9.65112 8.03262 9.925 7.84989L16.5 3.46655M3.16667 12.6332H14.8333C15.2754 12.6332 15.6993 12.4576 16.0118 12.1451C16.3244 11.8325 16.5 11.4086 16.5 10.9666V2.63322C16.5 2.19119 16.3244 1.76727 16.0118 1.45471C15.6993 1.14215 15.2754 0.966553 14.8333 0.966553H3.16667C2.72464 0.966553 2.30072 1.14215 1.98816 1.45471C1.67559 1.76727 1.5 2.19119 1.5 2.63322V10.9666C1.5 11.4086 1.67559 11.8325 1.98816 12.1451C2.30072 12.4576 2.72464 12.6332 3.16667 12.6332Z" stroke="#93268F" stroke-width="1.5" stroke-linecap="round" stroke-linejoin="round"/>
</svg>
