<svg width="21" height="20" viewBox="0 0 21 20" fill="none" xmlns="http://www.w3.org/2000/svg">
<g clip-path="url(#clip0_795_6657)">
<path fill-rule="evenodd" clip-rule="evenodd" d="M9.21484 8.07861V8.99663V8.08461C9.21484 8.08204 9.21484 8.08033 9.21484 8.07861ZM11.014 8.16261V9.22892C11.014 9.22806 11.014 9.22634 11.014 9.22549V8.15747C11.014 8.15919 11.014 8.1609 11.014 8.16261Z" fill="#747677"/>
<path d="M14.9592 9.56657V8.36313C14.9592 7.62769 14.3609 7.02939 13.6254 7.02939C13.4386 7.02939 13.2543 7.06882 13.0846 7.14425C13.0177 6.88539 12.8737 6.65139 12.6697 6.4731C12.4263 6.26053 12.1151 6.14395 11.7929 6.14395C11.6137 6.14395 11.4371 6.17995 11.2734 6.24938C11.162 5.62195 10.6125 5.15137 9.96025 5.15137C9.63796 5.15137 9.32682 5.26794 9.08338 5.48051C8.87938 5.6588 8.73538 5.89281 8.66852 6.15167C8.4988 6.07624 8.31452 6.03681 8.12766 6.03681C7.39222 6.03681 6.79392 6.6351 6.79392 7.37054V8.51999C6.59678 8.54742 6.4142 8.63999 6.27277 8.78485C6.10648 8.95542 6.01562 9.18 6.01562 9.41657V12.4955C6.01648 12.5358 6.03191 12.9018 6.29506 13.4006C6.44592 13.6861 6.64992 13.9612 6.90192 14.2184C7.20021 14.5226 7.56622 14.8021 7.99137 15.0507V16.2172H7.63651C7.40593 16.2172 7.21907 16.4041 7.21907 16.6347V19.6596C7.21907 19.8902 7.40593 20.077 7.63651 20.077H13.3374C13.568 20.077 13.7549 19.8902 13.7549 19.6596V16.6347C13.7549 16.4041 13.568 16.2172 13.3374 16.2172H12.9834V15.0507C13.4086 14.8021 13.7746 14.5226 14.0729 14.2184C14.324 13.9612 14.5289 13.6861 14.6797 13.3998C14.9429 12.9018 14.9583 12.5298 14.96 12.4886V9.57429C14.9592 9.57172 14.9592 9.56914 14.9592 9.56657ZM13.1266 8.36313V8.35627C13.13 8.08455 13.3537 7.86341 13.6254 7.86341C13.9006 7.86341 14.1243 8.08712 14.1243 8.36227V9.88972C14.1243 10.1649 13.9006 10.3886 13.6254 10.3886C13.3503 10.3886 13.1266 10.1649 13.1266 9.88972V8.36313ZM11.294 7.47769V7.47083C11.2974 7.20254 11.5151 6.98396 11.7817 6.97882H11.7929C12.068 6.97882 12.2917 7.20254 12.2917 7.47769V9.00514V9.01199C12.2883 9.28371 12.0646 9.504 11.7929 9.504C11.5177 9.504 11.294 9.28028 11.294 9.00514V7.47769ZM9.46139 6.48424C9.46139 6.2091 9.68511 5.98538 9.96025 5.98538C10.2354 5.98538 10.4591 6.2091 10.4591 6.48424V8.51056H9.46139V6.48424ZM7.62879 7.37054C7.62879 7.0954 7.85251 6.87168 8.12766 6.87168C8.39937 6.87168 8.62309 7.09282 8.62652 7.36454V8.51142H7.62879V7.37054ZM8.05394 19.243V17.053H12.92V19.243H8.05394ZM13.8852 13.1178C13.7823 13.2892 13.6237 13.5018 13.3803 13.7298C13.1369 13.9586 12.8094 14.2029 12.3689 14.4378C12.2326 14.5106 12.1477 14.6512 12.1477 14.8055V16.2181H8.82624V14.8055C8.82624 14.6512 8.74138 14.5106 8.60509 14.4378C7.72565 13.9681 7.29536 13.4615 7.08964 13.1195C6.87707 12.7663 6.85307 12.5135 6.85049 12.4835V9.41743C6.85049 9.38057 6.88478 9.34628 6.92164 9.34628H10.3957C10.2148 9.92229 9.67311 10.3286 9.05938 10.3286H8.14308C7.91251 10.3286 7.72565 10.5154 7.72565 10.746C7.72565 10.9766 7.91251 11.1635 8.14308 11.1635H8.80652C9.08767 11.3332 9.71939 11.7592 10.1317 12.3712C10.1051 12.4938 10.0983 12.6232 10.1094 12.756V13.6141C10.1094 13.8078 10.2423 13.9715 10.4214 14.0178V14.0315H10.5268C10.7574 14.0315 10.9443 13.8438 10.9443 13.6141V12.7363C10.9443 12.7218 10.9434 12.7072 10.9417 12.6926C10.9331 12.6138 10.9408 12.5469 10.9648 12.4895L10.9657 12.4869C10.9674 12.4835 10.9691 12.4792 10.9708 12.4758L10.976 12.4655C10.9888 12.4398 11.006 12.4158 11.0266 12.3926C11.2674 12.1175 11.9 12.0403 12.1014 12.0352C12.3311 12.0292 12.5137 11.838 12.5086 11.6083C12.5034 11.3837 12.3166 11.2003 12.0911 11.2003H12.0817C11.9866 11.2029 11.1757 11.2329 10.6228 11.6375C10.436 11.406 10.2157 11.1832 9.9654 10.9732C10.3905 10.7846 10.7437 10.4692 10.982 10.0672C11.2134 10.2446 11.4963 10.3414 11.7911 10.3414C11.978 10.3414 12.1623 10.302 12.332 10.2266C12.3989 10.4854 12.5429 10.7194 12.7469 10.8977C12.9894 11.1103 13.3014 11.2269 13.6237 11.2269C13.7952 11.2269 13.9649 11.1935 14.1226 11.13V12.4758C14.1235 12.5006 14.102 12.7569 13.8852 13.1178Z" fill="#747677"/>
<path fill-rule="evenodd" clip-rule="evenodd" d="M9.34075 10.3278H9.36475C9.35703 10.3269 9.34846 10.3269 9.34075 10.3278Z" fill="#747677"/>
<path fill-rule="evenodd" clip-rule="evenodd" d="M10.4865 4.04589C10.3717 4.04589 10.2663 3.98246 10.2123 3.88217L9.65768 2.85273L8.62823 2.29815C8.52709 2.24415 8.46452 2.13786 8.46452 2.02386C8.46452 1.909 8.52795 1.80357 8.62823 1.74957L9.65768 1.19499L10.2123 0.16555C10.2663 0.064406 10.3725 0.000976562 10.4865 0.000976562C10.6014 0.000976562 10.7068 0.064406 10.7617 0.164693L11.3163 1.19414L12.3457 1.74872C12.4469 1.80272 12.5094 1.909 12.5094 2.02301C12.5094 2.13786 12.446 2.24329 12.3457 2.29729L11.3154 2.85273L10.7608 3.88217C10.7068 3.98332 10.6014 4.04589 10.4865 4.04589ZM3.02587 13.8072C2.91101 13.8072 2.80558 13.7437 2.75158 13.6426L2.31443 12.8317L1.50356 12.3954C1.40242 12.3414 1.33984 12.2352 1.33984 12.1211C1.33984 12.0071 1.40327 11.9009 1.50356 11.8469L2.31443 11.4097L2.75158 10.5988C2.80558 10.4977 2.91187 10.4343 3.02587 10.4343C3.13987 10.4343 3.24616 10.4977 3.30016 10.5988L3.73645 11.4097L4.54732 11.8469C4.64846 11.9009 4.71103 12.0071 4.71103 12.1211C4.71103 12.236 4.64761 12.3414 4.54732 12.3954L3.73645 12.8317L3.30016 13.6426C3.24616 13.7446 3.14073 13.8072 3.02587 13.8072ZM18.0407 13.8072C17.9258 13.8072 17.8204 13.7437 17.7664 13.6426L17.3301 12.8317L16.5192 12.3954C16.4181 12.3414 16.3555 12.2352 16.3555 12.1211C16.3555 12.0071 16.4189 11.9009 16.5192 11.8469L17.3301 11.4097L17.7664 10.5988C17.8204 10.4977 17.9267 10.4343 18.0407 10.4343C18.1555 10.4343 18.2609 10.4977 18.3149 10.5988L18.7512 11.4097L19.5621 11.8469C19.6632 11.9009 19.7258 12.0071 19.7258 12.1211C19.7258 12.236 19.6624 12.3414 19.5621 12.3954L18.7512 12.8317L18.3149 13.6426C18.2609 13.7446 18.1555 13.8072 18.0407 13.8072ZM3.87617 6.97908C3.76131 6.97908 3.65588 6.91565 3.60188 6.81536L3.16558 6.00449L2.35472 5.5682C2.25357 5.5142 2.191 5.40791 2.191 5.29391C2.191 5.17905 2.25443 5.07362 2.35557 5.01962L3.16644 4.58333L3.60273 3.77246C3.65673 3.67131 3.76302 3.60874 3.87702 3.60874C3.99188 3.60874 4.09731 3.67217 4.15131 3.77246L4.58846 4.58333L5.39933 5.01962C5.50047 5.07362 5.5639 5.17991 5.5639 5.29391C5.5639 5.40877 5.50047 5.5142 5.40019 5.5682L4.58932 6.00449L4.15131 6.8145C4.09731 6.91565 3.99188 6.97908 3.87617 6.97908ZM16.8929 6.97908C16.7781 6.97908 16.6726 6.91565 16.6186 6.81536L16.1823 6.00449L15.3715 5.5682C15.2703 5.5142 15.2078 5.40791 15.2078 5.29391C15.2078 5.17905 15.2712 5.07362 15.3715 5.01962L16.1823 4.58333L16.6186 3.77246C16.6726 3.67131 16.7789 3.60874 16.8929 3.60874C17.0078 3.60874 17.1132 3.67217 17.1672 3.77246L17.6035 4.58333L18.4144 5.01962C18.5155 5.07362 18.5781 5.17991 18.5781 5.29391C18.5781 5.40877 18.5147 5.5142 18.4144 5.5682L17.6035 6.00449L17.1672 6.81536C17.1132 6.91565 17.0069 6.97908 16.8929 6.97908Z" fill="#747677"/>
</g>
<defs>
<clipPath id="clip0_795_6657">
<rect width="20" height="20" fill="white" transform="translate(0.5)"/>
</clipPath>
</defs>
</svg>
