<svg width="14" height="19" viewBox="0 0 14 19" fill="none" xmlns="http://www.w3.org/2000/svg">
<path fill-rule="evenodd" clip-rule="evenodd" d="M2.15282 8.41075C1.33802 8.41075 1.16797 8.57063 1.16797 9.33668L1.16797 10.7256C1.16797 11.4916 1.33802 11.6515 2.15282 11.6515H4.12251L4.12251 17.2071C4.12251 17.9731 4.29256 18.133 5.10736 18.133H7.07706C7.89186 18.133 8.06191 17.9731 8.06191 17.2071V11.6515H10.2736C10.8915 11.6515 11.0508 11.5386 11.2205 10.9799L11.6426 9.59105C11.9334 8.63411 11.7542 8.41075 10.6957 8.41075L8.06191 8.41075L8.06191 6.09594C8.06191 5.58456 8.50284 5.17001 9.04676 5.17001L11.8498 5.17001C12.6646 5.17001 12.8346 5.01014 12.8346 4.24409V2.39223C12.8346 1.62618 12.6646 1.46631 11.8498 1.46631L9.04676 1.46631C6.32717 1.46631 4.12251 3.53906 4.12251 6.09594V8.41075H2.15282Z" stroke="#93268F" stroke-width="1.5" stroke-linejoin="round"/>
</svg>
