<svg width="18" height="18" viewBox="0 0 18 18" fill="none" xmlns="http://www.w3.org/2000/svg">
<path d="M1.08594 9.00004C1.08594 5.26809 1.08594 3.40211 2.24531 2.24274C3.40468 1.08337 5.27065 1.08337 9.0026 1.08337C12.7346 1.08337 14.6005 1.08337 15.7599 2.24274C16.9193 3.40211 16.9193 5.26809 16.9193 9.00004C16.9193 12.732 16.9193 14.598 15.7599 15.7573C14.6005 16.9167 12.7346 16.9167 9.0026 16.9167C5.27065 16.9167 3.40468 16.9167 2.24531 15.7573C1.08594 14.598 1.08594 12.732 1.08594 9.00004Z" stroke="#1E232C" stroke-width="1.5"/>
<circle cx="12.75" cy="5.25" r="1.25" stroke="#1E232C" stroke-width="1.5"/>
<path d="M0.667969 10.7796C1.2235 10.7047 1.78513 10.6677 2.34771 10.669C4.72766 10.6223 7.04931 11.3109 8.89842 12.6119C10.6134 13.8185 11.8184 15.4791 12.3346 17.3334" stroke="#1E232C" stroke-width="1.5" stroke-linejoin="round"/>
<path d="M9.83594 14C11.2539 12.8945 12.7813 12.3273 14.3245 12.3334C15.1995 12.3325 16.0703 12.5181 16.9193 12.8848" stroke="#1E232C" stroke-width="1.5" stroke-linejoin="round"/>
</svg>
