<svg width="18" height="18" viewBox="0 0 18 18" fill="none" xmlns="http://www.w3.org/2000/svg">
<path d="M1.08203 8.79997C1.08203 5.06801 1.08203 3.20204 2.2414 2.04267C3.40077 0.883301 5.26675 0.883301 8.9987 0.883301C12.7306 0.883301 14.5966 0.883301 15.756 2.04267C16.9154 3.20204 16.9154 5.06801 16.9154 8.79997C16.9154 12.5319 16.9154 14.3979 15.756 15.5573C14.5966 16.7166 12.7306 16.7166 8.9987 16.7166C5.26675 16.7166 3.40077 16.7166 2.2414 15.5573C1.08203 14.3979 1.08203 12.5319 1.08203 8.79997Z" stroke="#93268F" stroke-width="1.5" stroke-linejoin="round"/>
<path d="M12.75 8.7998C12.75 10.8709 11.0711 12.5498 9 12.5498C6.92893 12.5498 5.25 10.8709 5.25 8.7998C5.25 6.72874 6.92893 5.0498 9 5.0498C11.0711 5.0498 12.75 6.72874 12.75 8.7998Z" stroke="#93268F" stroke-width="1.5"/>
<path d="M13.5898 4.21655L13.5824 4.21655" stroke="#93268F" stroke-width="2" stroke-linecap="round" stroke-linejoin="round"/>
</svg>
