<svg width="8" height="9" viewBox="0 0 8 9" fill="none" xmlns="http://www.w3.org/2000/svg">
<g clip-path="url(#clip0_795_5283)">
<path d="M4 4.89063C3.75277 4.89063 3.5111 4.81731 3.30554 4.67996C3.09998 4.54261 2.93976 4.34739 2.84515 4.11898C2.75054 3.89057 2.72579 3.63924 2.77402 3.39676C2.82225 3.15429 2.9413 2.93156 3.11612 2.75674C3.29093 2.58193 3.51366 2.46288 3.75614 2.41464C3.99861 2.36641 4.24995 2.39117 4.47835 2.48578C4.70676 2.58039 4.90199 2.7406 5.03934 2.94616C5.17669 3.15172 5.25 3.3934 5.25 3.64063C5.2496 3.97202 5.11778 4.28974 4.88345 4.52407C4.64911 4.75841 4.3314 4.89023 4 4.89063ZM4 2.89063C3.85166 2.89063 3.70666 2.93461 3.58332 3.01702C3.45999 3.09943 3.36386 3.21657 3.30709 3.35361C3.25033 3.49066 3.23547 3.64146 3.26441 3.78694C3.29335 3.93243 3.36478 4.06607 3.46967 4.17096C3.57456 4.27585 3.7082 4.34728 3.85368 4.37621C3.99917 4.40515 4.14997 4.3903 4.28701 4.33354C4.42406 4.27677 4.54119 4.18064 4.6236 4.0573C4.70601 3.93397 4.75 3.78896 4.75 3.64063C4.7498 3.44177 4.67072 3.25112 4.53011 3.11051C4.3895 2.96991 4.19885 2.89082 4 2.89063Z" fill="#1E232C"/>
<path d="M4 7.89062L1.891 5.40338C1.8617 5.36603 1.8327 5.32844 1.804 5.29063C1.44375 4.81607 1.24913 4.23643 1.25 3.64062C1.25 2.91128 1.53973 2.21181 2.05546 1.69608C2.57118 1.18036 3.27066 0.890625 4 0.890625C4.72935 0.890625 5.42882 1.18036 5.94455 1.69608C6.46027 2.21181 6.75 2.91128 6.75 3.64062C6.75088 4.23616 6.55635 4.81554 6.19625 5.28988L6.196 5.29063C6.196 5.29063 6.121 5.38913 6.10975 5.40238L4 7.89062ZM2.203 4.98938C2.2035 4.98938 2.2615 5.06637 2.27475 5.08287L4 7.11763L5.7275 5.08012C5.7385 5.06637 5.797 4.98887 5.79725 4.98863C6.09154 4.6009 6.25058 4.12738 6.25 3.64062C6.25 3.04389 6.01295 2.47159 5.59099 2.04963C5.16904 1.62768 4.59674 1.39062 4 1.39062C3.40327 1.39062 2.83097 1.62768 2.40901 2.04963C1.98706 2.47159 1.75 3.04389 1.75 3.64062C1.74948 4.12768 1.90845 4.60148 2.203 4.98938Z" fill="#1E232C"/>
</g>
<defs>
<clipPath id="clip0_795_5283">
<rect width="8" height="8" fill="white" transform="translate(0 0.390625)"/>
</clipPath>
</defs>
</svg>
