<svg width="16" height="16" viewBox="0 0 16 16" fill="none" xmlns="http://www.w3.org/2000/svg">
<path d="M2.64062 5.61872L7.33705 8.74968C7.53268 8.8802 7.76259 8.94985 7.99777 8.94985C8.23294 8.94985 8.46285 8.8802 8.65848 8.74968L13.3549 5.61872M3.8311 12.1663H12.1644C12.4802 12.1663 12.783 12.0409 13.0062 11.8177C13.2295 11.5944 13.3549 11.2916 13.3549 10.9759V5.02348C13.3549 4.70775 13.2295 4.40495 13.0062 4.18169C12.783 3.95843 12.4802 3.83301 12.1644 3.83301H3.8311C3.51537 3.83301 3.21256 3.95843 2.98931 4.18169C2.76605 4.40495 2.64063 4.70775 2.64062 5.02348V10.9759C2.64063 11.2916 2.76605 11.5944 2.98931 11.8177C3.21256 12.0409 3.51537 12.1663 3.8311 12.1663Z" stroke="white" stroke-width="1.07143" stroke-linecap="round" stroke-linejoin="round"/>
</svg>
