<svg width="21" height="20" viewBox="0 0 21 20" fill="none" xmlns="http://www.w3.org/2000/svg">
<g clip-path="url(#clip0_795_6646)">
<path d="M14 8.62502H14.1875C14.375 8.62502 14.5781 8.65627 14.7812 8.68752L14.9219 8.71877L15.3437 6.71877L15.375 6.70314C15.8437 6.50002 16.2031 6.73439 16.875 7.28127C17.3438 7.65627 17.9219 8.14064 18.6406 8.14064C18.9531 8.14064 19.25 8.04689 19.5156 7.89064C19.6875 7.79689 19.8125 7.62502 19.8594 7.43752L20.4062 4.89064C20.4375 4.70314 20.375 4.53127 20.2187 4.42189C20.0625 4.31252 19.875 4.31252 19.7188 4.40627C19.1562 4.76564 18.7812 4.54689 18.0312 3.93752C17.5469 3.54689 16.9531 3.06252 16.2187 3.07814H16.1406V3.00002C16.1406 2.78127 15.9844 2.59377 15.7813 2.54689C15.5313 2.50002 15.2969 2.65627 15.2344 2.89064L14 8.62502ZM18.625 7.21877C18.2812 7.21877 17.9531 6.98439 17.4531 6.56252C16.9844 6.18752 16.4063 5.70314 15.7031 5.70314H15.5625L15.9219 4.06252L15.9531 4.04689C16.4219 3.84377 16.7812 4.07814 17.4531 4.62502C17.9531 5.03127 18.5312 5.50002 19.25 5.48439H19.3437L18.9844 7.14064L18.9531 7.15627C18.8437 7.20314 18.7344 7.21877 18.625 7.21877Z" fill="#747677"/>
<path d="M5.29742 6.62505C5.40679 6.62505 5.50054 6.64068 5.62554 6.68755L5.65679 6.7188L6.09429 8.7188L6.23492 8.68755C6.43804 8.6563 6.64117 8.62505 6.82867 8.62505H7.01617L5.76617 2.87505C5.73492 2.76568 5.67242 2.6563 5.56304 2.5938C5.45367 2.5313 5.34429 2.50005 5.21929 2.5313C5.00054 2.57818 4.85992 2.76568 4.85992 2.98443V3.06255H4.78179C4.04742 3.0313 3.45367 3.5313 2.96929 3.92193C2.20367 4.54693 1.84429 4.76568 1.28179 4.39068C1.17242 4.32818 1.06304 4.29693 0.938041 4.32818C0.813041 4.35943 0.719291 4.43755 0.656791 4.5313C0.594291 4.64068 0.563041 4.75005 0.594291 4.87505L1.14117 7.42193C1.18804 7.60943 1.29742 7.7813 1.46929 7.87505C1.73492 8.0313 2.04742 8.12505 2.35992 8.12505C3.06304 8.12505 3.65679 7.6563 4.10992 7.26568C4.62554 6.85943 4.96929 6.62505 5.29742 6.62505ZM2.37554 7.2188C2.26617 7.2188 2.17242 7.20318 2.04742 7.1563L2.01617 7.14068L1.65679 5.48443H1.75054C2.46929 5.50005 3.06304 5.01568 3.54742 4.62505C4.21929 4.07818 4.57867 3.8438 5.04742 4.04693L5.07867 4.06255L5.43804 5.7188H5.34429C4.60992 5.70318 4.01617 6.18755 3.54742 6.57818C3.03179 6.98443 2.70367 7.2188 2.37554 7.2188Z" fill="#747677"/>
<path d="M6.95312 8.9375C4.875 8.9375 3.17188 10.6719 3.17188 12.8125V17.3281C3.17188 17.9219 3.65625 18.3906 4.23437 18.3906H16.75C17.3438 18.3906 17.8125 17.9063 17.8125 17.3281V12.8125C17.8125 10.6719 16.125 8.9375 14.0312 8.9375H13.1875L13.1719 8.875C13.1562 8.75 13.1562 8.60938 13.1562 8.48438V8.46875L13.1719 8.45313C13.5938 7.85938 13.8281 7.10938 13.8281 6.375V3.75C13.8438 2.57813 12.9062 1.625 11.75 1.60938H9.21875C8.0625 1.625 7.125 2.59375 7.14062 3.76563V6.375C7.14062 7.10938 7.375 7.84375 7.79688 8.45313L7.8125 8.46875V8.48438C7.8125 8.60938 7.8125 8.73438 7.79688 8.875V8.9375H6.95312ZM16.7656 17.4844H4.23437C4.15625 17.4844 4.07812 17.4063 4.07812 17.3281V12.8125C4.07812 11.1719 5.35938 9.84375 6.9375 9.84375H7.79688L9.8125 12.5938L9.67188 12.6094C9.26562 12.6406 8.95312 12.9688 8.95312 13.375V15.5156C8.95312 15.9375 9.29688 16.2812 9.71875 16.2812H11.25C11.6719 16.2812 12.0156 15.9375 12.0156 15.5156V13.3594C12.0156 12.9531 11.7031 12.625 11.2969 12.5938L11.1562 12.5781L13.1875 9.84375H14.0469C15.625 9.84375 16.9062 11.1719 16.9062 12.8125V17.3281C16.9062 17.4063 16.8438 17.4844 16.7656 17.4844ZM11.1094 15.3438H9.89062V13.5156H11.1094V15.3438ZM10.5 11.9531L8.40625 9.125L8.75 9.34375C9.8125 10.0156 11.1719 10.0156 12.2344 9.34375L12.5781 9.125L10.5 11.9531ZM10.5 8.9375C9.15625 8.9375 8.0625 7.78125 8.0625 6.35938V3.75C8.04688 3.09375 8.5625 2.53125 9.23438 2.51563H11.7812C12.4375 2.53125 12.9688 3.07813 12.9531 3.75V6.35938C12.9375 7.78125 11.8438 8.9375 10.5 8.9375Z" fill="#747677"/>
</g>
<defs>
<clipPath id="clip0_795_6646">
<rect width="20" height="20" fill="white" transform="translate(0.5)"/>
</clipPath>
</defs>
</svg>
