<svg width="21" height="20" viewBox="0 0 21 20" fill="none" xmlns="http://www.w3.org/2000/svg">
<path d="M2.9983 6.45024L17.1983 1.71899C17.4185 1.64554 17.6549 1.63488 17.8809 1.6882C18.1068 1.74153 18.3135 1.85673 18.4776 2.0209C18.6418 2.18507 18.757 2.39172 18.8103 2.61768C18.8637 2.84364 18.853 3.07999 18.7795 3.30024L14.0483 17.5002C13.9644 17.7485 13.8047 17.9642 13.5916 18.1167C13.3785 18.2692 13.1229 18.3509 12.8608 18.3502C12.5962 18.3457 12.3399 18.2574 12.1287 18.0979C11.9176 17.9384 11.7625 17.716 11.6858 17.4627L9.9858 11.8002C9.89629 11.5052 9.73539 11.2367 9.51736 11.0187C9.29932 10.8006 9.03087 10.6397 8.7358 10.5502L3.0733 8.85024C2.81096 8.783 2.57754 8.63239 2.40818 8.42106C2.23882 8.20972 2.14268 7.9491 2.13422 7.67841C2.12576 7.40772 2.20545 7.14161 2.36128 6.92011C2.51711 6.69861 2.74067 6.53372 2.9983 6.45024ZM9.0608 9.33774C9.5557 9.48641 10.006 9.7555 10.3714 10.1209C10.7368 10.4863 11.0059 10.9366 11.1545 11.4315L12.8608 17.094L17.592 2.90649L3.40455 7.63774L9.0608 9.33774Z" fill="#747677"/>
</svg>
