<svg width="30" height="81" viewBox="0 0 30 81" fill="none" xmlns="http://www.w3.org/2000/svg">
<path d="M5.14062 21.2997C5.14605 20.5408 5.15148 19.7818 5.1569 19.0232C6.0359 18.3947 7.05985 17.9662 8.12798 17.7793C8.19813 18.478 8.30084 19.1733 8.43648 19.862C8.36944 19.4027 8.0183 18.9964 7.57105 18.859C7.12341 18.7217 6.60175 18.8605 6.28433 19.202C5.86809 19.649 5.84096 20.3205 5.86499 20.9283C5.68593 20.7675 5.42316 20.7038 5.14101 21.2997H5.14062Z" fill="url(#paint0_linear_269_19203)"/>
<path d="M17.7886 34.3965C17.961 35.7505 18.3839 37.1015 18.2033 38.4544C17.9413 40.4216 16.4887 41.956 14.957 43.2932C14.721 43.4996 14.483 43.7011 14.247 43.8987C12.2615 44.4009 10.2008 44.6116 8.15331 44.521C7.72272 44.5018 7.26694 44.4604 6.92007 44.2064C6.52941 43.9202 6.3643 43.4279 6.2209 42.9674C6.16393 42.7844 6.10696 42.601 6.04999 42.4176C5.29346 39.9808 4.56173 37.527 4.22068 35.0015C3.9052 32.6679 3.92845 30.3013 4.06061 27.9504C4.12262 26.8423 4.20905 25.7349 4.31912 24.6303C4.45554 23.2601 4.62917 21.8941 4.83884 20.5332C5.91395 19.9757 6.98828 19.4178 8.06339 18.8603C9.59544 18.0652 11.1275 17.2706 12.6591 16.4756C15.3004 17.3197 17.0913 19.1768 17.8211 21.2603C18.5509 23.3437 18.4122 25.619 18.1498 27.8092C17.8878 29.9985 17.5095 32.2079 17.7878 34.3961L17.7886 34.3965Z" fill="url(#paint1_linear_269_19203)"/>
<path style="mix-blend-mode:multiply" d="M15.147 42.3439C15.0974 42.6585 15.0357 42.9773 14.9578 43.2939C14.7218 43.5003 14.4838 43.7018 14.2478 43.8994C12.2623 44.4016 10.2016 44.6123 8.15411 44.5217C7.72353 44.5025 7.26775 44.4611 6.92088 44.2071C6.53021 43.9208 6.36511 43.4286 6.22171 42.9681C6.16474 42.7851 6.10777 42.6017 6.05079 42.4183C6.22287 42.0814 6.37402 41.7361 6.49029 41.3781C7.07319 39.5843 6.73368 37.6398 6.38991 35.7861C5.70005 32.0677 5.01057 28.3497 4.32031 24.6313C4.45674 23.2612 4.63036 21.8952 4.84004 20.5342C5.91515 19.9767 6.98948 19.4188 8.06459 18.8613C8.50292 19.0881 8.92266 19.3797 9.30053 19.7216C10.7256 21.01 11.5004 22.8422 12.1863 24.6283C14.3594 30.2885 16.0922 36.3613 15.1466 42.3435L15.147 42.3439Z" fill="url(#paint2_linear_269_19203)"/>
<path d="M10.4531 15.1641C13.2393 14.5436 16.1678 14.7965 18.9296 15.5155C18.7509 16.2189 18.4889 16.9034 17.9777 17.4229C17.3952 18.0149 16.5189 18.2075 15.6888 18.2946C14.6005 18.409 13.4494 18.3779 12.4836 17.8684C11.5178 17.3588 10.8732 16.1164 10.4531 15.1641Z" fill="url(#paint3_linear_269_19203)"/>
<path d="M29.1079 33.6444C29.1079 33.6444 27.9843 34.0077 26.6755 34.2422C24.9877 34.5445 22.9929 34.632 22.7088 33.446C22.4414 32.331 21.6569 30.0783 21.3891 28.9629C20.7407 26.2598 21.0415 23.4005 22.0557 21.0645C22.2883 20.527 22.5596 20.0174 22.8658 19.5439C24.9826 21.6397 28.2475 29.357 29.1083 33.6444H29.1079Z" fill="url(#paint4_linear_269_19203)"/>
<path style="mix-blend-mode:multiply" d="M26.6755 34.2421C24.9877 34.5444 22.9929 34.6319 22.7088 33.4459C22.4414 32.3309 21.6569 30.0782 21.3891 28.9628C20.7407 26.2597 21.0415 23.4004 22.0557 21.0645C23.4262 25.508 26.3461 29.5295 26.6709 34.1634C26.6728 34.1891 26.6744 34.2156 26.6759 34.2421H26.6755Z" fill="url(#paint5_linear_269_19203)"/>
<path d="M11.8113 17.7079C11.8698 17.805 11.9818 17.8169 12.0791 17.8192C14.2316 17.8775 15.5587 25.4713 18.4976 17.0779C18.2154 16.8055 18.1181 16.3428 18.0507 15.9007C18.0449 15.8635 18.0391 15.8278 18.034 15.7914C17.6852 13.3768 17.3357 10.9622 16.9868 8.54799C16.0838 8.07758 14.6293 6.98942 13.1065 6.07891C12.9372 5.978 12.7624 5.87402 12.6046 5.74663C12.4512 5.62346 12.9376 7.08343 12.7298 7.14098C12.5341 7.19546 12.238 5.69023 12.2496 5.89128C12.4287 8.90176 12.5729 11.9583 12.219 14.9185C12.1213 15.7346 11.9865 16.5438 11.8035 17.3423C11.7756 17.4643 11.7497 17.607 11.8109 17.7083L11.8113 17.7079Z" fill="url(#paint6_linear_269_19203)"/>
<path style="mix-blend-mode:multiply" d="M12.8197 14.3505C13.6065 14.9594 15.1451 17.1695 16.0683 17.0712C16.8109 16.9926 17.8414 14.972 17.8364 14.9356C17.4876 12.521 17.336 10.962 16.9872 8.54745C16.0842 8.07704 14.6297 6.98888 13.1069 6.07837C12.9375 5.97746 12.7627 5.87348 12.605 5.74609C12.4845 5.78561 12.3655 5.83319 12.25 5.89113C12.25 11.2222 12.8197 14.3512 12.8197 14.3512V14.3505Z" fill="url(#paint7_linear_269_19203)"/>
<path d="M13.1821 72.8125C12.5593 73.4893 12.0229 74.2437 11.5117 75.059C11.7757 76.5347 12.145 77.6167 12.9031 78.914C13.1546 79.3449 13.8507 80.5854 16.1602 79.935C14.6967 78.3983 13.9336 75.729 14.2402 73.6394C13.8057 73.3359 13.3716 73.0327 13.1821 72.8129V72.8125Z" fill="url(#paint8_linear_269_19203)"/>
<path d="M14.0742 75.2607C14.4788 76.6946 14.9086 79.3087 15.1734 80.2469C17.6635 80.5511 20.2346 80.5009 22.7421 80.4149C22.5704 79.4848 21.6798 78.8433 20.7745 78.5433C19.8687 78.2432 18.8952 78.1845 17.9913 77.8791C17.0875 77.574 16.2027 76.9202 16.0465 75.9875C15.3458 76.2115 14.6222 75.6644 14.0742 75.2607Z" fill="url(#paint9_linear_269_19203)"/>
<path d="M12.4414 73.3744C12.5922 73.7047 12.7425 74.0347 12.8937 74.3651C13.0925 74.8009 13.608 75.2648 13.8072 75.7007C13.92 75.949 14.0331 76.1964 14.1463 76.4443C16.3198 72.8403 19.2556 66.8251 21.0489 63.0629C22.8638 59.254 23.0309 54.6615 22.834 50.4547C22.7514 48.6874 22.6111 46.9163 22.5162 45.1459C22.4096 43.143 22.3619 41.142 22.5247 39.151C22.56 38.7144 22.6061 38.2774 22.6635 37.8419C21.3577 37.7436 19.9935 37.6447 18.5991 37.5441C17.679 37.4781 16.7465 37.4114 15.8082 37.3446C15.216 37.3032 14.6222 37.261 14.0281 37.2188C14.0746 37.4954 14.1215 37.772 14.168 38.0487C15.0505 43.2808 15.8938 48.5401 15.921 53.8416C15.9462 58.8565 15.2082 67.2621 13.1797 71.8411C12.9503 72.3595 12.7046 72.8706 12.4414 73.3747V73.3744Z" fill="url(#paint10_linear_269_19203)"/>
<path style="mix-blend-mode:multiply" d="M12.8945 74.3646C13.0015 73.5247 13.0972 72.6837 13.1809 71.8407C15.2099 67.262 15.9474 58.856 15.9222 53.8411C15.8951 48.5392 15.0517 43.2803 14.1692 38.0483C14.4378 37.8345 14.7393 37.6615 15.0568 37.5441C15.3021 37.4528 15.554 37.3879 15.809 37.3446C16.7221 37.1899 17.6833 37.3162 18.5999 37.5441C18.7258 37.5748 18.851 37.6078 18.9751 37.6427C20.2102 37.9876 21.4055 38.473 22.5255 39.151C22.3624 41.142 22.4104 43.143 22.517 45.1458C21.6861 45.8407 19.5983 49.0638 19.7366 48.8949C18.3615 52.5036 20.9075 65.644 13.808 75.7003L12.8945 74.3646Z" fill="url(#paint11_linear_269_19203)"/>
<path d="M19.382 42.4015C19.3134 42.9306 19.2448 43.4597 19.1758 43.9892C19.1859 43.947 20.8687 43.7732 22.8154 42.5235C22.8049 42.1571 22.7945 41.7903 22.784 41.4238C21.8213 41.7872 20.8272 42.07 19.382 42.4015Z" fill="url(#paint12_linear_269_19203)"/>
<path d="M11.6186 59.6597C11.6387 60.8345 11.4884 62.2327 11.4488 63.4068C11.3171 67.2699 13.2812 73.5951 14.3358 77.3169C14.4901 77.3273 14.6459 77.3334 14.7993 77.3369C16.0361 77.3653 17.1836 77.1949 17.1836 77.1949C16.1093 66.6061 16.3244 53.0471 17.3425 42.2802C17.4743 40.8843 17.62 39.4792 17.7782 38.0638C15.0156 38.1294 12.3798 37.3685 9.74431 36.6084C9.19358 42.4053 9.51952 48.2831 10.7074 53.9852C11.0992 55.8641 11.586 57.7416 11.6186 59.66V59.6597Z" fill="url(#paint13_linear_269_19203)"/>
<path style="mix-blend-mode:multiply" d="M11.619 59.6603C11.6391 60.8351 11.4887 62.2333 11.4492 63.4074C11.3174 67.2705 13.2816 73.5957 14.3362 77.3175C14.4904 77.3279 14.6462 77.334 14.7997 77.3375C14.2095 74.728 13.6196 71.7186 13.0289 69.1084C12.8181 68.176 12.6057 64.5451 12.6677 63.5912C12.7293 62.6377 13.1045 61.6597 13.8703 61.0788C12.4786 57.4106 11.1411 52.7257 10.6787 48.8343C10.6121 48.2457 9.1804 43.0654 10.5287 40.3013C10.5547 40.8323 14.2664 42.2861 17.3425 42.2812C17.4743 40.8853 17.62 39.4802 17.7782 38.0647C15.0156 38.1303 12.3798 37.3695 9.74431 36.6094C9.19358 42.4062 9.51952 48.2841 10.7074 53.9862C11.0992 55.8651 11.586 57.7425 11.6186 59.661L11.619 59.6603Z" fill="url(#paint14_linear_269_19203)"/>
<path d="M22.6034 41.32C17.8534 41.7125 14.2328 41.3192 9.52734 39.8293C9.57346 39.4072 9.52192 38.8674 9.56804 38.4453C13.8902 39.3904 18.2011 39.9152 22.6348 39.774L22.603 41.32H22.6034Z" fill="url(#paint15_linear_269_19203)"/>
<path d="M9.58352 39.9531C9.48159 40.4819 9.37927 41.0106 9.27734 41.5393C11.2667 42.4821 13.0701 43.1006 15.2238 43.5718C15.2238 43.5718 15.3885 42.5415 15.4024 41.9944C15.3648 42.06 11.0904 40.8832 9.58352 39.9531Z" fill="url(#paint16_linear_269_19203)"/>
<path d="M23.7847 28.4576C23.4685 32.0455 22.6019 35.2889 22.9333 40.5697C21.7074 40.6706 20.4765 40.7063 19.2487 40.6775C17.9751 40.6483 16.7062 40.5501 15.4513 40.3847C13.6108 40.1438 11.8008 39.7585 10.0533 39.2356C9.58937 39.155 9.277 38.604 9.44869 38.1704C9.4266 37.9782 9.40295 37.7867 9.37738 37.5949C9.23165 36.4649 9.04174 35.3411 8.80998 34.2287C8.26274 31.6 7.48179 29.0335 6.48613 26.6005C5.95168 25.294 6.15787 22.5352 5.50327 21.3158C5.51063 21.1919 5.33661 20.9582 5.34398 20.8343C7.31785 18.5275 8.00578 18.0571 10.5556 16.0723C10.9769 16.355 11.4198 16.6006 11.876 16.8205C14.3936 18.0345 14.9878 18.6423 16.8 19.0317C17.9259 18.6043 18.2848 17.4536 19.1944 16.2875C19.2979 16.3516 19.3998 16.4164 19.501 16.4821C20.9916 17.4559 22.2089 18.6442 23.0592 19.6602C23.9592 23.2957 24.0053 25.9597 23.7844 28.4576H23.7847Z" fill="url(#paint17_linear_269_19203)"/>
<path d="M15.1677 17.3047C15.3115 17.5817 15.4549 17.8587 15.577 18.1588C16.6486 28.6632 16.4409 37.4686 15.6231 43.1324C15.1623 42.787 15.0584 42.1551 14.9914 41.5872C14.1178 34.1712 13.5458 26.6726 14.2984 19.2435L15.1673 17.3051L15.1677 17.3047Z" fill="url(#paint18_linear_269_19203)"/>
<path style="mix-blend-mode:multiply" d="M9.45083 38.1703C9.27875 38.6039 9.59152 39.1553 10.055 39.2355C14.1431 40.4583 18.5734 40.9287 22.935 40.5692C22.6037 35.288 23.4703 32.0446 23.7865 28.4567C22.768 30.0045 21.6363 31.4791 20.4031 32.865C20.1841 34.4001 19.7182 35.9004 19.0264 37.2913C16.7735 36.7522 14.6233 35.7983 12.718 34.4922C13.7757 34.4101 14.8337 34.328 15.8914 34.2459C12.0285 32.7997 8.70244 30.0452 6.48828 26.5996C7.97692 30.2374 8.98576 34.1722 9.45122 38.1699L9.45083 38.1703Z" fill="url(#paint19_linear_269_19203)"/>
<path d="M17.7304 16.9535C17.6118 17.3015 17.4936 17.6491 17.375 17.9972C18.6788 26.0559 19.2512 34.2302 19.1159 42.5859C19.1923 42.9067 19.2686 43.2278 19.3446 43.5486C20.479 40.7008 20.3732 37.538 20.2504 34.4792C20.0806 30.2478 19.9108 26.016 19.7411 21.7846C19.6845 20.3711 19.5659 18.8125 17.7304 16.9531V16.9535Z" fill="url(#paint20_linear_269_19203)"/>
<path d="M23.7868 28.4574C23.6109 30.4523 23.2904 32.8009 23.0966 35.4008C22.9427 37.477 22.8698 39.7139 23.0171 42.0583C21.8083 42.4723 20.4786 43.3168 19.2508 43.288C19.3422 41.675 19.3639 39.735 19.3259 37.622C19.2023 30.6702 18.4326 21.8464 17.3672 16.6358C18.6124 15.855 19.4786 16.5134 19.4786 16.5134C19.4864 16.5026 19.4945 16.4923 19.5027 16.4823C20.9933 17.4561 22.2106 18.6444 23.0609 19.6605C23.9608 23.296 24.007 25.96 23.7861 28.4578L23.7868 28.4574Z" fill="url(#paint21_linear_269_19203)"/>
<path style="mix-blend-mode:multiply" d="M23.0164 42.0591C21.8075 42.4731 20.4778 43.3176 19.25 43.2888C19.3415 41.6757 19.3632 39.7358 19.3252 37.6228C19.5899 37.5238 19.8546 37.4248 20.1193 37.3258C21.2611 36.8984 22.5102 36.3765 23.0284 35.2822C23.0509 35.3217 23.0737 35.3617 23.0954 35.4016C22.9416 37.4777 22.8687 39.7147 23.016 42.0591H23.0164Z" fill="url(#paint22_linear_269_19203)"/>
<path d="M23.3775 36.2712C23.2666 36.6952 23.1461 37.1238 23.0147 37.5558C23.0147 37.3195 23.0151 37.0846 23.0163 36.8525C23.0306 33.3091 23.1434 30.2587 22.9752 27.3438C22.788 24.0881 22.2516 21.0009 20.8386 17.5837C20.732 17.3266 20.5828 17.4345 20.4766 17.1774C21.4137 16.7737 23.405 19.6603 23.405 19.6603C23.405 19.6603 24.0914 21.7203 24.3623 25.0623C24.5991 27.9895 24.5181 31.8998 23.3775 36.2708V36.2712Z" fill="url(#paint23_linear_269_19203)"/>
<path style="mix-blend-mode:multiply" d="M23.3789 36.271C23.2738 36.4736 23.1552 36.6685 23.0176 36.8523C23.032 33.3089 23.1448 30.2585 22.9766 27.3436C23.5257 26.6399 23.9928 25.8721 24.3633 25.0625C24.6001 27.9897 24.5191 31.9 23.3785 36.271H23.3789Z" fill="url(#paint24_linear_269_19203)"/>
<path d="M16.0772 36.67C16.021 37.8 15.9385 38.8993 15.8249 39.9541C15.7738 40.4344 15.4928 42.516 15.4346 42.9956C13.4034 42.463 10.6075 41.7755 9.19367 40.2276C9.36459 39.3593 9.41768 38.4772 9.37738 37.5955C9.32583 36.4609 9.11964 35.3278 8.80998 34.2293C8.30808 31.8186 7.61007 29.4604 6.72953 27.2096C6.64969 27.0059 6.56907 26.8033 6.48613 26.6015C5.95168 25.295 6.15787 22.5362 5.50327 21.3168C5.51063 21.1929 5.33661 20.9592 5.34398 20.8353C7.31785 18.5285 8.00578 18.0581 10.5556 16.0732C12.3981 16.521 13.2422 16.1454 15.3141 16.7347C15.8621 22.7622 16.3985 30.2228 16.0768 36.6708L16.0772 36.67Z" fill="url(#paint25_linear_269_19203)"/>
<path style="mix-blend-mode:multiply" d="M16.0782 36.6695C16.022 37.7995 15.9394 38.8988 15.8259 39.9536C15.7747 40.434 15.4937 42.5155 15.4356 42.9951C13.4044 42.4626 10.6085 41.775 9.19461 40.2272C9.36553 39.3589 9.41863 38.4767 9.37832 37.595C9.32677 36.4604 9.12059 35.3274 8.81092 34.2289C8.30902 31.8181 7.61102 29.4599 6.73047 27.2091C6.90797 26.0396 7.07928 24.8134 7.20872 23.498C8.39351 26.3378 9.58877 29.1978 11.3041 31.7582C12.5796 33.6618 14.1717 35.4056 16.0778 36.6703L16.0782 36.6695Z" fill="url(#paint26_linear_269_19203)"/>
<path d="M14.2284 36.334C14.6102 37.2867 15.626 38.462 15.5981 39.5973C15.588 40.0067 15.3814 40.3827 15.1803 40.7407C14.9555 41.1402 14.7024 41.5664 14.2784 41.7483C13.3727 42.1366 12.4379 41.6021 11.5317 41.2583C11.1938 40.6191 10.9624 40.329 10.7031 39.5593C11.7759 38.6296 13.0332 37.0546 14.2284 36.334Z" fill="url(#paint27_linear_269_19203)"/>
<path d="M11.4607 30.2517C11.2983 32.857 10.855 35.445 10.1287 37.9548C10.0721 38.1528 10.0128 38.35 9.95232 38.5468C10.0384 38.2445 9.63646 37.939 9.36361 38.0994C9.39307 37.7664 9.41787 37.4326 9.43802 37.0991C9.66165 33.3896 9.31323 29.6428 8.44276 25.9766C7.87575 23.5865 7.08705 21.2314 6.08984 18.9419C7.27657 18.122 8.4633 17.302 9.64964 16.4824C11.1453 20.8988 11.7502 25.6036 11.4607 30.2517Z" fill="url(#paint28_linear_269_19203)"/>
<path style="mix-blend-mode:multiply" d="M11.4598 30.2523C11.2974 32.8576 10.854 35.4456 10.1277 37.9554C10.0076 37.8314 9.89633 37.6975 9.78858 37.5628C9.66805 37.4105 9.55023 37.2566 9.43667 37.1001C9.6603 33.3905 9.31188 29.6437 8.44141 25.9775C8.91889 27.0085 9.42195 28.0322 10.118 28.9301C10.5013 29.4247 10.9524 29.8813 11.4594 30.2523H11.4598Z" fill="url(#paint29_linear_269_19203)"/>
<path d="M14.8991 19.0313L15.4638 16.7706C13.4481 16.2676 12.204 15.8804 10.451 15.1641C10.4855 15.5811 10.3712 16.009 10.1328 16.3547C11.7598 17.7836 12.5036 17.772 14.8991 19.0313Z" fill="url(#paint30_linear_269_19203)"/>
<path style="mix-blend-mode:multiply" d="M5.17969 31.5868C5.23278 31.5481 5.28627 31.509 5.3382 31.4694C5.30293 31.4211 5.26922 31.372 5.2355 31.3232C5.21689 31.4107 5.19868 31.4986 5.17969 31.5868Z" fill="url(#paint31_linear_269_19203)"/>
<path d="M19.0703 9.5631C19.2281 9.03398 19.4676 8.52904 19.7788 8.07129C20.1706 8.52328 20.257 9.17978 20.1198 9.75955C19.9826 10.3393 19.6478 10.855 19.2742 11.3216C19.2188 10.5408 19.2374 9.75494 19.0703 9.56271V9.5631Z" fill="url(#paint32_linear_269_19203)"/>
<path d="M20.1812 5.66447C20.1812 5.66447 20.1661 5.72011 20.1402 5.84212C20.0549 6.25383 19.8553 7.42179 19.746 9.74852C19.7449 9.77231 19.7437 9.79495 19.7425 9.8149C19.7262 10.0655 19.6987 10.0305 19.6631 9.7984C19.5763 9.22823 19.4445 7.47052 19.3348 5.86591C19.2778 5.02715 19.2271 4.23022 19.1914 3.66619C19.2662 3.67539 19.341 3.6846 19.6235 3.41602C20.0053 3.84038 20.2305 4.60087 20.1809 5.66485L20.1812 5.66447Z" fill="url(#paint33_linear_269_19203)"/>
<path style="mix-blend-mode:screen" d="M20.1404 5.8418C20.0552 6.2535 19.8556 7.42147 19.7463 9.7482C19.7451 9.77199 19.744 9.79463 19.7428 9.81458C19.7157 9.81112 19.6889 9.80537 19.6634 9.79808C19.4649 9.73937 19.313 9.56364 19.1832 9.39712C18.8809 9.01074 18.5867 8.61169 18.3941 8.162C18.2015 7.71193 18.1166 7.20276 18.2445 6.73044L18.4813 5.89014C18.7661 5.8817 19.0506 5.87364 19.3355 5.8652C19.6041 5.85753 19.8719 5.84947 20.1404 5.8418Z" fill="url(#paint34_linear_269_19203)"/>
<path d="M9.84227 16.8711L9.84317 16.872C9.83914 16.8733 9.83869 16.8733 9.84227 16.8711Z" fill="url(#paint35_linear_269_19203)"/>
<path d="M11.7058 10.2803C11.7015 10.4341 11.6976 10.5845 11.6938 10.7319C11.6449 10.7277 11.5961 10.7234 11.5469 10.7192C11.6 10.5726 11.6531 10.4265 11.7062 10.2803H11.7058Z" fill="url(#paint36_linear_269_19203)"/>
<path d="M19.7118 7.00705C19.8971 7.28178 19.868 8.03843 19.768 9.43738C19.6882 10.5574 19.5878 11.6889 19.2289 12.754C18.87 13.8192 18.0232 14.8586 17.2225 15.2024C16.0327 15.3916 14.0053 14.8034 12.974 13.8614C11.9431 12.9194 11.7532 11.9533 11.4687 10.5931C11.1846 9.23287 11.2276 7.82471 11.3904 6.44494C12.9027 2.74305 17.8054 1.86515 19.3049 4.08828C19.3049 4.08828 19.6273 6.14796 19.7118 7.00667V7.00705Z" fill="url(#paint37_linear_269_19203)"/>
<path d="M12.7327 4.00781C12.6396 4.88609 12.5056 5.70183 12.3947 6.29617C12.2854 6.88821 12.1986 7.26193 12.1986 7.26193C11.8808 7.48179 11.77 7.45838 11.5843 10.2152C11.1394 9.99269 10.8592 9.4701 10.8592 8.97705C10.8592 7.03862 10.2437 6.27008 10.2437 6.27008C10.2433 6.26701 10.2426 6.26356 10.2422 6.26087C9.87514 3.6763 11.9595 4.20004 12.7327 4.0082V4.00781Z" fill="url(#paint38_linear_269_19203)"/>
<path style="mix-blend-mode:screen" d="M12.3947 6.29526C12.2854 6.8873 12.1986 7.26102 12.1986 7.26102C11.8808 7.48088 11.77 7.45748 11.5843 10.2143C11.1394 9.99178 10.8592 9.46919 10.8592 8.97614C10.8592 7.03771 10.2437 6.26917 10.2437 6.26917C10.2434 6.2661 10.2426 6.26265 10.2422 6.25996C10.9592 6.20433 11.6808 6.21622 12.3947 6.29565V6.29526Z" fill="url(#paint39_linear_269_19203)"/>
<path d="M12.8035 9.09898C12.8326 8.73869 12.7214 8.38415 12.6621 8.0277C12.6028 7.67125 12.6043 7.27451 12.8249 6.98635C12.9923 6.76765 13.2589 6.6487 13.5205 6.55815C13.9767 6.40083 14.455 6.30491 14.9371 6.27345C15.0603 6.26539 15.1925 6.26385 15.2967 6.32908C15.4708 6.43805 15.4925 6.67671 15.496 6.88045C15.5076 7.61446 15.5188 8.34885 15.5304 9.08286C14.7615 8.91749 13.9798 8.81274 12.8039 9.09859L12.8035 9.09898Z" fill="url(#paint40_linear_269_19203)"/>
<path d="M17.2426 9.04682C17.3081 8.63819 17.2341 8.22149 17.2237 7.80787C17.2132 7.39425 17.2818 6.94724 17.5725 6.64988C17.8535 6.36249 18.279 6.27539 18.679 6.21937C18.877 6.19136 19.1068 6.17755 19.2483 6.31798C19.3425 6.41122 19.3712 6.55012 19.3925 6.68019C19.5227 7.47866 19.5487 8.29363 19.4688 9.09862C18.7503 9.09709 18.0321 9.05718 17.2426 9.0472V9.04682Z" fill="url(#paint41_linear_269_19203)"/>
<path d="M12.8945 8.93378C13.7708 9.1264 14.6649 9.23959 15.5621 9.27143C15.4831 8.72045 15.2761 8.18788 14.9548 7.71325C14.1561 7.69867 13.3639 8.13186 12.8945 8.93417V8.93378Z" fill="white"/>
<path d="M14.5001 9.14188C14.85 9.02461 15.0377 8.6487 14.9192 8.30225C14.8008 7.9558 14.4211 7.77002 14.0711 7.88728C13.7212 8.00455 13.5335 8.38046 13.652 8.72691C13.7704 9.07335 14.1501 9.25914 14.5001 9.14188Z" fill="url(#paint42_linear_269_19203)"/>
<path style="mix-blend-mode:screen" d="M13.7222 8.59971C13.7695 8.90628 14.059 9.11654 14.3687 9.06973C14.6784 9.02292 14.8911 8.7363 14.8439 8.42973C14.8404 8.40824 14.8361 8.38752 14.8303 8.36719C14.7652 8.36834 14.6997 8.37179 14.635 8.37678C14.6365 8.38445 14.6381 8.39251 14.6396 8.40057C14.6722 8.61237 14.5253 8.81074 14.3113 8.84297C14.0982 8.8752 13.8986 8.73131 13.8645 8.52105C13.8156 8.53563 13.7668 8.55136 13.7188 8.56824C13.7199 8.5786 13.7211 8.58935 13.7226 8.59971H13.7222Z" fill="url(#paint43_linear_269_19203)"/>
<path style="mix-blend-mode:multiply" opacity="0.68" d="M14.2725 8.76124C14.4489 8.76124 14.5918 8.61968 14.5918 8.44507C14.5918 8.27046 14.4489 8.12891 14.2725 8.12891C14.0961 8.12891 13.9531 8.27046 13.9531 8.44507C13.9531 8.61968 14.0961 8.76124 14.2725 8.76124Z" fill="url(#paint44_linear_269_19203)"/>
<path d="M14.7025 8.3835C14.7899 8.37026 14.8499 8.28974 14.8366 8.20365C14.8233 8.11756 14.7417 8.0585 14.6543 8.07173C14.5669 8.08497 14.5069 8.16549 14.5202 8.25159C14.5335 8.33768 14.6151 8.39674 14.7025 8.3835Z" fill="white"/>
<path d="M12.9531 8.91806C13.1167 8.49676 13.4666 8.1499 13.8918 7.98721C14.3174 7.82452 14.8115 7.8487 15.2188 8.05206C15.1778 7.85637 15.134 7.84563 15.0933 7.64994C14.6324 7.55364 14.1085 7.54635 13.7004 7.8134C13.2922 8.08045 12.9799 8.48755 12.9531 8.91806Z" fill="url(#paint45_linear_269_19203)"/>
<path d="M19.5338 8.9349C19.1315 9.11409 18.7071 9.24455 18.244 9.29596C18.1901 9.3021 18.1362 9.30671 18.0812 9.31093C17.858 9.32589 17.6258 9.3232 17.3828 9.29826C17.3882 9.14363 17.4084 8.94181 17.4394 8.74037C17.4611 8.59572 17.4886 8.45068 17.5196 8.32368C17.5646 8.13759 17.6181 7.98871 17.6735 7.93039C17.7843 7.81336 17.9665 7.79917 18.1273 7.81682C18.7517 7.88396 19.3172 8.33864 19.5342 8.93567L19.5338 8.9349Z" fill="white"/>
<path d="M18.4215 9.23096C18.3638 9.26203 18.3037 9.28429 18.2425 9.29733C18.1882 9.30923 18.1336 9.31383 18.0797 9.3123C17.8506 9.30539 17.6313 9.18184 17.5135 8.96851C17.4732 8.89561 17.4484 8.81887 17.4375 8.74136C17.4592 8.59671 17.4867 8.45167 17.5177 8.32467C17.5766 8.22069 17.665 8.13128 17.7786 8.06989C18.103 7.89416 18.5091 8.01157 18.6862 8.33234C18.8637 8.65349 18.7451 9.05561 18.4211 9.23096H18.4215Z" fill="url(#paint46_linear_269_19203)"/>
<path style="mix-blend-mode:screen" d="M17.6046 8.91916C17.7549 9.1912 18.0995 9.29096 18.3743 9.14208C18.6491 8.99321 18.7502 8.65172 18.5998 8.37968C18.5894 8.36088 18.5781 8.34285 18.5657 8.3252C18.5049 8.3486 18.4448 8.37354 18.3851 8.4004C18.3894 8.40692 18.3937 8.41383 18.3975 8.42112C18.5014 8.60913 18.4316 8.8451 18.2417 8.94832C18.0526 9.05076 17.815 8.98285 17.7108 8.79714C17.6697 8.82745 17.6294 8.85892 17.5898 8.89076C17.5945 8.90035 17.5995 8.90956 17.6046 8.91916Z" fill="url(#paint47_linear_269_19203)"/>
<path style="mix-blend-mode:multiply" opacity="0.68" d="M18.0694 8.90381C18.2457 8.90381 18.3887 8.76226 18.3887 8.58765C18.3887 8.41304 18.2457 8.27148 18.0694 8.27148C17.893 8.27148 17.75 8.41304 17.75 8.58765C17.75 8.76226 17.893 8.90381 18.0694 8.90381Z" fill="url(#paint48_linear_269_19203)"/>
<path d="M18.4496 8.38707C18.5272 8.34504 18.5558 8.24904 18.5135 8.17265C18.4713 8.09625 18.3742 8.0684 18.2967 8.11042C18.2191 8.15245 18.1905 8.24845 18.2327 8.32485C18.275 8.40124 18.3721 8.4291 18.4496 8.38707Z" fill="white"/>
<path d="M19.5606 8.97504C19.3389 8.63969 19.0804 8.31048 18.7231 8.12439C18.3654 7.9383 17.8395 7.96401 17.543 8.23566C17.5554 8.13475 17.6135 7.88995 17.6151 7.84736C18.6413 7.54348 19.1572 7.96861 19.5606 8.97504Z" fill="url(#paint49_linear_269_19203)"/>
<path d="M17.9844 6.44824C17.6394 6.78743 17.2941 7.12623 16.9492 7.46542C16.9585 8.26619 17.1282 9.06466 17.4457 9.80097C17.517 9.96634 17.5976 10.144 17.5588 10.3197C17.4949 10.609 17.1127 10.7403 16.8356 10.629C16.5585 10.5177 16.3837 10.2415 16.2876 9.96097C16.1031 9.42226 16.1461 8.8237 16.3314 8.28538C16.517 7.74705 16.2903 7.18302 15.707 6.89947C15.8737 6.7951 17.5429 6.60326 17.9848 6.44863L17.9844 6.44824Z" fill="url(#paint50_linear_269_19203)"/>
<path d="M16.8175 11.3741C15.8078 11.3515 14.8009 11.1965 13.832 10.9141C14.5448 11.6634 15.5586 12.1242 16.5977 12.1699C16.5365 12.0218 16.4752 11.8733 16.414 11.7252C16.5039 11.6473 16.5942 11.5694 16.8175 11.3741Z" fill="white"/>
<path d="M11.6729 9.66495C11.6376 9.16768 11.3806 8.5319 11.1314 8.24336C10.964 8.04921 10.6725 7.93679 10.44 8.04768C10.1664 8.17852 10.1001 8.53535 10.1207 8.8354C10.1885 9.82227 10.8663 10.7431 11.7946 11.1096C11.7391 10.78 11.6837 10.4504 11.6729 9.66495Z" fill="url(#paint51_linear_269_19203)"/>
<path style="mix-blend-mode:multiply" opacity="0.9" d="M11.5966 10.033C11.4591 9.85 11.3947 9.62477 11.3253 9.40722C11.2556 9.18966 11.173 8.96673 11.0095 8.80597C10.8459 8.6452 10.5797 8.565 10.3789 8.67743C10.5657 8.89345 10.7525 9.10985 10.9393 9.32587C10.7983 9.2852 10.6444 9.28789 10.5045 9.33316C10.6676 9.62554 10.8308 9.91791 10.9936 10.2103C11.0525 10.3162 11.1273 10.4336 11.2478 10.4539C11.3335 10.4685 11.4211 10.4267 11.4823 10.3657C11.5432 10.3043 11.5823 10.2253 11.597 10.033H11.5966Z" fill="url(#paint52_linear_269_19203)"/>
<path d="M15.5503 5.99023C15.5418 6.31599 15.5337 6.64213 15.5251 6.96827C14.7066 6.86698 14.0749 6.80213 13.4489 6.83436C13.3226 6.84089 13.1924 6.8524 13.0815 6.91302C13.0385 6.93643 12.9994 6.96866 12.9688 7.00703C13.0335 6.73268 13.054 6.43877 13.2521 6.24462C13.4672 6.03436 13.809 6.02899 14.1078 6.07388C14.4066 6.11839 14.7151 6.19896 15.005 6.11378C15.0717 6.28069 15.1759 6.43302 15.3081 6.55618C15.3139 6.37892 15.2856 6.2005 15.2248 6.03359C15.3151 6.12069 15.4864 6.09805 15.5503 5.99062V5.99023Z" fill="url(#paint53_linear_269_19203)"/>
<path d="M17.3012 7.2696C17.3578 6.88859 17.4147 6.50758 17.4713 6.12695C17.4508 6.18182 17.4763 6.24974 17.5283 6.27813C17.5802 6.30652 17.6515 6.29194 17.688 6.24551C17.6426 6.44772 17.6457 6.66029 17.6965 6.86135C17.7589 6.69904 17.8217 6.53674 17.8841 6.37444C18.291 6.3399 18.698 6.30537 19.1049 6.27046C19.1599 6.26585 19.2181 6.26163 19.2669 6.28695C19.3382 6.32341 19.3661 6.40859 19.3874 6.48532C19.4657 6.76542 19.544 7.04514 19.6223 7.32523C19.356 7.01214 18.8886 6.94768 18.4798 7.0083C18.0709 7.06893 17.6818 7.22969 17.3008 7.26998L17.3012 7.2696Z" fill="url(#paint54_linear_269_19203)"/>
<path d="M19.7157 4.60764C19.4781 4.63872 19.2448 4.6675 19.0149 4.69397C18.639 4.73733 18.2724 4.7734 17.9119 4.80256C17.779 4.8133 17.6464 4.82366 17.5147 4.83249C17.1259 4.85896 16.743 4.87623 16.3624 4.88467C16.0884 4.89158 15.8156 4.89311 15.5416 4.88889C15.0839 4.88352 14.6246 4.86433 14.1572 4.83019C13.5413 4.78644 12.9108 4.717 12.2488 4.6203C12.9786 4.89618 11.1586 4.62261 11.1586 4.62261C10.7637 4.7523 10.4059 4.69129 10.3269 5.0957C10.118 4.46069 10.0784 3.97339 10.1749 3.57512C10.1912 3.50682 10.2114 3.44236 10.235 3.3802C10.4714 2.76168 11.0706 2.36264 11.8756 1.90835C11.9314 1.87727 11.9876 1.84542 12.0446 1.81357C12.0046 1.81779 11.9651 1.8224 11.9252 1.82662C12.1147 1.64897 12.3651 1.53655 12.6247 1.51161C12.5992 1.49894 12.574 1.48628 12.5484 1.47362C12.4701 1.43448 12.3918 1.39573 12.3139 1.35698C12.9426 0.720042 13.8351 0.355532 14.7323 0.337498C14.8978 0.333661 15.0633 0.341719 15.2273 0.363206C15.34 0.377019 15.4524 0.396971 15.5633 0.422678C15.3854 0.284548 15.2075 0.146802 15.0296 0.00867126C15.614 -0.0327678 16.2082 0.0750505 16.7407 0.316395C16.7364 0.296443 16.7364 0.275339 16.7407 0.255004C16.7702 0.119559 16.9318 0.0462734 17.0701 0.0643071C17.2089 0.0823407 17.3282 0.166754 17.441 0.249248C18.0627 0.704694 18.665 1.18662 19.2451 1.69309C19.9261 2.53377 19.9536 3.28696 19.7145 4.60726L19.7157 4.60764Z" fill="url(#paint55_linear_269_19203)"/>
<path d="M8.2415 29.5423C8.19228 30.0304 7.82371 30.4294 7.54582 30.8354C6.99354 31.6411 6.44165 32.4465 5.88937 33.2523C5.58164 33.7016 5.25531 34.1658 4.86077 34.538C4.58792 34.7966 4.28174 35.01 3.92712 35.1443C2.77179 35.5813 1.04712 35.4765 0.428952 34.416C-1.62592 30.8925 4.3143 22.3005 5.33709 20.9736C6.51025 21.512 7.63031 23.074 8.09655 25.4656C8.22406 26.1186 8.30235 26.8338 8.31979 27.6066C8.33413 28.2163 8.30933 28.8624 8.2415 29.5423Z" fill="url(#paint56_linear_269_19203)"/>
<path style="mix-blend-mode:multiply" d="M8.24318 29.5426C8.19395 30.0306 7.82538 30.4297 7.54749 30.8356C6.99521 31.6414 6.44332 32.4468 5.89104 33.2525C5.58331 33.7018 5.25698 34.1661 4.86244 34.5383C4.2869 34.3184 2.13281 33.1804 2.13281 33.1804C2.13281 33.1804 6.5282 27.3452 8.09823 25.4658C8.22573 26.1189 8.30402 26.8341 8.32146 27.6068C8.3358 28.2165 8.311 28.8627 8.24318 29.5426Z" fill="url(#paint57_linear_269_19203)"/>
<path d="M0.814489 35.0209C1.32879 35.6602 2.09423 36.0416 2.83448 36.403C5.60635 37.7578 8.25343 38.4573 11.3063 38.9377C11.6121 38.3595 12.095 38.4546 12.4 37.8775C12.5612 37.574 12.7221 37.2698 12.8825 36.9663L12.9077 36.8584C9.81105 36.0293 10.0951 34.8855 6.44853 32.2921C3.93749 30.5064 0.267246 30.8601 0.226552 30.872L0.169192 31.108C0.147876 31.3137 0.126172 31.5166 0.109894 31.7177C0.00602659 32.9256 0.0339314 34.0517 0.814876 35.0209H0.814489Z" fill="url(#paint58_linear_269_19203)"/>
<path style="mix-blend-mode:multiply" d="M0.814876 35.02C1.32918 35.6593 2.09462 36.0407 2.83487 36.4021C5.60674 37.7569 8.25381 38.4564 11.3067 38.9368C11.6125 38.3586 12.0954 38.4537 12.4004 37.8766C12.3942 37.8732 12.3891 37.867 12.3822 37.8663C10.0773 37.6729 6.69037 37.3076 2.15779 34.3854C1.36134 33.872 0.442038 32.7643 0.109894 31.7168C0.00602658 32.9247 0.0339314 34.0508 0.814876 35.02Z" fill="url(#paint59_linear_269_19203)"/>
<path d="M10.9855 38.8653C10.718 38.8768 10.451 38.8883 10.1836 38.9002C10.9986 38.086 11.8137 37.2722 12.6287 36.458C12.8876 36.6349 13.1868 36.7535 13.4977 36.8022C12.6911 37.527 11.8672 38.2322 10.9859 38.8653H10.9855Z" fill="url(#paint60_linear_269_19203)"/>
<path d="M18.5947 18.6399L17.2812 16.6842C18.3552 16.0998 18.3312 16.0638 18.9315 15.5166C19.1288 15.7771 19.7198 16.4927 19.7198 16.4927C19.7198 16.4927 19.4663 17.569 18.5947 18.6399Z" fill="url(#paint61_linear_269_19203)"/>
<path d="M10.3359 39.1083C11.5777 37.8873 12.8195 36.8713 14.0612 35.6504L14.4162 36.6649C13.1377 37.5754 11.899 38.5411 10.7053 39.5583C10.6161 39.3914 10.4778 39.1171 10.3359 39.1083Z" fill="url(#paint62_linear_269_19203)"/>
<path d="M29.2201 34.4455C29.2492 35.9734 28.188 37.4003 26.306 38.2909C24.6895 39.056 23.7763 38.2445 22.5834 38.8093C23.0109 38.0515 23.1469 37.4963 23.1245 37.0907C23.0694 36.0977 22.0664 35.9972 22.0664 35.9972C23.1981 34.8768 23.5938 33.7345 24.4697 32.6947C25.8211 31.0909 28.0946 30.9002 28.9961 33.3025C29.1399 33.6854 29.2135 34.0687 29.2201 34.4459V34.4455Z" fill="url(#paint63_linear_269_19203)"/>
<path d="M22.6859 35.0254C23.3633 35.294 23.9276 35.8323 24.2233 36.493C24.519 37.1537 24.5431 37.9288 24.2892 38.6064C23.9292 38.5619 23.5521 38.6793 23.2823 38.9199C23.4009 38.3965 23.3114 37.8294 23.0366 37.3671C22.7618 36.9047 22.3053 36.5513 21.7852 36.3998C22.165 35.7379 22.5444 35.0757 22.6859 35.0262V35.0254Z" fill="url(#paint64_linear_269_19203)"/>
<path style="mix-blend-mode:multiply" d="M29.2226 34.4453C29.2517 35.9732 28.1905 37.4002 26.3085 38.2907C24.692 39.0558 23.7789 38.2443 22.5859 38.8091C23.0134 38.0513 23.1495 37.4961 23.127 37.0905C23.7858 36.838 24.4548 36.6132 25.1326 36.4171C26.2353 36.0975 27.3832 35.8435 28.3456 35.2231C28.6711 35.0132 28.973 34.748 29.2226 34.4457V34.4453Z" fill="url(#paint65_linear_269_19203)"/>
<path d="M22.0684 35.6533C19.528 36.7453 19.9609 37.9374 20.0233 39.0052C20.081 39.9929 19.8403 41.7437 21.5852 41.3933C22.1177 41.2867 22.9343 40.5703 22.9343 40.5703C22.9343 40.5703 23.5179 38.917 23.6637 38.5064C23.8202 38.0656 23.7978 37.5833 23.7447 37.119C23.6954 36.6904 23.6175 36.2534 23.3955 35.8823C23.1734 35.5113 22.3498 35.2784 22.0684 35.6536V35.6533Z" fill="url(#paint66_linear_269_19203)"/>
<path d="M21.9492 35.6101C24.1099 36.3319 23.3286 39.2499 23.3708 39.3327L23.896 38.6018C24.432 36.9442 23.646 35.4705 22.5705 35.1113C22.4748 35.1528 22.1554 35.6573 21.9492 35.6105V35.6101Z" fill="url(#paint67_linear_269_19203)"/>
<path style="mix-blend-mode:screen" d="M15.5424 4.88893C15.0847 4.88356 14.6254 4.86438 14.158 4.83023C13.9743 4.48644 13.791 4.14303 13.6077 3.79924C12.5539 3.27895 11.2943 3.21832 10.1758 3.57478C10.1921 3.50686 10.2122 3.44278 10.2359 3.38024C11.073 2.93209 11.9687 2.59098 12.8942 2.37074C13.3209 2.26944 13.8092 2.2046 14.1654 2.45822C14.3793 2.61055 14.5053 2.85266 14.6239 3.08556C14.9297 3.68643 15.2362 4.28768 15.542 4.88932L15.5424 4.88893Z" fill="url(#paint68_linear_269_19203)"/>
<path style="mix-blend-mode:screen" d="M16.3654 4.88448C16.3743 4.56487 16.3654 4.2464 16.3177 3.93062C16.234 3.3781 16.0181 2.82864 15.6162 2.43728C15.0089 1.84523 14.083 1.7048 13.2319 1.75391C12.7792 1.78039 12.3293 1.85137 11.8789 1.90854C11.9347 1.87746 11.9909 1.84562 12.0479 1.81377C12.008 1.81799 11.9684 1.8226 11.9285 1.82682C12.118 1.64917 12.3684 1.53674 12.6281 1.5118C12.6025 1.49914 12.5773 1.48648 12.5517 1.47382C13.4214 1.26087 14.2996 1.08206 15.1841 0.939713C15.4984 0.889065 15.8422 0.84801 16.1166 1.00801C16.2886 1.10815 16.4088 1.27545 16.5138 1.4435C17.1436 2.45569 17.3773 3.64016 17.518 4.8323C17.1293 4.85878 16.7463 4.87604 16.3658 4.88448H16.3654Z" fill="url(#paint69_linear_269_19203)"/>
<path style="mix-blend-mode:screen" d="M15.2297 0.363598C15.4642 0.417316 15.6955 0.485997 15.9223 0.570026C15.5304 0.474102 15.1336 0.400817 14.7344 0.337891L15.2293 0.363598H15.2297Z" fill="url(#paint70_linear_269_19203)"/>
<path style="mix-blend-mode:screen" d="M19.065 4.59681C19.0488 4.62943 19.0325 4.66166 19.0162 4.69427C18.6403 4.73763 18.2736 4.77369 17.9132 4.80286C17.9954 4.5312 18.0961 4.26376 18.1806 3.99326C18.3325 3.50597 18.4325 2.97455 18.2798 2.48764C18.1294 2.00802 17.7543 1.63814 17.3555 1.34231C16.9164 1.01693 16.4319 0.757172 15.9219 0.570312C16.142 0.624414 16.361 0.685421 16.5765 0.756788C17.4338 1.03919 18.2577 1.48658 18.8658 2.16725C19.1162 2.44735 19.3325 2.77656 19.396 3.15066C19.4809 3.64717 19.2883 4.1475 19.065 4.59681Z" fill="url(#paint71_linear_269_19203)"/>
<path style="mix-blend-mode:multiply" d="M3.58278 33.1797C3.59014 33.2012 3.59867 33.2227 3.60758 33.2441C3.59789 33.256 3.58781 33.2676 3.57812 33.2794L3.58316 33.1801L3.58278 33.1797Z" fill="url(#paint72_linear_269_19203)"/>
<path d="M17.4323 35.67C17.361 35.66 17.2901 35.65 17.2188 35.6396L17.4323 35.67Z" fill="url(#paint73_linear_269_19203)"/>
<defs>
<linearGradient id="paint0_linear_269_19203" x1="5.14062" y1="19.5397" x2="8.4361" y2="19.5397" gradientUnits="userSpaceOnUse">
<stop stop-color="#81BFD1"/>
<stop offset="1" stop-color="#5CA1B4"/>
</linearGradient>
<linearGradient id="paint1_linear_269_19203" x1="5.47871" y1="18.7858" x2="13.517" y2="35.523" gradientUnits="userSpaceOnUse">
<stop stop-color="#2F84A8"/>
<stop offset="1" stop-color="#003D55"/>
</linearGradient>
<linearGradient id="paint2_linear_269_19203" x1="4.11994" y1="33.2583" x2="10.9592" y2="31.3959" gradientUnits="userSpaceOnUse">
<stop stop-color="#2F84A8" stop-opacity="0"/>
<stop offset="1" stop-color="#003D55"/>
</linearGradient>
<linearGradient id="paint3_linear_269_19203" x1="14.4954" y1="11.0232" x2="14.7226" y2="16.122" gradientUnits="userSpaceOnUse">
<stop stop-color="#ED654D"/>
<stop offset="1" stop-color="#C5442D"/>
</linearGradient>
<linearGradient id="paint4_linear_269_19203" x1="27.7766" y1="23.3103" x2="23.0406" y2="32.1054" gradientUnits="userSpaceOnUse">
<stop stop-color="#FF9763"/>
<stop offset="1" stop-color="#C5442D"/>
</linearGradient>
<linearGradient id="paint5_linear_269_19203" x1="25.3469" y1="27.245" x2="22.9726" y2="28.2531" gradientUnits="userSpaceOnUse">
<stop stop-color="#FF9763" stop-opacity="0.02"/>
<stop offset="0.96" stop-color="#C7472F" stop-opacity="0.96"/>
<stop offset="1" stop-color="#C5442D"/>
</linearGradient>
<linearGradient id="paint6_linear_269_19203" x1="10.542" y1="-7.98966" x2="15.1591" y2="17.8538" gradientUnits="userSpaceOnUse">
<stop stop-color="#FFCEAA"/>
<stop offset="1" stop-color="#F69E80"/>
</linearGradient>
<linearGradient id="paint7_linear_269_19203" x1="15.7916" y1="17.7669" x2="15.2687" y2="13.9891" gradientUnits="userSpaceOnUse">
<stop stop-color="#FFCEAA" stop-opacity="0"/>
<stop offset="1" stop-color="#F69E80"/>
</linearGradient>
<linearGradient id="paint8_linear_269_19203" x1="12.6302" y1="79.0598" x2="18.117" y2="71.5466" gradientUnits="userSpaceOnUse">
<stop stop-color="#91A5BF"/>
<stop offset="1" stop-color="#ABC0D3"/>
</linearGradient>
<linearGradient id="paint9_linear_269_19203" x1="15.1815" y1="82.503" x2="17.8669" y2="78.5623" gradientUnits="userSpaceOnUse">
<stop stop-color="#91A5BF"/>
<stop offset="1" stop-color="#C7DAEB"/>
</linearGradient>
<linearGradient id="paint10_linear_269_19203" x1="26.3434" y1="61.7683" x2="17.2378" y2="56.3551" gradientUnits="userSpaceOnUse">
<stop stop-color="#115566"/>
<stop offset="1" stop-color="#052D40"/>
</linearGradient>
<linearGradient id="paint11_linear_269_19203" x1="25.7358" y1="67.5375" x2="9.4158" y2="45.2926" gradientUnits="userSpaceOnUse">
<stop stop-color="#115566" stop-opacity="0"/>
<stop offset="1" stop-color="#052D40"/>
</linearGradient>
<linearGradient id="paint12_linear_269_19203" x1="21.3427" y1="40.409" x2="20.9543" y2="43.6609" gradientUnits="userSpaceOnUse">
<stop stop-color="#ED654D"/>
<stop offset="1" stop-color="#7D291A"/>
</linearGradient>
<linearGradient id="paint13_linear_269_19203" x1="19.3583" y1="69.5168" x2="10.7319" y2="38.0775" gradientUnits="userSpaceOnUse">
<stop stop-color="#115566"/>
<stop offset="1" stop-color="#052D40"/>
</linearGradient>
<linearGradient id="paint14_linear_269_19203" x1="18.296" y1="63.1791" x2="12.6461" y2="49.0478" gradientUnits="userSpaceOnUse">
<stop stop-color="#115566" stop-opacity="0.01"/>
<stop offset="1" stop-color="#052D40"/>
</linearGradient>
<linearGradient id="paint15_linear_269_19203" x1="22.6348" y1="39.9536" x2="9.52734" y2="39.9536" gradientUnits="userSpaceOnUse">
<stop stop-color="#5B7D90"/>
<stop offset="1" stop-color="#364A67"/>
</linearGradient>
<linearGradient id="paint16_linear_269_19203" x1="12.631" y1="39.4892" x2="12.2495" y2="42.6856" gradientUnits="userSpaceOnUse">
<stop stop-color="#ED654D"/>
<stop offset="1" stop-color="#7D291A"/>
</linearGradient>
<linearGradient id="paint17_linear_269_19203" x1="14.62" y1="45.0812" x2="14.62" y2="26.526" gradientUnits="userSpaceOnUse">
<stop stop-color="#91A5BF"/>
<stop offset="1" stop-color="#CFE8FF"/>
</linearGradient>
<linearGradient id="paint18_linear_269_19203" x1="18.4582" y1="29.4525" x2="12.243" y2="31.0384" gradientUnits="userSpaceOnUse">
<stop stop-color="#ED654D"/>
<stop offset="1" stop-color="#C5442D"/>
</linearGradient>
<linearGradient id="paint19_linear_269_19203" x1="11.5135" y1="34.224" x2="18.6952" y2="32.7599" gradientUnits="userSpaceOnUse">
<stop stop-color="#91A5BF"/>
<stop offset="1" stop-color="#CFE8FF" stop-opacity="0.01"/>
</linearGradient>
<linearGradient id="paint20_linear_269_19203" x1="21.9343" y1="29.4017" x2="16.1144" y2="30.8868" gradientUnits="userSpaceOnUse">
<stop stop-color="#ED654D"/>
<stop offset="1" stop-color="#C5442D"/>
</linearGradient>
<linearGradient id="paint21_linear_269_19203" x1="21.5839" y1="24.4824" x2="16.1499" y2="43.8661" gradientUnits="userSpaceOnUse">
<stop stop-color="#FF9763"/>
<stop offset="1" stop-color="#C5442D"/>
</linearGradient>
<linearGradient id="paint22_linear_269_19203" x1="18.831" y1="38.1066" x2="23.2915" y2="40.4307" gradientUnits="userSpaceOnUse">
<stop stop-color="#FF9763" stop-opacity="0"/>
<stop offset="0.94" stop-color="#C84930" stop-opacity="0.94"/>
<stop offset="1" stop-color="#C5442D"/>
</linearGradient>
<linearGradient id="paint23_linear_269_19203" x1="22.4737" y1="19.4903" x2="22.4737" y2="34.7126" gradientUnits="userSpaceOnUse">
<stop stop-color="#2F84A8"/>
<stop offset="1" stop-color="#003D55"/>
</linearGradient>
<linearGradient id="paint24_linear_269_19203" x1="23.2339" y1="24.6021" x2="23.9542" y2="34.8125" gradientUnits="userSpaceOnUse">
<stop stop-color="#2F84A8" stop-opacity="0"/>
<stop offset="1" stop-color="#003D55"/>
</linearGradient>
<linearGradient id="paint25_linear_269_19203" x1="10.6385" y1="22.8255" x2="11.6995" y2="43.4564" gradientUnits="userSpaceOnUse">
<stop stop-color="#FF9763"/>
<stop offset="1" stop-color="#C5442D"/>
</linearGradient>
<linearGradient id="paint26_linear_269_19203" x1="16.406" y1="33.2462" x2="8.25748" y2="33.2462" gradientUnits="userSpaceOnUse">
<stop stop-color="#FF9763" stop-opacity="0.01"/>
<stop offset="0.95" stop-color="#C7482F" stop-opacity="0.95"/>
<stop offset="1" stop-color="#C5442D"/>
</linearGradient>
<linearGradient id="paint27_linear_269_19203" x1="13.0584" y1="37.7667" x2="13.2738" y2="41.958" gradientUnits="userSpaceOnUse">
<stop stop-color="#FF9763"/>
<stop offset="1" stop-color="#C5442D"/>
</linearGradient>
<linearGradient id="paint28_linear_269_19203" x1="8.98961" y1="18.691" x2="8.40233" y2="35.7179" gradientUnits="userSpaceOnUse">
<stop stop-color="#2F84A8"/>
<stop offset="1" stop-color="#003D55"/>
</linearGradient>
<linearGradient id="paint29_linear_269_19203" x1="9.95059" y1="26.5512" x2="9.95059" y2="34.8985" gradientUnits="userSpaceOnUse">
<stop stop-color="#2F84A8" stop-opacity="0"/>
<stop offset="1" stop-color="#003D55"/>
</linearGradient>
<linearGradient id="paint30_linear_269_19203" x1="10.1332" y1="17.0979" x2="15.4642" y2="17.0979" gradientUnits="userSpaceOnUse">
<stop stop-color="#ED654D"/>
<stop offset="1" stop-color="#C5442D"/>
</linearGradient>
<linearGradient id="paint31_linear_269_19203" x1="5.17874" y1="31.5351" x2="5.25194" y2="31.4194" gradientUnits="userSpaceOnUse">
<stop stop-color="#95BEDE"/>
<stop offset="1" stop-color="#C9EAFF" stop-opacity="0"/>
</linearGradient>
<linearGradient id="paint32_linear_269_19203" x1="20.9101" y1="4.89161" x2="19.2634" y2="10.99" gradientUnits="userSpaceOnUse">
<stop stop-color="#FFCEAA"/>
<stop offset="1" stop-color="#F69E80"/>
</linearGradient>
<linearGradient id="paint33_linear_269_19203" x1="19.6898" y1="10.3356" x2="19.6898" y2="2.25419" gradientUnits="userSpaceOnUse">
<stop stop-color="#B56F02"/>
<stop offset="1" stop-color="#530F00"/>
</linearGradient>
<linearGradient id="paint34_linear_269_19203" x1="19.1622" y1="10.0248" x2="19.1622" y2="5.14002" gradientUnits="userSpaceOnUse">
<stop stop-color="#B56F02"/>
<stop offset="1" stop-color="#530F00"/>
</linearGradient>
<linearGradient id="paint35_linear_269_19203" x1="9.84138" y1="16.8729" x2="9.84138" y2="16.8715" gradientUnits="userSpaceOnUse">
<stop stop-color="#FFCEAA"/>
<stop offset="1" stop-color="#F69E80"/>
</linearGradient>
<linearGradient id="paint36_linear_269_19203" x1="11.6263" y1="10.7461" x2="11.6263" y2="10.4445" gradientUnits="userSpaceOnUse">
<stop stop-color="#FFCEAA"/>
<stop offset="1" stop-color="#F69E80"/>
</linearGradient>
<linearGradient id="paint37_linear_269_19203" x1="15.5544" y1="4.35879" x2="15.5544" y2="32.7223" gradientUnits="userSpaceOnUse">
<stop stop-color="#FFCEAA"/>
<stop offset="0.27" stop-color="#FDC6A3"/>
<stop offset="0.67" stop-color="#FAB392"/>
<stop offset="1" stop-color="#F69E80"/>
</linearGradient>
<linearGradient id="paint38_linear_269_19203" x1="11.4657" y1="10.5437" x2="11.4657" y2="2.91121" gradientUnits="userSpaceOnUse">
<stop stop-color="#B56F02"/>
<stop offset="1" stop-color="#530F00"/>
</linearGradient>
<linearGradient id="paint39_linear_269_19203" x1="11.3185" y1="10.4254" x2="11.3185" y2="5.52058" gradientUnits="userSpaceOnUse">
<stop stop-color="#B56F02"/>
<stop offset="1" stop-color="#530F00"/>
</linearGradient>
<linearGradient id="paint40_linear_269_19203" x1="14.0794" y1="8.80277" x2="14.0794" y2="6.23508" gradientUnits="userSpaceOnUse">
<stop stop-color="#FFCEAA"/>
<stop offset="1" stop-color="#F69E80"/>
</linearGradient>
<linearGradient id="paint41_linear_269_19203" x1="18.322" y1="8.99924" x2="18.4595" y2="6.08073" gradientUnits="userSpaceOnUse">
<stop stop-color="#FFCEAA"/>
<stop offset="1" stop-color="#F69E80"/>
</linearGradient>
<linearGradient id="paint42_linear_269_19203" x1="13.6516" y1="8.72863" x2="14.916" y2="8.29646" gradientUnits="userSpaceOnUse">
<stop stop-color="#1C7BA3"/>
<stop offset="1" stop-color="#003D55"/>
</linearGradient>
<linearGradient id="paint43_linear_269_19203" x1="13.8159" y1="8.89951" x2="14.8872" y2="8.53316" gradientUnits="userSpaceOnUse">
<stop stop-color="#1C7BA3"/>
<stop offset="1" stop-color="#003D55"/>
</linearGradient>
<linearGradient id="paint44_linear_269_19203" x1="13.9701" y1="8.54624" x2="14.5739" y2="8.33989" gradientUnits="userSpaceOnUse">
<stop stop-color="#1C7BA3"/>
<stop offset="1" stop-color="#003D55"/>
</linearGradient>
<linearGradient id="paint45_linear_269_19203" x1="13.0698" y1="8.13866" x2="15.1585" y2="8.45773" gradientUnits="userSpaceOnUse">
<stop stop-color="#371A00"/>
<stop offset="1" stop-color="#643700"/>
</linearGradient>
<linearGradient id="paint46_linear_269_19203" x1="17.6052" y1="8.1565" x2="18.441" y2="9.00659" gradientUnits="userSpaceOnUse">
<stop stop-color="#1C7BA3"/>
<stop offset="1" stop-color="#003D55"/>
</linearGradient>
<linearGradient id="paint47_linear_269_19203" x1="17.7978" y1="9.16721" x2="18.6757" y2="8.45679" gradientUnits="userSpaceOnUse">
<stop stop-color="#1C7BA3"/>
<stop offset="1" stop-color="#003D55"/>
</linearGradient>
<linearGradient id="paint48_linear_269_19203" x1="17.8219" y1="8.78317" x2="18.3169" y2="8.38282" gradientUnits="userSpaceOnUse">
<stop stop-color="#1C7BA3"/>
<stop offset="1" stop-color="#003D55"/>
</linearGradient>
<linearGradient id="paint49_linear_269_19203" x1="17.6168" y1="8.59887" x2="19.4094" y2="8.23378" gradientUnits="userSpaceOnUse">
<stop stop-color="#371A00"/>
<stop offset="1" stop-color="#643700"/>
</linearGradient>
<linearGradient id="paint50_linear_269_19203" x1="16.8662" y1="7.02148" x2="17.0657" y2="10.4109" gradientUnits="userSpaceOnUse">
<stop stop-color="#FFCEAA"/>
<stop offset="1" stop-color="#F69E80"/>
</linearGradient>
<linearGradient id="paint51_linear_269_19203" x1="10.1172" y1="9.55675" x2="11.7946" y2="9.55675" gradientUnits="userSpaceOnUse">
<stop stop-color="#FFCEAA"/>
<stop offset="1" stop-color="#F69E80"/>
</linearGradient>
<linearGradient id="paint52_linear_269_19203" x1="11.3168" y1="9.04654" x2="10.5867" y2="9.96383" gradientUnits="userSpaceOnUse">
<stop stop-color="#FFCEAA" stop-opacity="0"/>
<stop offset="1" stop-color="#F69E80"/>
</linearGradient>
<linearGradient id="paint53_linear_269_19203" x1="12.9359" y1="6.67769" x2="15.5926" y2="6.41079" gradientUnits="userSpaceOnUse">
<stop stop-color="#A36203"/>
<stop offset="1" stop-color="#530F00"/>
</linearGradient>
<linearGradient id="paint54_linear_269_19203" x1="19.7637" y1="5.949" x2="17.3372" y2="7.52942" gradientUnits="userSpaceOnUse">
<stop stop-color="#A36203"/>
<stop offset="1" stop-color="#530F00"/>
</linearGradient>
<linearGradient id="paint55_linear_269_19203" x1="14.7715" y1="1.23688" x2="15.1062" y2="5.07058" gradientUnits="userSpaceOnUse">
<stop stop-color="#B56F02"/>
<stop offset="1" stop-color="#530F00"/>
</linearGradient>
<linearGradient id="paint56_linear_269_19203" x1="2.11254" y1="26.7364" x2="11.785" y2="37.2344" gradientUnits="userSpaceOnUse">
<stop stop-color="#FF9763"/>
<stop offset="1" stop-color="#C5442D"/>
</linearGradient>
<linearGradient id="paint57_linear_269_19203" x1="4.45549" y1="28.685" x2="6.50061" y2="30.7008" gradientUnits="userSpaceOnUse">
<stop stop-color="#FF9763" stop-opacity="0.01"/>
<stop offset="0.95" stop-color="#C7482F" stop-opacity="0.95"/>
<stop offset="1" stop-color="#C5442D"/>
</linearGradient>
<linearGradient id="paint58_linear_269_19203" x1="7.07687" y1="32.1543" x2="4.63344" y2="40.7133" gradientUnits="userSpaceOnUse">
<stop stop-color="#FF9763"/>
<stop offset="1" stop-color="#C5442D"/>
</linearGradient>
<linearGradient id="paint59_linear_269_19203" x1="7.7443" y1="33.512" x2="2.3221" y2="38.5297" gradientUnits="userSpaceOnUse">
<stop stop-color="#FF9763" stop-opacity="0"/>
<stop offset="0.94" stop-color="#C84930" stop-opacity="0.94"/>
<stop offset="1" stop-color="#C5442D"/>
</linearGradient>
<linearGradient id="paint60_linear_269_19203" x1="11.8404" y1="39.3361" x2="11.8404" y2="37.4951" gradientUnits="userSpaceOnUse">
<stop stop-color="#91A5BF"/>
<stop offset="1" stop-color="#CFE8FF"/>
</linearGradient>
<linearGradient id="paint61_linear_269_19203" x1="17.2765" y1="17.0366" x2="19.7153" y2="17.0369" gradientUnits="userSpaceOnUse">
<stop stop-color="#ED654D"/>
<stop offset="1" stop-color="#C5442D"/>
</linearGradient>
<linearGradient id="paint62_linear_269_19203" x1="12.8144" y1="34.2898" x2="12.2559" y2="38.9669" gradientUnits="userSpaceOnUse">
<stop stop-color="#ED654D"/>
<stop offset="1" stop-color="#7D291A"/>
</linearGradient>
<linearGradient id="paint63_linear_269_19203" x1="27.7035" y1="31.1273" x2="24.5959" y2="38.0224" gradientUnits="userSpaceOnUse">
<stop stop-color="#FF9763"/>
<stop offset="1" stop-color="#C5442D"/>
</linearGradient>
<linearGradient id="paint64_linear_269_19203" x1="23.1242" y1="39.6148" x2="23.1242" y2="36.6791" gradientUnits="userSpaceOnUse">
<stop stop-color="#91A5BF"/>
<stop offset="1" stop-color="#CFE8FF"/>
</linearGradient>
<linearGradient id="paint65_linear_269_19203" x1="25.4818" y1="35.136" x2="26.2522" y2="37.908" gradientUnits="userSpaceOnUse">
<stop stop-color="#FF9763" stop-opacity="0"/>
<stop offset="0.94" stop-color="#C84930" stop-opacity="0.94"/>
<stop offset="1" stop-color="#C5442D"/>
</linearGradient>
<linearGradient id="paint66_linear_269_19203" x1="22.1049" y1="37.0902" x2="20.8023" y2="41.7363" gradientUnits="userSpaceOnUse">
<stop stop-color="#FF9763"/>
<stop offset="1" stop-color="#C5442D"/>
</linearGradient>
<linearGradient id="paint67_linear_269_19203" x1="24.1643" y1="34.8788" x2="22.3959" y2="38.111" gradientUnits="userSpaceOnUse">
<stop stop-color="#ED654D"/>
<stop offset="1" stop-color="#7D291A"/>
</linearGradient>
<linearGradient id="paint68_linear_269_19203" x1="11.6931" y1="2.70993" x2="14.7293" y2="4.69573" gradientUnits="userSpaceOnUse">
<stop stop-color="#B56F02"/>
<stop offset="1" stop-color="#530F00" stop-opacity="0"/>
</linearGradient>
<linearGradient id="paint69_linear_269_19203" x1="14.1155" y1="1.27391" x2="15.3826" y2="4.87677" gradientUnits="userSpaceOnUse">
<stop stop-color="#B56F02"/>
<stop offset="1" stop-color="#530F00" stop-opacity="0"/>
</linearGradient>
<linearGradient id="paint70_linear_269_19203" x1="15.3285" y1="0.319857" x2="15.3285" y2="0.546621" gradientUnits="userSpaceOnUse">
<stop stop-color="#B56F02"/>
<stop offset="1" stop-color="#530F00" stop-opacity="0"/>
</linearGradient>
<linearGradient id="paint71_linear_269_19203" x1="17.6694" y1="0.244172" x2="17.6694" y2="4.38002" gradientUnits="userSpaceOnUse">
<stop stop-color="#B56F02"/>
<stop offset="1" stop-color="#530F00" stop-opacity="0"/>
</linearGradient>
<linearGradient id="paint72_linear_269_19203" x1="3.58975" y1="33.2039" x2="3.59355" y2="33.2795" gradientUnits="userSpaceOnUse">
<stop stop-color="#FF9763"/>
<stop offset="1" stop-color="#C5442D"/>
</linearGradient>
<linearGradient id="paint73_linear_269_19203" x1="17.3249" y1="35.6443" x2="17.3265" y2="35.6757" gradientUnits="userSpaceOnUse">
<stop stop-color="#FF9763"/>
<stop offset="1" stop-color="#C5442D"/>
</linearGradient>
</defs>
</svg>
