<svg width="21" height="20" viewBox="0 0 21 20" fill="none" xmlns="http://www.w3.org/2000/svg">
<mask id="mask0_806_31084" style="mask-type:luminance" maskUnits="userSpaceOnUse" x="0" y="0" width="21" height="20">
<path d="M20.5 0H0.5V20H20.5V0Z" fill="white"/>
</mask>
<g mask="url(#mask0_806_31084)">
<path d="M4.375 6.75H8.90625C9.10938 6.75 9.28125 6.57813 9.28125 6.375C9.28125 6.17188 9.10938 6 8.90625 6H4.375C4.17187 6 4 6.17188 4 6.375C4 6.57813 4.17187 6.75 4.375 6.75ZM4.375 9H8.90625C9.10938 9 9.28125 8.82812 9.28125 8.625C9.28125 8.42188 9.10938 8.25 8.90625 8.25H4.375C4.17187 8.25 4 8.42188 4 8.625C4 8.82812 4.17187 9 4.375 9ZM4.375 11.2656H8.90625C9.10938 11.2656 9.28125 11.0938 9.28125 10.8906C9.28125 10.6875 9.10938 10.5156 8.90625 10.5156H4.375C4.17187 10.5156 4 10.6875 4 10.8906C4 11.1094 4.17187 11.2656 4.375 11.2656ZM9.29688 13.1562C9.29688 12.9531 9.125 12.7812 8.92188 12.7812H4.39062C4.1875 12.7812 4.01563 12.9531 4.01563 13.1562C4.01563 13.3594 4.17187 13.5312 4.375 13.5312H8.90625C9.125 13.5312 9.29688 13.375 9.29688 13.1562Z" fill="#747677"/>
<path d="M19.5567 2H17.3931C16.666 2 15.9212 2.04715 15.2118 2.12574C13.7754 2.29862 12.3566 2.66012 10.9911 3.16306C9.62562 2.66012 8.2069 2.29862 6.77044 2.14145C6.06108 2.06287 5.31626 2.01572 4.58916 2.01572H2.42562C2.19507 2.01572 2 2.18861 2 2.39293V16.444C2 16.6483 2.19507 16.8212 2.42562 16.8212H4.58916C5.28079 16.8212 5.99015 16.8684 6.66404 16.947C7.00098 16.9941 7.3202 17.0413 7.63941 17.0884C8.73892 17.277 9.80296 17.5756 10.8315 17.9686H10.8493C10.9025 17.9843 10.9379 18 10.9911 18C11.0443 18 11.0975 17.9843 11.1507 17.9686H11.1685C12.197 17.5756 13.2788 17.277 14.3606 17.0884C14.6798 17.0413 14.999 16.9941 15.336 16.947C16.0099 16.8684 16.7015 16.8212 17.4108 16.8212H19.5744C19.8049 16.8212 20 16.6483 20 16.444V2.39293C19.9823 2.17289 19.8049 2 19.5567 2ZM2.85123 2.77014H4.57143C5.26305 2.77014 5.97241 2.81729 6.64631 2.89587C7.97635 3.05305 9.3064 3.36739 10.5655 3.82318V17.057C10.5123 17.0413 10.4591 17.0255 10.4236 17.0098C10.3527 16.9941 10.2818 16.9627 10.2108 16.947C10.0158 16.8841 9.80296 16.8212 9.59015 16.7583C9.53695 16.7426 9.46601 16.7269 9.41281 16.7112C9.16453 16.6483 8.93399 16.5855 8.68571 16.5226C8.66798 16.5226 8.65025 16.5069 8.63251 16.5069C8.34877 16.444 8.06502 16.3811 7.78128 16.334C7.46207 16.2868 7.12512 16.224 6.77044 16.1925C6.06108 16.1139 5.31626 16.0668 4.58916 16.0668H2.86897V2.77014H2.85123ZM19.131 16.0511H17.4108C16.6837 16.0511 15.9389 16.0982 15.2296 16.1768C14.8749 16.224 14.5379 16.2711 14.201 16.3183C13.2611 16.4912 12.3212 16.7269 11.4345 17.0255V3.82318C12.6936 3.36739 14.0059 3.05305 15.3537 2.89587C16.0276 2.81729 16.7192 2.77014 17.4286 2.77014H19.1488V16.0511H19.131Z" fill="#747677"/>
<path fill-rule="evenodd" clip-rule="evenodd" d="M15.1992 2.02576C15.9117 1.94683 16.6603 1.89941 17.3915 1.89941H19.5551C19.8544 1.89941 20.0761 2.11124 20.0981 2.38431L20.0988 2.39234L20.0984 16.4434C20.0984 16.714 19.8469 16.9206 19.5728 16.9206H17.4093C16.7047 16.9206 16.0174 16.9674 15.3471 17.0456C15.0115 17.0925 14.6934 17.1395 14.375 17.1865C13.3 17.374 12.2248 17.6709 11.2026 18.0614L11.1854 18.068H11.1636C11.1151 18.0823 11.0535 18.0994 10.9896 18.0994C10.9303 18.0994 10.8815 18.0837 10.843 18.0713C10.8395 18.0701 10.836 18.069 10.8327 18.068H10.8115L10.7943 18.0614C9.77177 17.6708 8.71438 17.374 7.62204 17.1866C7.30353 17.1395 6.98542 17.0925 6.64975 17.0456C5.9795 16.9674 5.27445 16.9206 4.5876 16.9206H2.42405C2.14997 16.9206 1.89844 16.714 1.89844 16.4434V2.39234C1.89844 2.12178 2.14997 1.91513 2.42405 1.91513H4.5876C5.31885 1.91513 6.06736 1.96254 6.77982 2.04147C8.21344 2.19833 9.62829 2.55726 10.9896 3.05594C12.3509 2.55724 13.7663 2.19822 15.1992 2.02576ZM10.9896 3.16248C9.62405 2.65953 8.20533 2.29804 6.76888 2.14087C6.05952 2.06228 5.31469 2.01513 4.5876 2.01513H2.42405C2.19351 2.01513 1.99844 2.18802 1.99844 2.39234V16.4434C1.99844 16.6477 2.19351 16.8206 2.42405 16.8206H4.5876C5.27923 16.8206 5.98858 16.8678 6.66248 16.9464C6.99941 16.9935 7.31862 17.0407 7.63782 17.0878C8.73733 17.2764 9.80139 17.575 10.83 17.968H10.8477C10.8588 17.9712 10.8691 17.9745 10.879 17.9777C10.9165 17.9896 10.9475 17.9994 10.9896 17.9994C11.0428 17.9994 11.096 17.9837 11.1492 17.968H11.1669C12.1955 17.575 13.2773 17.2764 14.359 17.0878C14.6782 17.0407 14.9975 16.9935 15.3344 16.9464C16.0083 16.8678 16.6999 16.8206 17.4093 16.8206H19.5728C19.8034 16.8206 19.9984 16.6477 19.9984 16.4434V2.39234C19.9807 2.1723 19.8034 1.99941 19.5551 1.99941H17.3915C16.6644 1.99941 15.9196 2.04656 15.2103 2.12515C13.7738 2.29804 12.3551 2.65953 10.9896 3.16248ZM10.4221 17.0092C10.4342 17.0146 10.4484 17.02 10.464 17.0253C10.4939 17.0357 10.5289 17.046 10.564 17.0564V3.8226C9.30484 3.3668 7.97479 3.05246 6.64474 2.89529C5.97085 2.8167 5.26149 2.76955 4.56987 2.76955H2.8674V16.0662H4.5876C5.31469 16.0662 6.05952 16.1134 6.76888 16.1919C7.02651 16.2148 7.27479 16.2542 7.51371 16.2921C7.6037 16.3064 7.69238 16.3205 7.77972 16.3334C8.06346 16.3805 8.34721 16.4434 8.63095 16.5063C8.63982 16.5063 8.64868 16.5102 8.65755 16.5141C8.66642 16.5181 8.67528 16.522 8.68415 16.522C8.80829 16.5534 8.92799 16.5849 9.0477 16.6163C9.1674 16.6477 9.28711 16.6792 9.41124 16.7106C9.43785 16.7185 9.46889 16.7263 9.49992 16.7342C9.53096 16.742 9.56199 16.7499 9.58858 16.7578C9.80131 16.8206 10.0143 16.8835 10.2093 16.9464C10.2447 16.9542 10.2802 16.966 10.3157 16.9778C10.3511 16.9896 10.3866 17.0014 10.4221 17.0092ZM10.2357 16.8498C10.2745 16.8587 10.3124 16.8713 10.3451 16.8822L10.3472 16.8829C10.3836 16.895 10.4141 16.905 10.4437 16.9116L10.4535 16.9138L10.4626 16.9178L10.464 16.9184V3.8929C9.23164 3.45253 7.93231 3.14814 6.63306 2.9946C5.9625 2.91641 5.25708 2.86955 4.56987 2.86955H2.9674V15.9662H4.5876C5.3185 15.9662 6.06665 16.0136 6.77881 16.0924C7.03977 16.1156 7.2929 16.1558 7.53254 16.1938C7.62177 16.208 7.70913 16.2219 7.79433 16.2345L7.79611 16.2347C8.08058 16.282 8.36458 16.3448 8.64559 16.4071C8.65799 16.4085 8.66832 16.4114 8.67579 16.4138C8.68435 16.4167 8.69221 16.4201 8.69645 16.422L8.7087 16.4251C8.83333 16.4566 8.95345 16.4882 9.0731 16.5196C9.19281 16.551 9.3122 16.5824 9.43579 16.6137L9.4396 16.6146C9.46394 16.6218 9.49291 16.6292 9.52446 16.6372L9.52563 16.6375C9.55582 16.6452 9.58843 16.6534 9.61692 16.6618C9.82767 16.7241 10.0406 16.787 10.2357 16.8498ZM15.217 16.0768C15.9295 15.9979 16.678 15.9505 17.4093 15.9505H19.0472V2.86955H17.427C16.7221 2.86955 16.0344 2.91641 15.3637 2.99461C14.0473 3.14813 12.7648 3.45247 11.5329 3.89289V16.8863C12.3856 16.6067 13.2837 16.3844 14.1813 16.2193L14.1856 16.2185C14.5225 16.1714 14.8597 16.1243 15.2148 16.0771L15.217 16.0768ZM11.5329 16.9916C11.4995 17.0026 11.4662 17.0137 11.4329 17.0249V3.8226C12.692 3.3668 14.0043 3.05246 15.3521 2.89529C16.026 2.8167 16.7176 2.76955 17.427 2.76955H19.1472V16.0505H17.4093C16.6822 16.0505 15.9374 16.0976 15.228 16.1762C14.8733 16.2234 14.5364 16.2705 14.1994 16.3177C13.2948 16.4841 12.3901 16.7087 11.5329 16.9916Z" fill="#747677"/>
<path d="M13 6.375C13 6.57812 13.1719 6.75 13.375 6.75H17.9062C18.1094 6.75 18.2813 6.57812 18.2813 6.375C18.2813 6.17187 18.1094 6 17.9062 6H13.375C13.1719 6 13 6.17187 13 6.375ZM17.9219 8.26562H13.3906C13.1875 8.26562 13.0156 8.4375 13.0156 8.64062C13.0156 8.84375 13.1875 9.01562 13.3906 9.01562H17.9219C18.125 9.01562 18.2969 8.84375 18.2969 8.64062C18.2969 8.4375 18.125 8.26562 17.9219 8.26562ZM17.9219 10.5312H13.3906C13.1875 10.5312 13.0156 10.7031 13.0156 10.9062C13.0156 11.1094 13.1875 11.2812 13.3906 11.2812H17.9219C18.125 11.2812 18.2969 11.1094 18.2969 10.9062C18.2969 10.7031 18.125 10.5312 17.9219 10.5312ZM17.9219 12.7969H13.3906C13.1875 12.7969 13.0156 12.9687 13.0156 13.1719C13.0156 13.375 13.1875 13.5469 13.3906 13.5469H17.9219C18.125 13.5469 18.2969 13.375 18.2969 13.1719C18.2969 12.9687 18.125 12.7969 17.9219 12.7969Z" fill="#747677"/>
</g>
</svg>
