<svg width="21" height="20" viewBox="0 0 21 20" fill="none" xmlns="http://www.w3.org/2000/svg">
<path d="M9.3737 1C5.03192 1 1.5 4.53192 1.5 8.8737C1.5 13.2155 5.03192 16.7474 9.3737 16.7474C11.3421 16.7474 13.1396 16.0151 14.5208 14.8161L18.5331 18.8283C18.5849 18.882 18.647 18.9249 18.7156 18.9543C18.7842 18.9838 18.858 18.9993 18.9327 19C19.0074 19.0006 19.0814 18.9864 19.1506 18.9581C19.2197 18.9298 19.2825 18.8881 19.3353 18.8353C19.3881 18.7825 19.4298 18.7197 19.4581 18.6506C19.4864 18.5814 19.5006 18.5074 19.5 18.4327C19.4993 18.358 19.4838 18.2842 19.4543 18.2156C19.4249 18.147 19.382 18.0849 19.3283 18.0331L15.3161 14.0208C16.5607 12.5949 17.2468 10.7664 17.2474 8.8737C17.2474 4.53192 13.7155 1 9.3737 1ZM9.3737 2.12481C13.1081 2.12481 16.1226 5.13932 16.1226 8.8737C16.1226 12.6081 13.1081 15.6226 9.3737 15.6226C5.63932 15.6226 2.62481 12.6081 2.62481 8.8737C2.62481 5.13932 5.63932 2.12481 9.3737 2.12481Z" fill="#93268F"/>
</svg>
