<svg width="23" height="23" viewBox="0 0 23 23" fill="none" xmlns="http://www.w3.org/2000/svg">
<g clip-path="url(#clip0_0_3392)">
<path d="M11.5 22.4805C17.5751 22.4805 22.5 17.5556 22.5 11.4805C22.5 5.40534 17.5751 0.480469 11.5 0.480469C5.42487 0.480469 0.5 5.40534 0.5 11.4805C0.5 17.5556 5.42487 22.4805 11.5 22.4805Z" fill="#F4CF16"/>
<path d="M11.4988 22.2178C17.4287 22.2178 22.2358 17.4106 22.2358 11.4807C22.2358 5.55079 17.4287 0.743652 11.4988 0.743652C5.56886 0.743652 0.761719 5.55079 0.761719 11.4807C0.761719 17.4106 5.56886 22.2178 11.4988 22.2178Z" fill="#FFEE1D"/>
<path d="M11.5004 20.9027C8.98358 20.9027 6.61749 19.9228 4.83777 18.1431C3.05805 16.3634 2.07812 13.9973 2.07812 11.4804C2.07812 8.96356 3.05805 6.59747 4.83777 4.81775C6.61749 3.03803 8.98358 2.05811 11.5004 2.05811C14.0173 2.05811 16.3834 3.03803 18.1631 4.81775C19.9428 6.59747 20.9227 8.96356 20.9227 11.4804C20.9227 13.9973 19.9428 16.3634 18.1631 18.1431C16.3834 19.9228 14.0173 20.9027 11.5004 20.9027Z" fill="#EDB61D"/>
<path d="M18.4629 5.13153C16.7235 3.54201 14.4858 2.67165 12.114 2.67165C9.59713 2.67165 7.23103 3.65157 5.45131 5.43129C3.67159 7.21101 2.69167 9.57711 2.69167 12.094C2.69167 14.4658 3.56203 16.7034 5.15155 18.4428C5.04506 18.3456 4.94032 18.2456 4.83777 18.1431C3.05805 16.3634 2.07812 13.9973 2.07812 11.4804C2.07812 8.96356 3.05805 6.59747 4.83777 4.81775C6.61749 3.03803 8.98358 2.05811 11.5004 2.05811C14.0173 2.05811 16.3834 3.03803 18.1631 4.81775C18.2657 4.9203 18.3656 5.02504 18.4629 5.13153Z" fill="#D38D13"/>
<path d="M22.5017 11.4803C22.5017 17.5553 17.5767 22.4803 11.5017 22.4803C5.76508 22.4803 1.05437 18.0891 0.546875 12.4843C0.634963 12.5212 0.726556 12.558 0.821656 12.5948C1.37954 18.001 5.94827 22.2174 11.5017 22.2174C17.4317 22.2174 22.2388 17.4102 22.2388 11.4803C22.2388 6.70956 19.1272 2.66542 14.8228 1.26697C14.8061 1.16311 14.7895 1.06538 14.7728 0.975098C19.2504 2.36741 22.5017 6.54434 22.5017 11.4803Z" fill="#DBB30E"/>
<path d="M18.4618 5.12956C17.4565 4.21143 16.2846 3.53346 15.0167 3.12458C15.0102 2.98741 15.0018 2.8533 14.9922 2.72314C16.1663 3.19075 17.2439 3.89765 18.1642 4.81797C18.2409 4.89466 18.3167 4.9731 18.3904 5.05243C18.4145 5.07785 18.4381 5.1037 18.4618 5.12956Z" fill="#BC790D"/>
<path d="M22.2374 11.4804C22.2374 17.4104 17.4303 22.2175 11.5004 22.2175C5.94693 22.2175 1.3782 18.0011 0.820312 12.5949C1.21912 12.7487 1.67928 12.8982 2.2043 13.0296C2.52115 14.9575 3.42876 16.7341 4.83772 18.1431C4.91442 18.2198 4.99286 18.2956 5.07218 18.3692C5.0976 18.3938 5.12346 18.4174 5.14932 18.4407L5.15151 18.4429C6.89091 20.0324 9.1286 20.9027 11.5004 20.9027C14.0172 20.9027 16.3833 19.9228 18.1631 18.1431C19.9428 16.3634 20.9227 13.9973 20.9227 11.4804C20.9227 9.10864 20.0523 6.87095 18.4628 5.13155C18.4619 5.13068 18.4615 5.13024 18.4606 5.12936C18.4374 5.1035 18.4137 5.07765 18.3892 5.05223C18.3156 4.97291 18.2398 4.89446 18.1631 4.81777C17.2427 3.89745 16.1651 3.19056 14.991 2.72295C14.9498 2.16111 14.8854 1.66589 14.8214 1.26709C19.1259 2.66554 22.2374 6.70968 22.2374 11.4804Z" fill="#F9D521"/>
<path d="M20.9223 11.4805C20.9223 13.9973 19.9424 16.3634 18.1627 18.1431C16.3829 19.9229 14.0169 20.9028 11.5 20.9028C9.12821 20.9028 6.89052 20.0324 5.15112 18.4429L5.14893 18.4407C3.8 16.9634 2.96952 15.1271 2.74996 13.1546C4.03928 13.4223 5.66825 13.5718 7.67498 13.4381C9.32016 13.237 12.7569 12.3565 14.2097 8.53676C14.9709 6.6878 15.0936 4.69553 15.0152 3.12441C16.283 3.5333 17.4549 4.21127 18.4602 5.12939C18.4611 5.13027 18.4616 5.13071 18.4624 5.13158C20.052 6.87099 20.9223 9.10868 20.9223 11.4805Z" fill="#D8A016"/>
<path d="M5.14814 18.4408C5.12229 18.4172 5.09643 18.3935 5.07101 18.3694C4.99169 18.2958 4.91324 18.2199 4.83655 18.1433C3.42759 16.7343 2.51998 14.9576 2.20312 13.0298C2.37799 13.0736 2.55986 13.1157 2.74918 13.1547C2.96874 15.1272 3.79922 16.9635 5.14814 18.4408Z" fill="#BC790D"/>
<path d="M11.9034 5.35352C12.9591 5.35352 14.1569 8.92523 14.1569 8.92523C14.1569 8.92523 17.924 8.96029 18.2501 9.96475C18.5761 10.9688 15.5492 13.2117 15.5492 13.2117C15.5492 13.2117 16.6798 16.8053 15.8257 17.4259C14.9716 18.0465 11.903 15.8609 11.903 15.8609C11.903 15.8609 8.83478 18.0469 7.9802 17.4259C7.12606 16.8053 8.25674 13.2117 8.25674 13.2117C8.25674 13.2117 5.22976 10.9688 5.55582 9.96475C5.88188 8.96073 9.64905 8.92523 9.64905 8.92523C9.64905 8.92523 10.8468 5.35352 11.9025 5.35352H11.9034Z" fill="#D38D13"/>
<path d="M7.78192 6.28636C6.56709 7.09449 5.82251 8.11079 5.38996 7.46043C4.95741 6.81007 5.59156 5.62768 6.80638 4.81955C8.0212 4.01186 9.35698 3.88389 9.78952 4.53469C10.2225 5.18505 8.99674 5.47824 7.78192 6.28636Z" fill="#FFD364"/>
<path d="M11.501 4.95068C12.5568 4.95068 13.7545 8.5224 13.7545 8.5224C13.7545 8.5224 17.5217 8.55746 17.8477 9.56192C18.1738 10.5659 15.1468 12.8089 15.1468 12.8089C15.1468 12.8089 16.2775 16.4025 15.4234 17.0231C14.5692 17.6436 11.5006 15.4581 11.5006 15.4581C11.5006 15.4581 8.43244 17.6441 7.57786 17.0231C6.72371 16.4025 7.85439 12.8089 7.85439 12.8089C7.85439 12.8089 4.82742 10.5659 5.15348 9.56192C5.47953 8.55789 9.2467 8.5224 9.2467 8.5224C9.2467 8.5224 10.4444 4.95068 11.5002 4.95068H11.501Z" fill="#FFEE1D"/>
<path d="M15.146 12.8087C15.146 12.8087 16.2766 16.4023 15.4225 17.0228C14.5679 17.6434 11.4997 15.4574 11.4997 15.4574C11.4997 15.4574 8.43157 17.6434 7.57699 17.0228C6.94811 16.5657 7.39512 14.4972 7.67472 13.438C9.3199 13.2368 12.7566 12.3564 14.2094 8.53662C15.2222 8.58308 17.5909 8.77503 17.8464 9.56168C18.1729 10.5657 15.146 12.8087 15.146 12.8087Z" fill="#F9D521"/>
<path d="M10.7859 7.22969C10.4818 8.04614 10.3476 8.74997 10.132 8.66977C9.91641 8.58957 9.98872 7.86252 10.2929 7.04606C10.597 6.22961 11.0186 5.63271 11.2342 5.71335C11.4498 5.79399 11.09 6.41367 10.7859 7.23012V7.22969Z" fill="#FFFC99"/>
<path d="M7.60069 9.47879C6.73953 9.6107 6.05937 9.8364 6.02475 9.60895C5.98969 9.38193 6.65977 9.09094 7.52137 8.95903C8.38252 8.82755 9.10914 8.90512 9.14376 9.13213C9.17838 9.35958 8.46228 9.34731 7.60069 9.47879Z" fill="#FFFC99"/>
</g>
<defs>
<clipPath id="clip0_0_3392">
<rect width="22" height="22" fill="white" transform="translate(0.5 0.480469)"/>
</clipPath>
</defs>
</svg>
