<svg width="20" height="16" viewBox="0 0 20 16" fill="none" xmlns="http://www.w3.org/2000/svg">
<path d="M1.66797 7.16634C1.66797 4.41648 1.66797 3.04155 2.52224 2.18728C3.37651 1.33301 4.75144 1.33301 7.5013 1.33301H8.33464C11.0845 1.33301 12.4594 1.33301 13.3137 2.18728C14.168 3.04155 14.168 4.41648 14.168 7.16634V8.83301C14.168 11.5829 14.168 12.9578 13.3137 13.8121C12.4594 14.6663 11.0845 14.6663 8.33464 14.6663H7.5013C4.75144 14.6663 3.37651 14.6663 2.52224 13.8121C1.66797 12.9578 1.66797 11.5829 1.66797 8.83301V7.16634Z" stroke="#0FBBC3" stroke-width="1.5"/>
<path d="M14.168 5.42089L14.2729 5.33432C16.036 3.87954 16.9176 3.15215 17.6261 3.50337C18.3346 3.85458 18.3346 5.01897 18.3346 7.34775V8.65095C18.3346 10.9797 18.3346 12.1441 17.6261 12.4953C16.9176 12.8465 16.036 12.1192 14.2729 10.6644L14.168 10.5778" stroke="#0FBBC3" stroke-width="1.5" stroke-linecap="round"/>
<ellipse cx="9.58594" cy="5.91602" rx="1.25" ry="1.25" stroke="#0FBBC3" stroke-width="1.5"/>
</svg>
